<mxfile host="app.diagrams.net" agent="Mozilla/5.0 (Windows NT 10.0; Win64; x64) AppleWebKit/537.36 (KHTML, like Gecko) Chrome/130.0.0.0 Safari/537.36 Edg/130.0.0.0" version="24.8.6">
  <diagram name="PÃ¡gina-1" id="-7xPcIMJ33pGmiZqgf3u">
    <mxGraphModel dx="1638" dy="849" grid="1" gridSize="10" guides="1" tooltips="1" connect="1" arrows="1" fold="1" page="1" pageScale="1" pageWidth="827" pageHeight="1169" math="0" shadow="0">
      <root>
        <mxCell id="0" />
        <mxCell id="1" parent="0" />
        <mxCell id="nfWhpfNoUpbQ8YIpsQVP-4" value="" style="edgeStyle=orthogonalEdgeStyle;rounded=0;orthogonalLoop=1;jettySize=auto;html=1;" edge="1" parent="1" source="nfWhpfNoUpbQ8YIpsQVP-1" target="nfWhpfNoUpbQ8YIpsQVP-2">
          <mxGeometry relative="1" as="geometry" />
        </mxCell>
        <mxCell id="nfWhpfNoUpbQ8YIpsQVP-1" value="" style="rounded=1;whiteSpace=wrap;html=1;" vertex="1" parent="1">
          <mxGeometry x="80" y="255" width="300" height="300" as="geometry" />
        </mxCell>
        <mxCell id="nfWhpfNoUpbQ8YIpsQVP-2" value="" style="rounded=1;whiteSpace=wrap;html=1;" vertex="1" parent="1">
          <mxGeometry x="440" y="200" width="300" height="410" as="geometry" />
        </mxCell>
        <mxCell id="nfWhpfNoUpbQ8YIpsQVP-5" value="" style="image;sketch=0;aspect=fixed;html=1;points=[];align=center;fontSize=12;image=img/lib/mscae/VirtualMachineWindows.svg;" vertex="1" parent="1">
          <mxGeometry x="60" y="210" width="76.09" height="70" as="geometry" />
        </mxCell>
        <mxCell id="nfWhpfNoUpbQ8YIpsQVP-6" value="" style="image;sketch=0;aspect=fixed;html=1;points=[];align=center;fontSize=12;image=img/lib/mscae/VM_Linux.svg;" vertex="1" parent="1">
          <mxGeometry x="678.05" y="150" width="76.09" height="70" as="geometry" />
        </mxCell>
        <mxCell id="nfWhpfNoUpbQ8YIpsQVP-7" value="VM WINDOWS" style="text;html=1;align=center;verticalAlign=middle;whiteSpace=wrap;rounded=0;" vertex="1" parent="1">
          <mxGeometry x="52.06999999999999" y="170" width="91.95" height="30" as="geometry" />
        </mxCell>
        <mxCell id="nfWhpfNoUpbQ8YIpsQVP-8" value="VM LINUX" style="text;html=1;align=center;verticalAlign=middle;whiteSpace=wrap;rounded=0;" vertex="1" parent="1">
          <mxGeometry x="686.0999999999999" y="110" width="60" height="30" as="geometry" />
        </mxCell>
        <mxCell id="nfWhpfNoUpbQ8YIpsQVP-9" value="" style="rounded=1;whiteSpace=wrap;html=1;" vertex="1" parent="1">
          <mxGeometry x="120" y="290" width="220" height="230" as="geometry" />
        </mxCell>
        <mxCell id="nfWhpfNoUpbQ8YIpsQVP-10" value="FRONT END" style="text;html=1;align=center;verticalAlign=middle;whiteSpace=wrap;rounded=0;" vertex="1" parent="1">
          <mxGeometry x="136.09" y="260" width="71.95" height="30" as="geometry" />
        </mxCell>
        <mxCell id="nfWhpfNoUpbQ8YIpsQVP-15" value="" style="shape=image;verticalLabelPosition=bottom;labelBackgroundColor=default;verticalAlign=top;aspect=fixed;imageAspect=0;image=data:image/png,iVBORw0KGgoAAAANSUhEUgAABLAAAAHHCAYAAACvPqERAAAAAXNSR0IArs4c6QAAIABJREFUeF7snQmYXFWZ93/nVndnT8gCQkjoBMSVdEBQlBElC5CEbUTEGQcVEZRFQcdlPh0d4zczLuOCbIEAgnGZcXBwRAhrFhgVlT0dCAkg2ToLCemk9+5a7vlyQ/wGQ5Kq7rqn6p66//s8PHke6pz3/N/fe6qr7r/OPcegSwREQAREQAREQAREQAREQAREQAREQAREQAQSTMAkWJukiYAIiIAIiIAIiIAIiIAIiIAIiIAIiIAIiAAysDQJREAEREAEREAEREAEREAEREAEREAEREAEEk1ABlaiyyNxIiACIiACIiACIiACIiACIiACIiACIiACMrA0B0RABERABERABERABERABERABERABERABBJNQAZWossjcSIgAiIgAiIgAiIgAiIgAiIgAiIgAiIgAjKwNAdEQAREQAREQAREQAREQAREQAREQAREQAQSTUAGVqLLI3EiIAIiIAIiIAIiIAIiIAIiIAIiIAIiIAIysDQHREAEREAEREAEREAEREAEREAEREAEREAEEk1ABlaiyyNxIiACIiACIiACIiACIiACIiACIiACIiACMrA0B0RABERABERABERABERABERABERABERABBJNQAZWossjcSIgAiIgAiIgAiIgAiIgAiIgAiIgAiIgAjKwNAdEQAREQAREQAREQAREQAREQAREQAREQAQSTUAGVqLLI3EiIAIiIAIiIAIiIAIiIAIiIAIiIAIiIAIysDQHREAEREAEREAEREAEREAEREAEREAEREAEEk1ABlaiyyNxIiACIiACIiACIiACIiACIiACIiACIiACMrA0B0RABERABERABERABERABERABERABERABBJNQAZWossjcSIgAiIgAiIgAiIgAiIgAiIgAiIgAiIgAjKwNAdEQAREQAREQAREQAREQAREQAREQAREQAQSTUAGVqLLI3EiIAIiIAIiIAIiIAIiIAIiIAIiIAIiIAIysDQHREAEREAEREAEREAEREAEREAEREAEREAEEk1ABlaiyyNxIiACIiACIiACIiACIiACIiACIiACIiACMrA0B0RABERABERABERABERABERABERABERABBJNQAZWossjcSIgAiIgAiIgAiIgAiIgAiIgAiIgAiIgAjKwNAdEQAREQAREQAREQAREQAREQAREQAREQAQSTUAGVqLLI3EiIAIiIAIiIAIiIAIiIAIiIAIiIAIiIAIysDQHREAEREAEREAEREAEREAEREAEREAEREAEEk1ABlaiyyNxIiACIiACIiACIiACIiACIiACIiACIiACMrA0B0RABERABERABERABERABERABERABERABBJNQAZWossjcSIgAiIgAiIgAiIgAiIgAiIgAiIgAiIgAjKw4p0D9cAbgaCMsL3A84AtI8afux4ODC8jTqThBaBnHzEGA0cCPs+jAvAckNtHjiOAyWUwjLruANaVGaNY96gOQ4o1KvL6KqBvH22i2K8vs9YdwOoyNaq7CIiACMRJ4K1AQz8DRp+Ny/bzOT0WOKyfMZPWvGv3Z2PSdEmPCIhA8gkcCExIvsz9Koy+s0b3QPu6GoExnue4FWjZRw7RvV10T1vuvUW1EUX3X9uqLULjx0vAZ+MhXhLxRJsIPAsMKyPcM8BUIDJWyrmi2t4HnFxGkMjUeRfw+D5iNAGPAIPKGKPaXbcDU4AN+xByGnBnmcZN9MczGqPdUbInAg+UWYdovkU3cpGJtbfr7cDvgUwZOdy1cy6dUUZ/dRUBERCBuAmsH8CNVh6IfsDZ1+f0J4Eb4hZa4XiPAu+o8JgaTgREoDYIXA5c5XkqS4AZ+8nhZztN/g95nuO1O82dT+8jhzrgj8DbPM/x4zt/ULrF8xwkfw8CMrDinRLRrw0ryzSwlgPHxGRg3QucUkaKkYH1TuCJfcSITJnoS24tG1izgYVlGlgRvnuA04GwjHrsresBwOYYahDdiL1lP7+4Hwf8oUwD6w7gr2POX+FEQAREoBwCawewWir6bIx+ld6XgRV9Yb65HFEJ6Bv9vY9+wNIlAiIgAv0lEJkiV/e3U8LaFzOwFgAfSZjm/sqJanRFjRtYFwC39heM2iebgAyseOsjAytenpWIVmwFVlwGVmRcRavhog/EOK8v7Xz85RsxBJSBFQNEhRABEfCOgAysvZdMBpZ3U1mCRSAxBGRgJaYU+xUiA8uPOknlHgRkYMU7JWRgxcuzEtEqZWBFuTwJRI/7RXuLxHEdtXsFXPQoS7mXDKxyCaq/CIiAjwRkYMnA8nHeSrMIJJmADKwkV+d/tcnA8qNOUikDy+kckIHlFK+T4JU0sKIE/m3npvj/EEMmkfkcreY6KYZYUQgZWDGBVBgREAGvCMjAkoHl1YSVWBHwgIAMLA+KtPsxTz1C6EetpPJVBLQCK97pIAMrXp6ViFZpA+tl4E0xnIhx1s5N138BRCdfxnHJwIqDomKIgAj4RkAGlgws3+as9IpA0gnIwEp6hV7RpxVYftRJKvcgIAMr3ikhAytenpWIVmkDK8rpN7v3w+obYILRPHsu5qNtZWANsBjqJgIi4DUBGVgysLyewBIvAgkkIAMrgUXZiyQZWH7USSplYDmdAzKwnOJ1ErwaBlaUSHQaX3Qq30Cu6DHELwyk4376yMCKGajCiYAIeEFABpYMLC8mqkSKgEcEZGD5USwZWH7USSplYDmdAzKwnOJ1ErxaBtaLOw2sY4D2fmb1HuB+YFA/+xVrLgOrGCG9LgIiUIsEZGDJwKrFea2cRKCaBGRgVZN+6WPLwCqdlVomiIAeIYy3GDKw4uVZiWjVMrCi3K4HPgWEJSbaAPweeFuJ7fvTTAZWf2iprQiIQK0QkIElA6tW5rLyEIGkEJCBlZRK7F+HDCw/6iSVexCQgRXvlJCBFS/PSkSrpoHVBRwJbCox0fOBHwJBie3700wGVn9oqa0IiECtEJCBJQOrVuay8hCBpBCQgZWUSsjAugC41Y9ySGWpBGRglUqqtHYysErjlKRW1TSwIg5PAtFjgZ1FoLxx575ZTwGDHcGTgeUIrMKKgAgkmoAMLBlYiZ6gEicCHhKQgeVH0bQCy486SeUeBGRgxTslZGDFy7MS0aptYEU5fhK4sUiy0a8H0QosV5cMLFdkFVcERCDJBGRgycBK8vyUNhHwkYAMLD+qJgPLjzpJpQwsp3NABpZTvE6CJ8HA2gYcvp8N3U8DfgXUOSHwSlAZWA7hKrQIiEBiCSTJwPoNsCwhpFYD30+IFskQARHwi8BADax7gD8lJNVVwLX70bIA+Eg/tUZ73v4HEN17JOF6CPivfQiJ7jn+OIB9d3uBnwLRv0m4fgb8IQlCpCE+AlqBFR/LKJIMrHh5ViJaEgysKM/bgL8D8nskPQJ4dOcHXvQIoctLBpZLuootAiKQVAJJMrCuAKJfxHWJgAiIgM8EBmpgvR/4pSeJD8TAir7jNwHPepDjQA2sVuDNwBYPcpRETwnIwIq3cDKw4uVZiWhJMbD6gOP38uv7F4FvVwCEDKwKQNYQIiACiSOQJAPrs8APEkdIgkRABESgfwQGamCdA9zev6Gq1loG1t7Ry8Cq2pRMz8AysOKtddoMrMm7fy0eyKNt0dx7BzC6jBJES3EfLmED9P0NEW2efgnw8j4azQYWApV4r7Ts/tXizxu6Hwv8Hqgvg1GpXWVglUpK7URABGqJgAysWqqmchEBEUgCARlYe6+CVmAlYXZKg/cEKnFT7j2kfiSQNAMrepb81H7o37NpDngn8EQZMfbVNQAeBE4sI3b0fPXbHC/FraSBFaH4R+Abu5ncsZP9mWXw6U9XGVj9oaW2IiACtUJABlatVFJ5iIAIJIWADCwZWHqEMCnvxhrUIQMr3qLGYWBlgegLdRzXeGBYGYFcG1jR5oHvLkNf9NhdZGCtKCNGsa6VNrCi1VdHANOAnxcTF+PrMrBihKlQIiAC3hCQgeVNqSRUBETAEwIysGRgycDy5M3qo0wZWPFWLQ4DK15F5UWTgQWVNrCiij298+STccDB5ZWvX71lYPULlxqLgAjUCIEkGVjX7fxR5tcJ4dq2+wSqhMiRDBEQAY8IyMDae7Gi79oXA+sSUstIx8p9aBnoJu7twIVA9BmShOsZYEMShEhDfARkYMXHMookA6t0ntEjhFqBVTov1y1lYLkmrPgiIAJJJJAkAytJfKLTb6N9KnWJgAiIQH8JyMDqL7HqtL8GuDxmA6s6mex71I8DtyRNlPSUR0AGVnn89uwtA6t0njKwSmdViZYysCpBWWOIgAgkjYAMrL1X5A/Au5JWLOkRARHwgoAMLC/KxNXAFTVuYF0A3OpHOaSyVAIysEolVVo7GVilcYpaycAqnVUlWsrAqgRljSECIpA0AjKwZGAlbU5Kjwj4TkAGlh8VlIHlR52kcg8CMrDinRIysErnKQOrdFaVaCkDqxKUNYYIiEDSCMjAkoGVtDkpPSLgOwEZWH5UUAaWH3WSShlYTueADKzS8crAKp1VJVrKwKoEZY0hAiKQNAIysGRgJW1OSo8I+E5ABpYfFZSB5UedpFIGltM5IAOrdLxpMrAs4Hq1Y7ljyMAqfe6qpQiIQO0QkIElA6t2ZrMyEYFkEJCBlYw6FFMhA6sYIb2eSAKub6oTmbRDUTKwSoebJgNrEXAiMKh0PP1q+Rywo8wTo2Rg9Qu5GouACNQIARlYMrBqZCorDRFIDAEZWIkpxX6FyMDyo05SuQcBGVjxTgkZWKXzTJOBdTPwsKNjXHuAicCvgRNKx/+aljKwyoCnriIgAt4SkIElA8vbySvhIpBQAjKwElqYPWTJwPKjTlIpA8vpHJCBVTretBlYn9xtYh1fOqKSWt4AXAr8VgZWSbzUSAREQAReTUAGlgwsvSNEQATiJSADK16erqLJwHJFVnGdEtAKrHjxysAqnWfaDKyLgOnAPUBD6Zj223Ij8GagHfidDKyYqCqMCIhAmgjIwJKBlab5rlxFoBIEZGBVgnL5Y8jAKp+hIlSBgAyseKHLwCqdZxoNrIjOt4Evlo5pny2jTdvfB9yxu4UMrBigKoQIiEDqCMjAkoGVukmvhEXAMQEZWI4BxxReBlZMIBWmsgRkYMXLWwZW6TzTamBF+1U9A4woHdVeW/4emAFEe2BFlwysMoGquwiIQCoJuDCwPgpcmSCaoweg5Q/AuwbQT11EQAREIA0G1vyd3+c/kJBS1wPDB6ClmIH1ADB1AHFddBm8cxHAkAEEvgC4dQD91CXBBGRgxVscGVil80yrgRUR+mvgF0Bd6bj+ouV2YDLQ9qr/KwNrgDDVTQREINUEXBhYSQIafdZmgUw/RcnA6icwNRcBEfj/BNJgYCWp3HOAhQMQtD8DawDhnHb53E6T7rsDGEEG1gCgJb2LDKx4KyQDq3SeaTawIkqLdq+gKp3Y/7b85s4bki/v0VEG1kBIqo8IiEDaCdS6gRX9Mh+t1JWBlfaZrvxFoHIEZGBVjnU00hm7TyPv76g+GVifB77T3wQBGVgDgJb0LjKw4q2QDKzSeabdwDp2p4H1mwEsh12xcyP46CTDTk8NrGjfrmj/LhdX9PfMVWwXehVTBESg+gRkYO29BlqBVf25KQUi4CsBGViVrZwMrH3zloFV2blYkdFkYMWLOQ4DK9of6QQgLFNaVNtfAjPLiJMD3gk8UUaMfXVNu4EVcfkS8K9Aqe/DPDBtZ01/uxeoPqzAKrxqzy4HU2pXyFOBh10FV1wREIGaIyADSwZWzU1qJSQCVSYgA6uyBZCBJQOrsjOuyqOVeuNcZZneDB+HgbV858lyxwDRzX45V1Tbe3fezJ9SRhAZWDB793Pl5bxXbgYu2ksdxgDPA9G/pVx3Au8HorrseflgYJWSY7lt/koGVrkI1V8EUkVABpYMrFRNeCUrAhUgIAOrApBfNYQMLBlYlZ1xVR6tnJvyKktP5PAysEovi1ZgvcIqWjF0BzCoCLoNOzd+f+seG7e/uosMrFdoyMAq/T2oliIgArBm5wlFjf0EEf2IEJ2GVO4PTf0cdkDNo72vegdwaIgeIRwQbnUSAREABmpgRT/SRk+P6OofgdOB6Efu/l7aA6u/xNQ+EQRkYMVbBhlYpfOUgfW/rP4TOLcIumjzwu/tp40MLBlYpb/71FIE/CIQPVr/OkeSRwPR51F/rmIG1vkDPC2pPxpKbRt9zyt1le+rY8rAKpWw2omACOxJYKAGVrS/a19CcEbbdUSnhu/rmr/7qYgkyG3YeY8wYgBC9mdgRSel37/TUGwaQFwXXaIfjYYOILD2wBoAtKR3kYEVb4VkYJXOUwbW/7I6YueHYPToaPTHeW9XdCMxA+jeD14ZWK/A0Qqs0t+DaikCvhBYD0Sfr0m5ihlYH9+pN3p03OdLBpbP1ZN2EagugYEaWNVV/ZejLylyWvgC4CNJEjwALcUMrD/uPN3wbQOIm6QuMrCSVI2YtMjAignk7jAysErnKQPrL1ldDFy3l5UA0fHnkSnzZBG0MrBkYJX+7lNLEfCLgAysytdLBlblmWtEEagVAjKw/KikDCw/6iSVexCQgRXvlJCBVTpPGVh/ySpaFvsccOgeCP9950bvf1cCVhlYMrBKmCZqIgJeEpCBVfmyycCqPHONKAK1QkAGlh+VlIHlR52kUgaW0zkgA6t0vDKwXssqWqb78Ks2dI8Mrej/dZWAVQaWDKwSpomaiICXBGRgVb5sMrAqz1wjikCtEJCB5UclZWD5USeplIHldA7IwCodrwysvbO6Frhs90sfA35UIlIZWDKwSpwqaiYC3hGQgVX5ksnAqjxzjSgCtUJABpYflZSB5UedpFIGltM5IAOrdLwysPbO6kBgHRBtnDgdCEtEKgNLBlaJU0XNRMA7AjKwKl8yGViVZ64RRaBWCMjA8qOSMrD8qJNUysByOgdkYJWOVwbWvlnN3HmyyYu7/yuVqAwsGVilzhW1EwHfCMjAqnzFZGBVnrlGFIFaISADy49KysDyo05SKQPL6RyQgVU6XhlYpbMqpaUMLBlYpcwTtREBHwnIwKp81WRgVZ65RhSBWiEgA8uPSsrA8qNOUikDy+kckIFVOl4ZWKWzKqWlDCwZWKXME7URAR8JyMCqfNVkYFWeuUYUgVohIAPLj0rKwPKjTlIpA8vpHJCBVTpeGVilsyqlpQwsGVilzBO1EQEfCcjAqnzVZGBVnrlGFIFaISADy49KysDyo05SKQPL6RyQgVU6XhlYpbMqpaUMLBlYpcwTtREBHwnIwKp81WRgVZ65RhSBWiEgA8uPSsrA8qNOUikDy+kckIFVOl4ZWKWzKqWlDCwZWKXME7URAR8JyMCqfNVkYFWeuUYUgVohIAPLj0rKwPKjTlIpA8vpHDgUeBwYWsYozwInAIUyYkRdDfArYFoZcXLADOCpMmLsq2tkYN0HHF9G7D7gRGBlGTGKdT0F+K9ijYq8/hPgsjJjFOu+GHh7sUb7eT3c3f/5fbR5207W0RiZMsaoRNeoXtGNly4REIHaIbACODhB6USfz5GefX1Onw98P0F6ByLlCSA6EVeXCIiACPSXwCeBbwG2vx0T1P43wFn70TMf+ECC9A5Eyk3AP+yjYx2wCGgaSOAE9bkc+GmC9EhKDAQik0OXCIiACIiACIiACIiACIiACIiACIiACIiACCSWgAysxJZGwkRABERABERABERABERABERABERABERABCICMrA0D0RABERABERABERABERABERABERABERABBJNQAZWossjcSIgAiIgAiIgAiIgAiIgAiIgAiIgAiIgAjKwNAdEQAREQAREQAREQAREQAREQAREQAREQAQSTUAGVqLLI3EiIAIiIAIiIAIiIAIiIAIiIAIiIAIiIAIysDQHREAEREAEREAEREAEREAEREAEREAEREAEEk1ABlaiyyNxIiACIiACIiACIiACIiACIiACIiACIiACMrA0B0RABERABERABERABERABERABERABERABBJNQAZWossjcSIgAiIgAiIgAiIgAiIgAiIgAiIgAiIgAjKwNAdEQAREQAREQAREQAREQAREQAREQAREQAQSTUAGVqLLI3EiIAIiIAIiIAIiIAIiIAIiIAIiIAIiIAIysDQHREAEREAEREAEREAEREAEREAEREAEREAEEk1ABlaiyyNxIiACIiACIiACIiACIiACIiACIiACIiACMrA0B0RABERABERABERABERABERABERABERABBJNQAZWossjcSIgAiIgAiIgAiIgAiIgAiIgAiIgAiIgAjKwNAdEQAREQAREQAREQAREQAREQAREQAREQAQSTUAGVqLLI3EiIAIiIAIiIAIiIAIiIAIiIAIiIAIiIAIysDQHREAEREAEREAEREAEREAEREAEREAEREAEEk1ABlaiyyNxIiACIiACIiACIiACIiACIiACIiACIiACMrA0B0RABERABERABERABERABERABERABERABBJNQAZWossjcSIgAiIgAiIgAiIgAiIgAiIgAiIgAiIgAjKwNAdEQAREQAREQAREQAREQAREQAREQAREQAQSTUAGVqLLI3EiIAIiIAIiIAIiIAIiIAIiIAIiIAIiIAKpMLBa3sHYbA9nG8ir5CIgAiIQJ4FCnkdf/yxPxxlTsZJJYO0S3hqETEymOqkSARHwloCld+LJPOitfgkvncDn7hxHZ93JDMmU3kctRUAERKAYgUIBtnc/yE/fv6lYU99fT4WB9eKbacw08Ji1tPleMOkXARFIEAFDHZbPTWrm9gSpkhRHBNYv4nIMFxmwjoZQWBEQgRQSMJYXD53JX6cw9fSl/Ln73sT23LMMqU9f7spYBETAIQELHX3T+fFZSx0OkojQqTCwWt7E2LCBlSG0JoK6RIiACNQKgeFBhrMOe5LHaiUh5bFvAmsf4COZgCvESAREQATiJGAMfzh0OpfFGVOxEkrgM/ceQk+4kUF1CRUoWSIgAl4SKIQQcDzXzHrES/39EJ0KA+vptzB8eB0vgFZg9WNuqKkIiEBxAiNtwLsmP8Wa4k3VwncC6xcz28C/+J6H9IuACCSLQBDwy/HT+NdkqZIaJwS+dlsDL4/oIJNpcBJfQUVABNJJoCcHgwe/nmtm/KnWAaTCwLJzCdb9kpVWj33U+nxWfiJQUQIGhtbXc8z4x3m5ogNrsKoQWLeIEzMBV1pLKj47qwJZg4pAOgncNGEGN6Qz9RRmfdHCFxlSPzmFmStlERABVwS6slBf/zpuOHWLqyGSEjc1X8JXT+EhYzg4KeClQwREwH8CBswf38ibz/0FBf+zUQbFCGxcynFhyPxi7fS6CIiACPSHQMFyZeNMftqfPmrrMYGPL/wDw+qP9zgDSRcBEUgagd48DGIU18xpT5q0uPWkx8Bq4ucGjokboOKJgAikmsD2Sc28M9UEUpR8dAphJuSnGMIUpa1URUAEHBMI4EvjZ3C/42EUPikELrn7burrZidFjnSIgAjUAIG+fAeHzD6Auabmv6Omx8CayrdMyPt141EDb1ClIAJJIWD506TlzEmKHOlwS6BlKRMId91k9rgdSdFFQATSRMAYLj90Or9LU86pzvWye64myHxaD6OnehYoeRGIl0B73xP86Ixj4w2azGjpMbCa+FvDrg0yc8kshVSJgAj4RsAaHp68jI/5plt6B0Zg7V2MDobwqNGBIAMDqF4iIAKvJWAxQcBF46fzuPCkhMAn7/o8DQ3fkYGVknorTRGoBIH2vjv50RlnVmKoao+RGgPrT0fz9kzIbUC22tA1vgiIgP8Eov2vgJ81NvN1/7NRBqUQWL2UwXUhjxnoK6W92oiACIhAMQIWMoWQv510Ms8Wa6vXa4TAxXf/HQ112vOsRsqpNESg6gQskM9fz/VzLq26lgoISI2Bte4YxocFfhOVtwJcNYQIiECNE9hlYFm+07icm2o8VaW3m4C1BBuX8Ih9xbzUJQIiIAJxEBgWFph+2ClsjCOYYnhA4JJ7T6PO3IXRR4kH1ZJEEUg+gUL0Uwif5OpTb0y+2PIVpuYv58ZjGdqX4ykDkUepSwREQATKIhAZWKHlC5OXc0dZgdTZKwIbFnO/hbFeiZZYERCBxBKwMDIbctwRJ9OWWJESFi+Bj97xV4wc/BDGZOINrGgiIAKpJJAPod68l6tO/Z805J8aA+uxY6k/MMfjNjpgUpcIiIAIxEHAcPGkZSyNI5Ri+EFg42Lmhew6eVI/hvhRMqkUgaQTaOjp47gj5+jR5KQXKjZ9F9w5lWENj2BMQ2wxFUgERCC9BEILQdDI1SevSwOE1BhYS0+ibnIrkSupX87TMLOVowi4J2Azho9MXMYj7ofSCEkhsGEx/2ANf4Ol5o8pTgpz6RCBGidQOHQ6x5vooXRd6SDwqfvehOVJMmZwOhJWliIgAk4JhLZA2HYA887tdDpOQoKnxsCyHyCzdiWLMIxPCHvJEAER8JtAaPKc07iCZ/xOQ+r7Q2DDIv7GGr6k/RT7Q01tRUAE9kNg84QZnCZCKSJw+QOH0ZtfweDMsBRlrVRFQARcEciFbRTWHsiNn8y5GiJJcdNjYEGwbgr3WMOkJBVAWkRABLwlYI1lTuNyXvQ2AwnvN4H1i3kHcItOIuw3OnUQARF4LQFjLb+ZOJMrBCdFBC775Vh6Gl5keMPIFGWtVEVABFwRKIQtPDNoMg9OS8VhdWkysMy6Jn5l4U2u5o7iioAIpIeAsWRsAydOepxN6clamW5ZysHZkPuBVPzKpYqLgAg4JGAIwpCfHjaT7zkcRaGTRuD8pYMZ1LORQXWjkyZNekRABDwkUAhfYEv7m/jFuQUP1fdbcmoMLMCsbWKBheP7TUkdREAERGAPAtbSEDZw9BGP6+SoNE2O9bcxxIzhYYz2wEpT3ZWrCDgiUB8Y5o6fzi8dxVfYJBL4wG0Zxo3YSH3moCTKkyYREAGFSCX1AAAgAElEQVTPCPTln+SQ2ccx16Rif9Y0GVisncr11jLdsykpuSIgAskkUMh1c8yRL+jkqGSWx52qlsX8Aah3N4Iii4AIpIFAdDK2CThvwjSeSkO+yvFVBC5Y+AjD698uJiIgAiJQNoHu3EPcNGcaxqTiMJB0GVhT+KY1nF32JFEAERABEYCuxmaOM2glTtomQ8sSFmHRox9pK7zyFYH4CdRl6pl5yHvYGn9oRUw0gY/e9RNGNZyXaI0SJwIi4AeBvsLdzJ99OqTjNNtUGVhrpvIpQq7Qox9+vBelUgSSTMBY1jQu59Qka5Q2NwTWL+aXBhrdRFdUERCBFBEwO7bxzqPOJZuinJVqROCye76CCf6Znc+Q6hIBERCBsgjkCr/g+tnnlhXDo86p+qu5ZgpzMFwH+qLg0RyVVBFIHAED0RrdRZOauTRx4iTIOYGWJfwcy5HOB9IAIiACtU3Akp0wk3fVdpLKbq8EPnP/+WTDW6kLBEgEREAEyiPQmf0Bt5z+2fKC+NM7XQbWUZxgAv7TQrc/JZJSERCBBBKoMwHfanyKmxKoTZIcE2hZwo+xvNXxMAovAiJQ+wS2TZjBKbWfpjJ8DYHL759BtrCIhozgiIAIiEB5BNp6Ps+Cs1Jzmm2qDKwXm3hjYFmKoaO8WaLeIiACKSfQEAR89rCn+FXKOaQy/Q1LuMpa3p3K5JW0CIhAbAQsrJk4g/fHFlCB/CHw6bsnEAbryWgFlj9Fk1IRSCCBQggZPsjVs25LoDonklJlYP3pWEZlcjQDvU5oKqgIiEA6CFgGhwEfOHwZj6QjYWX5agLrl/B1Y4k2y9QlAiIgAuUQeG7CDP62nADq6ymBuXMDXn5nD0HQ4GkGki0CIpAEAtkCNGRmcvUpi5MgpxIaUmVgRUDXTGElhtTlXYnJVCtjDGogO2yYVun5Ws9cgUxHOwc41l+fy3D8kU/q5CjHnBMZvmUJX8Zq1UQii5MQUaHFHvQ6htdn9H0jISXpnwwDmzbRjXV7ymxgWD5+Ouf3T5xa1wyBS+9poy4zsmbyUSLxExgzoptxB2jrm/jJViZie1cDm1vdvsd78zCsvokrT15emaSqP0rqjJw1TTwBDKs+eilIKoGGBrIjhtGeVH3StX8C+Tz1bR2McszJ/qiZt8zF7c2N4xwUfoAEWhbxCeBiTDqOKx4gplR3iwysQ8Yzoi6Dng/ydCZsWE9HBd7jD02Ywd97ikiyyyVwyT1rqM/oRNtyOdZy/3GjujjogK5aTrGmc2ttH8Lm7SOc5pgLLeTHcv3p252Ok6DgaTSw7gaOSFANJCVhBGRgJawg/ZTTl2VwZxfD+9mtX80NZBubmdKvTmpcMwTWL2IW8G/GkKuZpJRIrARkYMWKs+LBrMW2tNAROP6WbOHOiTOYW/EENWAyCFx6zxPUZY5JhhipSCQBGViJLEvJorbuGMbWNrcLZ/KFLq6bNQITHZCejsvxR3PyIK5uYp6BGclTJkVJISADKymV6L+OwGA7uxnW08vQ/vcuvYeBrY3N2sS7dGK11XL9vbzD1LMAnWhbW4WNMRsZWDHCrEKofIFwU2RgOX4E1AbcNnEa365CihoyCQQuvmcpDZmTkiBFGhJKQAZWQgtTgqzIZWnZOoK27iEltB54k578Rm6ac+jAA/jXM3UG1tomvmHR3iX+TdXKKZaBVTnWcY8UGVjtHYzsyzEo7th/Ec/w3KRlnOF0DAVPLIENS3ijtdwJ2isvsUWqsjAZWFUuQJnD5/IUNm+iy+kKLIsxhmsOncGtZcpVd18JXLTwTobU60AQX+tXCd0ysCpB2c0YxsCazaPo6nV7T9KTe4SbTjveTRLJjJo6A2t9E18owIXJLIdUJYGADKwkVGGAGgx2+w7GhCGZAUYoqZsxLGtcxrklNVajmiOw/l7GmHp+pxVYNVfa2BKSgRUbyqoE6uuj8PJWXO87U4/hsxOmk5qTo6pSzCQP+sm7FzCo7iNJlihtVSYgA6vKBShj+MjAenHTAfT0uT1ptBDeznWzzilDqXddU2dgrTmavyPkn7yrlARXjIAMrIqhjn2gaAXWtu0cGG1n6Pj646Rm9KXTMeSkhreWYMMSHgNt4p7UGlVblwysalegvPG7u8ltb6WnvChFew8NAj48ftquvyW60kjgknu/R32gTfzTWPtSc5aBVSqp5LXLZEJWrDmQQuj0R3XyhfnMm31x8gC4U5Q6A2t1E7MMXOUOqSL7TkAGlscVjAysVg50nUEB7jmimc+4Hkfxk0ugZTEPg+NHVZObvpQVISADy+8p0tlJtm0HvY6zGGFzzJk4ixccj6PwSSVw4cK5DK3/WlLlSVcCCMjASkARBighCCxPrz4IcOu39OX+hfmnfXWAKr3s5hZoApGsbWKGhXkJlCZJCSEgAyshhRiADAumNTKwDOEAupfexfDTScv459I7qGWtEWhZxJ0YxtdaXsonHgIysOLhWK0oHR1k29ucG1hD+kLedcTJtFUrT41bZQIf/tVljB56bZVVaPgkE5CBleTq7F9b9AjhM2uiH9Xd+i3Z3MXccNp8f0H1X7lboP3X47zH6iaON4Yf68EP56i9HUAGlrelI9r7avt2xhK4NbCM5YeNy/k3f0lJebkENi7lyjDkPeXGUf/aJCADy++67mijt6uDrOssDp3OccboG6lrzomNf+k9Z2OC28mk7nYssSVJnDAZWIkrScmCCoWAZ9eNIwhK7jKghr3593HjnF8NqK+nnVL3F7NlKm8owL3WkvO0ZpLtmIAMLMeAHYYvFKjbvoPRJnB3Q2DA2JBvT3qaHzpMRaETTmDDYj5v4UPaByvhhaqSPBlYVQIf07CtrfT0dLv9nmgM3YdO58SYJCuMjwSuuO94egp/YHCdj+qluRIEZGBVgrKbMbp763lx02inBpbF0pmdza2n3+cmiWRGTZ2BteZYDiHLExjak1kSqao2ARlY1a7AwMfP5mjo7GSUdbu5doMJ+ETjUzwwcKXq6TuBlsVEG2Z+QgaW75V0o18GlhuuFYlq4OWX6e7rIe94vDUTZvB+x2MofJIJfPrut9Brn2FIfZJVSls1CcjAqib98sZu7xzM+pdHEj1K6OyyIR09J3LrX0f7sqbmckk0kRBXHcu4QVme3nl0sfYcSGSFqi9KBlb1azBQBX19DO7sZvhA+5fUzzAiU2DWxKdpLqm9GtUkgZZFnIPhyzKwarK8ZSclA6tshNUMYLZsoTOXpeBShIUlE2fwBZdjKHbCCVyx6HX0ZjczSCuwEl6p6smTgVU99uWOvLV9KFu3u70nyYcFDFO5btYz5cr1qX/qDKz172JI2MUqi/PjkX2aB9L6KgIysPydDj09DO3uZajjDEaZQZzQ+CgvOh5H4RNMYO0DvDsT6ETbBJeoqtJkYFUVf3mDG8zmjbQXCu4eRd+1qa/hpxOm8/3yxKq31wRuuy3D0hHt1Gdcf2/xGlOqxcvA8rf8G7YOp63b7Xu7O5dnaOEIrj5znb+g+q88dQZWhGhNE8uAwf3HpR5pICADy98qd/cwtMe9gTU8U2DKxGdo9ZeUlJdLYOMSjg0t0akvqfwcLZdfrfeXgeVxhQ1sWE+H49WVpmCZ3zhz198QXWkmcOHCPzG0/vA0I1Du+yEgA8vf6bFm0yi6s4OcJtCRzTNy8ASumvmS03ESFjyVX7zXNPEgcEjCaiE5CSEgAyshhRiAjO5uhvX0MWQAXUvuYiA8rJm3Rv+W3EkNa47A+kU0AT80BsfHy9QculQkJAPL3zJbi924YZeB5fIyxvD1Q6dzh8tBFNsDAhfc9SjDG47zQKkkVoOADKxqUI9nzNUbR9OTc7vBXW8hx8hgNN89tSse0X5ESaeBNYXbdj0vqksE9kJABpa/06Kjk5HRRu4uM7CWtsnLeYfLMRQ7+QTWLuLwOvhPKwMr+cWqgkIZWFWAHtOQ+QJ200Y6AtffkC2fmjCT38ckW2F8JXDJvf9FfaDN/H2tn2vdMrBcE3YX//kNY8jl3W5w15d/iflzokU51l0iyYvs+uM5eRkDa6fyfwj5uDVaQZHIAlVZlAysKhdggMMHBrujjdG5Ak4/LIxhbeMyThmgTHWrEQKb7+OgXB2LDORqJCWlESMBGVgxwqxwqL4+CtEm7kG0S5WjyxjCPFzcOJ3HHQ2hsL4QuOy+bxDwJbcnlfkCQzpfQ0AGlp+TwlrDcy1jKIQZpwm09z3Oj85I3QpOZx/OTotVZvB1UzgrNPwAyJYZSt1rkIAMLE+LGmDbdjAmX8DZh4UBYw33T1rGpzylJNkxEVh7F6ODofyPsfociQlpTYWRgeVvObu6yO7YTq/LDKwlxHLBxJNZ7nIcxfaAwCULv0Cm7t9wvuTPAxaS+FoCMrD8nBWhNTy/fiwF63abiba+O1lwxpl+Qhq46lQaWH+ayrszlp8CfQNHp561SkAGlp+VzQSEW1s50FqHv5pbAmuYP6mZ7/pJSarjIrDxToaGw/gd0Y2oLhHYg4AMLH+nRHsbfR0dzr8f2lzAOZOnscZfUlIeC4FL7jmPuuAnWoEVC83aCyIDy8+a7jKwWsZSCN0ZWNZCGH6H62Z/0U9IA1edSgNr9dFMCkKWWD36MfCZU8M9ZWB5WtwAu20bB7pUb+yuDbu/07icG12Oo9jJJxAZpRuWshTLiOSrlcJKE5CBVWniMY1noPVlenp6nD8aXJ/pY8Yhc9gak3KF8ZXAJfeeSF3wEA4fWfUVjXQDMrD8nAZhaFjVMo7oUUJXVz6EevthrpodLcpJ1eUOaoIx2pOoW9vKMwmWKGlVJCADq4rwyxnaYFtbOcg63MgwMrAMfP6w5To5qpxS1UrflsX8AtDx57VS0BjzkIEVI8wKh9qyha5cloLjYRtyASdOnsYOx+MofNIJXHDnVIY1PIIxTg+gSToG6dsHARlYfk6NXCGzawWWyysXQl1wKteccr/LYZIYO5UGVlSINU08CQxNYlGkqboEZGBVl/9ARw/BtG5nnHFoYEXaCgHnHfEUjw5Up/rVDoH1S7jWWN5VOxkpk7gIyMCKi2Tl42zZTGcu7/zRYJMLOGHyNLd7bVWenkbsN4Hz73wTIxoexxjdk/QbXgo6yMDys8i92Tpe3DTGqfhCCJncG7j6jOedjpPA4Gk2sKKji91OrAQWXJKKE5CBVZxRElvk89Tv6OAApwaWpWACPtC4TCs4kzgHKq1p41L+T6HAB6MTxSo9tsZLNgEZWMmuz77U2RA2b6EjzDs/krzt0OnMMMb5OH4WIk2qP3H3EQzKPIkxehw9TXUvNVcZWKWSSla77t56Vm8e7XRvu9Bmefr3w3hwbj5ZybtXk2YDaxEw0T1ijeAbARlYvlXsFb09fQzp7maYS/XGkMvD2Ucs4zmX4yi2HwTWLeFMY/lXoxNt/ShYBVXKwKog7BiHsha7aROdNjoj0OVleW7CTP7W5RCK7QmBSxceTCF4mkEZt48beYJDMvcgIAPLzynR2jGYTdtGOjWwcoWXuX62071/kwo/tQbW2ibusPCmpBZGuqpHQAZW9dgPdOTAYDu7GB6ZWAONUUq/yKgoZDj98CdZW0p7taltAi1LmGot/27QY0C1Xen+ZycDq//MktAjDLEvbaYz+telHmv57cSZXOFyDMX2hMCn7x5JV7iK4Q0He6JYMitJQAZWJWnHM5Yxlg1bR7Kjy+k9CblwHdfPaoxHtF9RUmtgrWvi30M41q9ySW0lCMjAqgTleMeIDKzo8cFcjvp4I78mWqFuMCdOeIRtjsdReA8IvLiQxvrBLDTQ54FcSawgARlYFYQd41CRcbV5s+MVWIaAAj+ecDJXxihdoXwl8NmHh9C5/XmG1B/qawrS7ZCADCyHcB2FDoxl9aYD6Oob5GiEV8Lmw2eZN+stTsdIaPDUGlhrpvJDLO9OaF0kq4oEZGBVEX4ZQ+9oZ0yhQFBGiKJdjSXfUeD4o1bQWbSxGtQ8gfW3McSM4WG0B1bN17q/CcrA6i+xZLTPFbBbN9NhXa6/MjRYwxcmTuPeZGQtFVUl8IHbMowd+SwNwZFV1aHBk0lABlYy67I/VUFgWbluLPlCnVPxvfnfcuOcE52OkdDgqTWw1jbxbxbOSmhdJKuKBGRgVRF+GUNv38G40OVNxyvaeu0Yjp/8oB4ZK6NUNdW1ZTEPA25/ZaspYulIRgaWn3WOTh+MTiF0qd7CYBvwwcOm8bTLcRTbIwLn//p+Rg4+2SPFklopAjKwKkU63nFWrI32pnLrs3Rn7+bm00+LV7gf0dyCTTCD1U18ycD5CZYoaVUiIAOrSuDLHHbbDsa53bVk1yfR5lubmTYXnTpXZrlqpnvLEh7A6kTbmiloTInIwIoJZIXD9PZR2LaVLsfDNpg8cw49lfWOx1F4Xwh89M5bGDXoY77Ilc4KEpCBVUHYMQ0VWsOKNQcSOH0oBPoKv2T+7PfHpNqrMGk2sC4J4LMW17e8Xs0HiQVkYPk3DazFtO7A+Qk+Bpobm/mAf4Sk2BWBlsXcAUxwFV9x/SQgA8vPuvX0km/dSrfL382jL97bt/Guo84l6yclqY6dwEULv83g+i+6nHexa1bAyhCQgVUZznGOUigErFg7jkwmzqivjZUr3Mz1sy9yO0gyo6fWwFo7lXOt5ZvRFmjJLI1UVYuADKxqkR/4uAUIduxgTAXs6EWTmrls4ErVs9YItCzmx8Bbay0v5VMeARlY5fGrVu+OTrLtO5w/It4zYYb2YK1WjRM57qfv/QgFFlDneMVGIpOXqP0SkIHl3wTJ5jKsWj/WuYHV1vt/WXDm1/wDVL7i1BpYq5s4PoDbLc6XipdfJUWoKAEZWBXFHctg1hJs38Fo6/B5c2MJCPhh4zK+FYtoBakJAi1LuAHL22siGSURGwEZWLGhrFwgA9tfpqe7h5zjQbdNmMEpjsdQeJ8IfOb+v6K38FsaHK/Y8ImJtL5CQAaWfzOhs7eedS+Ndi58R89n+PFZVzkfJ4EDpNbAWtPEZOyu06PaE1iXYpKssbSHQQXWmxRTUoOvD6onO3KEl/PCi2rYkBFArN/SwlcMrDGOAQwK4fLDm/m143EU3iMCG5fwvdBykkeSa0GqNYaeaiRiLQ1A0ZOF+mNgRWdPGKsf05zV0zC4pM8cg9n6Ep3ZLAVnWl7Z1XftoTM42+UYiu0Zgb9f+AZ6Mquo93AFlrUhBbvdM+L+yD3wgB5eN7rXH8EeKTXWYMzw2Ddbb+saxIaXRzklER2Vm7Mf4YZZP3E6TkKDp9bAeqGJg+rhSYvb02ac1N3Sm7OcXdfJBifx0x50EkwaInPQ1TTo7OGHWCbHGT9foK6tnQPijLlnLGMZUqjjjMOfZJnLcRTbLwLrF/FPxuhE20pWLQx53mynKhse27F8LmCX+bDfM0/7Y2BhyTOMt1WSYarG6uK7GE4tVrPoJmbTRjrC0PEhHZanJ8zko6mqgZLdP4Hv3DeMtXQQGP/uy3KFrRTyk1RihwTedLT7M7Ydyk9s6Pqu0WTMQwSMjFXj9o7BbGqNN+aeArN5qK87iWtOeShW7Z4E8+8PZUxgb3sLDcfX84y1jr+oxKT31WEMFEzIGYc9zZ8chFdIEXBKoOMkfoUlOl42tiubp6GjI+YPoNeqGxxmeM/hT7I2NuEK5D2B9Yu43BjdjFaykCG8cNgMPljJMf88VssivozhnGJmSL8MLMibN/LmauSThjHtKm7CMg1T/IepDS10FKttDMz+OGEGl8YQRyFqicDF92yjIeN6JXn8xMIwz9j2YXz9XB1KED9dRXRJ4NbVB9PX9zCYYbEO8/KOoWxpi1Z2ubt68jAo82auPXWlu0GSGzm1BlZUkjVNPArOb3pjr74BE1jeP3E5y2MProAi4JhA53tZbNn1SEdsVzZHQ0en2/dytAfWhuE0nfD76jy6FBssBYqVwIbF/O3OvRS/UIGb3lh1+xxMBpbP1au89vBZlpqg+Emh1mJbWugI3H8zXjphBp+vPAmNmGgCl9yzivrMGxKtcW/iQgtD8ofwndM2e6ddgtNN4AdPH8ag+ocwDI0VxEvbh7GtPV5TbE+BfQUYYsbzg1mbYtXuSTD3H9MJBrF6Cr80xr/To3ZvJv2xxmX8NsF4JU0EXkPg+dkMOribpXHe7AcG29XN0O5e3H5YQO+kZqaqrCLwagIbF3NKCN/RibaVmxcysCrHuhZGCp/lGRPs2rtsv1e+gN20kfbARNtUObwMt0+YzjccjqDQPhK47N7HyATHeic9F0Y/SR7PlbMe8U67BKebwFUrjqQheBBjiu5r2S9QG7cNZ0dnvKbYngLyYY782mHc+EnXh470K/VKNXb7IV2pLAY4ztqp3GCjZeWeXQYyIXxlcjM/90y65KacQPsZjAvaWWghHxeKIMC2tzOyL8eguGLuNY5l46Tl/v29cMpEwdm4lOPCkB+DVuZVajrIwKoUaf/HsY9Rb4fzgjEUfbwpmyPcvInOjON9tI3llkNncp3/dJVBrAQuuecB6jMzY41ZiWD5EOr5KFfNij4HdYmAPwTmr3gbYebeUh4v71dS67aMpLMn1idNXjN+d241N592eL901VDjVBtYq6fw9cDsevzDq83xohVY1nDjpOZdv/rrEgFvCLTOZEpDnlutpS8u0ZGBtWMHo3OF4ieDlTOmgZWNzdqsuxyGtdh3zUNMritwP1Ynl1aqvjKwKkXa/3HsM4yhjueAoqek9fRSaH3Z8WmQloCAb06Yzm3+01UGsRK46O7/YEjd38QasxLBojuoQv57zJujx2IrwVtjxEfgpmemU6j7T4hxP+wggOdbRtOXq49P6F4i9eYf4sY5qT0BO90GVhOXBPBZ3wwsC8ZYfjNpOR93+uZQcBGImUDbNE7LhHwtOvw1rtCRgfVyK2NtdGPg9npsUjN/53YIRfeNwJ8eYNSggD8A3b5p91WvDCxfK1d53XYFjWR27XfaVmz0rm5yO1rdrqS0UB9Y/v7QmSwqpkevp4zAxQuvo6Hez83923p+xoKzzktZxZSu7wSuXfFhMsH3MSaMLZW6TMiKtQeSL2Rii7m3QKH9Fdee+j6nYyQ4eKoNrDVTeZ+xfNs3A2vXfLI8P2k5pyd4bkmaCLyGQOd0Pm9DzsbGt+ox2gPr5VYOqsD7ePGkZp0cpWn9lwSevo2GUWN51MT4WKwY75+ADCzNkFIJ9DXzpoYGFmGKG1OdXWTbttNbauwBthtq6vjQoe/lyQH2V7daJXDp3d+mru6LXqbX0beUW8+Y7qV2iU4vgeuf+yomvBxiNLAyGcszqw8ktO5+VH9l1eO1zJvz6bQWL9UG1p+amJGBeT4W3xjaGpfxDh+1S3N6CXRO43s25J1xEohWJLa2ciAmxiXAexf4i0nNfCVO7YpVGwQ2LOa30TlMtZFN8rOQgZX8GiVFoX2BEyjwk1IeEWlvp6+jPb7H2/fKwDDSZJh+6HtZnxRG0pEQAhfe9TmGNnw3IWr6JyObb+HgRxqZOze+lSz9U6DWItB/Ajes/DmW6buea4rrig4BeWbNgbg8CyRSm81/gflz/Px7EQPrVBtYq5s43sACnM6yGKq0txCWus4Cbz5qRfGNSR0pUFgR6DeBzmn8zIZM6nfH/XQILcH2VsYRuDWwjOHWxmV8K07tilUbBDYu5rYQjqiNbJKfhQys5NcoKQrtKuYAV5WiZ/sOers7nX+nGtLTxzuPnKM980qpSaranP/rDzNysJ8boffmdjA+PJS5Z+hR+lRNWs+TvWZFdHBCU6xZFAoBK9ePwzi0WF5ZgXUe8+b8LFbtHgVzSDf5FNY1cVQIvwDne+fEDsNYRnQPYcqbH2Fb7MEVUAQcELBzCboe4h4bMjzO8IUCmR1tjK3ACqyrJjX7uWIzTt6K9VoC65dwlQk5MfaTbAR7rwRkYGlilErAriLaI+TfSmnf2kp3T3d8J+TuY8zMoQHHmWnOxyklZbVJEoFL7jmTTHAHgYe3Zp3ZdgYxietPL3pYQpKQS0vKCVy7spk687pYKfRm63hhwxiizdxdXdZCGJ7GdbPvdjVE0uN6+FcyPqTrjuKIMGChlyuw4IB8yHGvf1rL0OObEYrkksD6dzHkgMEsinudVF+WQV1djHS5B5Yxu0zuf2xcppOjXM4RX2NvXMKXQ8s5u3Yn1OWcgAws54hrZoD8Si7IGL5USkIvb6O7r8etsWSha+IM3lOKHrVJGYEr7nsP2fAh6t3u/eyEak++k+GFN3HlGRucxFdQEYibwPz59dj3vgQmtkOldkns6Glg3UsHuF2BZQu0976XBWf9Lm4svsRLt4F1DOPDAv8TLcTzpWB/1mlgWCHDaYc/yTLftEtvOgnYv2JEdx2Lwpg3u+7tY0hXN8NcUjVQh+WTjct1cpRLzr7G3rCYj1nD5di47VlfibjVLQPLLd9ail5YyVcDw0eK5mQwWzbTmcu5/T5oYeXEGTrNtmg90tjginveSFe4kqH1/mVfCHvJmWO48dSV/omX4lQSmL9qHIVwDUHQFWv+W7cPY2u703sSsFk6s+/gljNS6wGk2sBafTQHBCFPWIjXfY31nbDPYHUZuGxiM/dWZjiNIgLlEeg4gYNo4I64b/J7ehja3cvQ8tTtv7eBIfmQs494msdcjqPYfhJYt5hTohNtjfuDBPwEFLNqGVgxA63hcPZZvk/AGUVTDDCbNtAeFhyuorRE2/s+OGEGf19Ujxqkj8AlvxmN7Wiloc7D3G2W9u7j+dH7nvJQvCSnkcCVz06inuXUBfHu27b+pZF09A52irRgezEcw7XpNYxTbWDZt9CwLsOT1uDdp4UxmNDytcnN/IfTN4mCi0BMBHbM5PAgzwJj491zrquL4b1Z3H5YWA6wGY6f/BRrYsKhMDVEoOV+jibDD2sopUSnIgMr0eVJlDi7ihuBaUVFGczGDbTb0KGBBcYafj5xeml7chXVrAa1RcBaw6X3dlCfcb8XbS0AACAASURBVLx6wwE2S57O3Lu59bQ/OoiukCIQP4F5zx6LMUsxpifW4Ks3jaInOyjWmHsG68t3Maj+LVx98jqn4yQ4eKoNrKgua6bwewxjElyjfUozlu83Lme+j9qlOX0EOk7kLQTcAMS6wUNnFyOifbBcEjUwtGcEb3nT7+hwOY5i+0lg81KOyof8yNP9FL2DLgPLu5JVTXC4igcMxU++jTav29ji+GTAaC9Fy/cnzOAnVQOigZNN4KKFLQypPzTZIveizmIp5Gcxb8793mmX4HQSmLfyTAJuBZOPFUC0gXs273ZhTHRowpDs4Vx3dmoPcku9gbV2Cg9Yw2GxTt4KBTOGWxqX8e0KDadhRKAsAp0ncbSBa8KYV2B1dDIym6OhLHHFOlts43LebLRJdzFSqXx9/UMcSZ6f7torTZdzAjKwnCOumQHsKpqBIcUSyoeEmzbQ6fgAOEOGz004iaXF9Oj1lBK44K7fMLzh3d5lHznA2cKFzJ+tlcjeFS+lgq955jwa6r5PZL7GdUWrKJ9rGUMhjPWH+tfI6yu00mDHc82cvrik+xZHBtbR3GRDT0+EMSyctEx7Kfj2pkur3m3v4YQGw3fizr+9nVG5Ak53PTXQ3djMMXFrV7zaILDufsabDL80uJ2HtUGr/CxkYJXPMA0R7GoG08cKTPGN2bNZClu30Ol8FWWOCybM0uE7aZh/A8rxsvt+RGA+im93Z5EFkMt/hRvm/OuA8lYnEag0gWtXXEZd5p9iHTYMXzGwQuvWwOrNrebG0w6PVbtnwXz7Exk73nVHc5kN+az18CRC4H8mNXNR7FAUUAQcEOiYxvsJ+RwxrmIKAsLtOxibL8T7WOKe6VtYNbmZMx1gUcgaILBxKeNCy0KsVmBVopwysCpB2f8xOpfzumENuw7e6C2WTW8vua1b6XG5Ais65CGA8w+ZzjPF9Oj1lBK47N5/JTBfxnh2exYZWIXwe8yb9fmUVk5p+0bg+lVzMVwSq+xdBtb6sYTx7vX7Go2dfY9wyxnHx6rds2Ce/YWMn+6aqZyN5XvR4tf4o7uNaCyPNC7nw25HUXQRiIdA13QuDAtcELeB9XIrB9rodCdHl2HXgQn/PXk5/+BoCIX1nMCfHmBUQ4ZFcR9Q4DkWZ/JlYDlDW1OB7XMcTcjdGIoek76jjb6uDlw/jpGzAedNnMYLNQVaycRH4NKFVxDU/QCXTmp8av8yUsH+N9ederar8IorArESuH7ldRhzTqwxIwNrVcs4okcJXV5tPT9jwVnnuRwi6bHdAk569sALR3FCneE/MMV/oUtgOi9Maua0BOqSJBF4DYHO9+5a6fiBuA2srds4yCVuYwgs3DBp2S6jW5cIvIbA83czaOhgFltbfK8d4SufgAys8hmmIYJ9jtMJuQ5T5AdKA1tfojubJd7NfPeEbMjms5w9aRab0sBfOQ6AwKfvPQ3MXd6twIpS7c4/wc1zjh1A1uoiApUncN2zC8gEs2IduFAIWLVhLDg0sEILAV/h6lNT/bhu6g2sNW/mEOp52McVWMD2Sc28M9Y3n4KJgCMCHSdxJZZ3xBreYLe1cmCsMfcIZiATwj9PbmaBy3EU218C0QrADUu5C8vB/mbhj3IZWP7UqppK7SoutJYvmxL2wNryEl25XPG9ssrMp4Bl9oSZpPbkqDL51X73T947lQbzBMYE3iXbk1vDTadN9k63BKeTwLxVtxMQ74EJ2XyGFyIDy+FVCKE++Bg/OCU6+Tq1V+oNLAtmbRMrPZ0BvZOameqpdslOGYH2adxuwnhv8CPjYNsOxrk8HTB6LCzMcNHkp3gwZSVTuv0g0LKI/8KgL+/9YDbQpjKwBkouXf3ss3ydgA+VkvWmzXSGecJS2pbRpjBoEDMOfDcdZcRQ11omcME9b2RosJzAOD2YxgnCXKGL180ayVzj+n3kRL6CpozADSt/A+YNsWbdm63jxU1jYo25Z7BcAerMyVwza5HTcRIePPUGVlSftU08bT08PSram+ewet5qHieX8HkmeSJAx3u5DxgeJ4p8nvodHRzg0sCK9DbUc9b4x701uuNErlj7ILB+Cdcay7sEyD0BGVjuGdfCCHYVNwLTiuViQ9i0mQ4bxnic+l4GNdC1fRszjzrXvz1XizHU6zER+PCvJzNqUDOBifW7Ukzq9h8mm4dBDQdz1cyXKjKeBhGBcgjMWxkZxfFuQdLZ08Dalw5w+ghwtALLmsOYd+r6ctL3va8MLGBN065HCN0u+XMxUyyDMZw0qZnVLsIrpgjERWDpSdQdBw8S82brvX0M7uxmhGMDK8wUOGPiM9p4N675UItxNizh0tDyCePnibZelUQGllflqorYXQd7PMd/AEX35AlD7OZNdNjoJDWHl7VsmjCTMxx/XjnMQKGdE/jUHeOxg5rJBP7dk/TkYXh9E1eevNw5Jw0gAuUSmLfyT7Ebxa1tQ9i0Y4S7Y6WAMMzyUvtQfnFuoVwEPveXgRUZWFN37V1ypG+FNJYhoeHcyc38wTft0psuAu0n7XrM7wEs3XFlHhhsZxfDe/qcb5ydDTOcfviTrI1Lu+LUHoENizlj50reaFNNrYh1XF4ZWI4B10B4exsZpnIH8MZi6eQL2Jc20RnnASP7GPOFCTP4YDE9ej3FBC5bNJZCrpmGzHjvKPQVoD7zbq495XfeaZfgdBGYb+sJn9uAiXHVbeSobGodTmvHUKcwc2Eb1886wOkYHgSXgfXKI4S/sNDkQb32lDgoE3DpxKe420PtkpwiAm0n8fqM5XbLrpuEWK7IwNrRxuhcgbpYAu47SFceZr2+mS2Ox1F4jwmsvZ+/ygTchKHH4zS8kC4Dy4syVVWkfZoG6rgfw6HFhOTy2C2bK2BgGR6aMJ2/L6ZHr6eYwCceGEWhr5lhDYd5RyE6HS0MP8S82dHKR10ikFwC173wekz+UQKTjU1kEFhe3HgA3X2DYou5t0C5cA3Xz0r9fqsysKIVWFP4KYa3O51wDoJHm0tbw/xJzXzXQXiFFIHYCGw/iaPr4Na4V2C1bmdsweL6tJ4uGzB98lPsiA2IAtUcgY0PcFgh4G4DfTWXXMISkoGVsIIkUI5dzxDbxSJjKLrHSS5PuPUlOh0/QpgJ4NrxM7g5gbgkKSkEPn33IPpoZnBdvJtLVyq/tp7Ps+Cs71VqOI0jAgMiMG/ViWDvIDDxrZgPjGXlunHkw8yANJXaqRA+wXWzij4aX2o4X9vJwHrFwLoaw6leFtHyu0nLucBL7RKdGgJd05m9c4Pcr1kb7zHlrTsYu2uvE4eXNXQPy3HiQSviWz3mUK5CV4nA0rnUHfluHol1SXqVckn6sDKwkl6h6uuzTzOchl37Lo4qpiabpbB1C13F2pX1uqEhA/9wyHStmC+LY+13Nlx89yM0RNuGeni19f0LC874qofKJTlNBOav+mtCewsmRgMruhNZsXYcrn9UzxYe5IbZRQ8nqfVyOr3x8wXemql8Fct5vuj9C52GFZOW8T4vtUt0agh0ncSFoeVjcSe8fTvjXJ/XbAwvd+SYdtQKnRwVd/1qLV7LYqK9PwbXWl5Jy0cGVtIqkjw99nlGUuB3mOLvx2yW/NYt8e3PuFcaliE24GMTp/PH5NGSokQR+Nhdv2JEw1mJ0lSqmGz+em6Yc2mpzdVOBKpCYN7Kr2D4DMbEuxH6M2sOcnoCYQSrJ3cXN512RlW4JWhQGVjA6il81hguTlBdSpdi2di4nOk61aZ0ZGpZeQJtJ/GZwPKBOEeOVl5t38E4S4ybMO5FoIHnDmvmTL3H4qxebcZav5jFBlK/uabr6srAio+wXc+YXDuvr8/g+reA+ESXFmkEMB9TfIVuVxf5HdvdGlgWBg2u5+QD38Om0uSrVWoJfOSOH3LAED+frMjmb+eGOeektnZK3A8CVz+7gIZgVqxiC4Vg1wqsjNsnCOnL/5j5cz4aq3YPg8nAAl6cwicyhs+7vhF2Mj8MPbaNd05eQ6+T+AoqAjEQ6DqJfwwtc2II9f9DVMrAyhgembiMD8epXbFqk0DLYm4DjqjN7JKTlQys+GphV/A+Mlxbg6dnWiBfCqn2dvo62t3uXWcM9qb/4R1z59acUVgKYrXpD4FL7vkKdcE/O1/J0R9Npbbtzi7m5tNnltpc7USgKgSuWbGQ+ky8j+n2Zet4fsMYAsfb8vYVvsP82V+sCrcEDSoDK1qB1cQsA/N8/AJnLIUwwwnaYDpB7ypJeQ2Bzml834YcHyea0BK07WCM62UDxnJf43Iuj1O7YtUmgQ2LudFC6jfXdF1dGVjxEbYrOYuAq7EpfUTawI4d9HZ1OM7f0DNhOu+Or3KKVLMEPrPoHPryv6De8Y2wC4DZ/B+4Yc67XIRWTBGIhYCNjj9b9RiYCbHE+3OQ7t56Xtw8msCxtdLW82UWnPXNWLV7GMwxZT+IrD6ao4OQhRYPN2k25HMBJx35JFv9oC2VaSTQdRI3h5Y3x5l7WCCzvZ3RccbcS6wMAd+f9NQug1uXCOyXwIbFXG3hr4TJLQEZWPHxTb2BBWbrVrqyfaWt1howeUvrhJmcPOD+6pgeAp++/73kCg/u2vbftysfPs28WVN8ky29KSLw/YeHMHjMcgITPWYe39XeNYiWraMo/tR6eWPu6L2MH5+Z+nsSGVjA+rfx+kKO32JoK29WVaV3Nh8y5/VPs74qo2tQESiBQOd7WWDh9SU0LblJNkd9R2fxE6ZKDrj3hoON5eONy1lUZhx1TwGBlkV8w9sTbT2qjwys+IqVegPLYDZvor2Qd7uXIvDchBn8bXyVU6SaJfD3C99AT7CKeh8NrEIL82ZPrNnaKDH/Cdz8zBj6gsfJBENjTaa1fQibt8driu0pMNz1zMk5XDvr9li1exhMBhaw6ljGDc6xzMsVWJZ8A7x//HJWJm3+rZvKtaHBuzXQDfXkRg5zu6Fr0mpVAT3HWsuwOMfJ5mjo6GRknDH3jGVgqMnwvsOe5DGX4yh2bRBoWcxnQPulua6mDKz4CKfewAI2tNCB48NAMDw6YbqnhwXFN90UqRQC5986mGHj28mY+lKaJ6pNaPso2GgvSF1/JmAtZMM8hFdxyxnLBKaKBOYurePA8R8isN/CmHgd4i3bh/Fye6z3Oa8h1ZuHIZl3ctWpqT/NVgYWcNsHyLxjFSuq+JYqZ2gbFvjg4c+QuD+Ka5tojk7eKSe5avRtaCA7Yhjt1RhbY5ZOoK+PQZ3duP21wzK40MCJRzzOutKVqWVaCaxfzIUGLklr/pXKWwZWfKTTbmBZi924YZeB5fSyht9OnM4VTgdR8NohcPE9W2jIHFg7CaUwk9BCIdxEb+5OCvkv8+Ozt6WQQjJS/s6yYQwJTsDUfYXATMGYXOzCNrcOp7Uj3lVde4rsycFg81aumeOrZxEbdhlYu1GubeJRi9vVHLFVbY9ADXV8aPwTPO4q/kDjrp3C76xh3ED7V6ufDKxqke/fuN09DO3pxemHhQHzxzfy5nN/QaF/6tQ6jQTWL+I8Y/hsGnOvZM4ysOKjnXYDKx9iN22gPTBuNy4JDAvHT+ef4qucItU0gU/cvZrBdZNqOsdaTS66s+7J5+grXM2gwf/MjSdHP4hHp6LqqgaB+SunkTM3kbEjnJ7s2bJ1BO3dQ5ymmC3AoOzBXHXWS07H8SC4DKz/NbAesHCYBzX7C4nGEhQMnzu8mV8nTfvqJn5t4I1J01VMjwysYoSq/3pgsO0djOzLOV7hZ+mZtJyjq5+xFPhAYN1iTjGW7xjjeENoH2A41CgDKz64aTewsnkKmzfSlXG82YE1LJg4navjq5wi1TSBS+95lLrMcTWdY60l98qjgp3kCleTNwv48WnPy7iqUpGX2jpWPPt+MBdizFQC495AXLt5FF19bp86yhW6mNYxinPPTf2P6jKwdr+3Vk9hPoZpxjOXPDKwjOHKw5qTd0ra2qncai0nVOnP14CHlYE1YHQV6xgE2NY2Rhfy1DkedNukZv/msGMmCr8PApuXclQ+5L+ALkFyR0AGVnxs025g9faQ37qNbsf+VfTD/3WHTueW+CqnSDVN4OJ7fkVD5qyazrFWkoseFcyHW+jO3sHgvi9w47k+HghWG9WIHhUc3PB2Ar5JYN6AMfmKJBYElhc2jKE363bfuu7ci9x82hEVySnhg8jA2l2gtVP44s69PC+yhl1b/HtzWQIMP5rUzL8mTfPqJq43MD1puorpkYFVjFACXg+wO1oZW4jmv8PLwLONzfy1wyEUuoYIvLyYQ3vhIfDyRFtvKiEDK75Spd3A6uomt6OVnviI7iWSxVjLdyeezL87HUfBa4fAhQtvYmj9hbWTUI1m0pvPYe13sfmruPnMLVCBlT41irLstK5dMQeCb1FvDsK6fST8NVozgWXlunHkCvFuDL/nQF3Zx/nh6VqZCRUucNmz012AtcfwEfJ81TcDK9qjxxrun7SMT7mjM7DIa5u40sKcgfWuXi8ZWNVjX/LIBtvaykHW/YrJ30xqRl8iSy5Muhuuv5cx1PEHY9xvCp1m0jKw4qt+2g2sjg6y7W30xkd0r5HqMhk+c8hJLHU8jsLXCoGLFv6AIfXa9D+J9dz1qGChjVx4AxRu5ZazViVRZio03XZbhpeOOocgOB9jjiWo0l5jdYHl6TUHElqnP6qTy9/O9XPOSUVtiySpFVi7Aa1r4kxr+Z5vBlYk31rWTF7OqUmb0Kun8HVj+Juk6SqmRwZWMUIJeL1yBtadk5r5fAIylgQPCNjHqN/QxmOgPbBclksGVnx0025gtbXR29lBNj6ie400vGB5X+NMb0+7doxH4V9D4NJ7v0pd8H9FJkEEXnlUcBvduf+m0P45fnaeTiuvVnnmbxxK2H4MIVcRMLlijwruK9/oEJBn1ro9NTQyTsPwm1w3+8vVwp6kcWVg7a7Gi1N5R2D5SZKKU6oWA32NzTSV2r5S7VY3cbmByyo1XlzjyMCKi6S7ONZitrcyzjr+tcUYft64jK+5y0SRa43AxiUsDa2fJ9r6UgsZWPFVKu0G1vbt9HR3Ef+R6q8qkbUcYENOPOwUNsZXOUWqaQIfu+sTjGiYX9M5+pJcdKfcne+lUPgBtjCPxqc2MHeuX9vN+MK6mM65cwMO/OBpWPMV6kxjYp4ki1ZerVw7zumDbZGBWshfwvWn3VAMUxpel4G1u8rrmjjKwm0W3D6/6mZW1a8ew1umPeh8GXy/1K+ZygVY/qFfnRLQWAZWAopQREK+QF17O6NdP0Jo4brJzTo5KvkzIjkKWxZzG6BNNh2WRAZWfHDTbmBt20ZPb49bAwsYngs4fvI0dsRXOUWqaQIf/fW5jBr8nzWdY9KTiwyDXNhKtrAAa6/nR2dEpwrqqgaBuUvrGHvwWQTRqYK8ncAk6xS+bC7DcxvGEji0VaIVWAX+hnmn6u9CYpzLarwZ9hizZSpvKFh+acHtCQIOcjUwLCjQNPEZWh2EH3DItVM5z1q+OuAAVeooA6tK4PsxbF+WQV1djKyAgfWNyc0s6Ic0NU05gZbFzLOWdxpTpb0YUsBfBlZ8RU67gbVlC925rONHfg3Bwy9z3LnnkqybrvimkSLFTeCiX5/O4MF3aqfiuMGWEM9iyRXa6c3fzuieT3HluW4PeShBUmqb3Lp6MF3dUzGZWwl4XdUfFdxXIdq7BrF+66jouFlnVzQvCd/LNbN+42wMjwI7JO0RBeDFY2jMFLjLQoNfyqNNsBhVF/w/9s48QIrq2v+fW9U9K8MOKgIzkCigMKPRaDRG2VQWcUv0JS950USDu9EkZn8vZN/jxiIk7iYvQY0rKMrikhhNMMogMIDKDAzDPvvWS9X9WaMvP4PDdPf0vT1V3bf+7XvPPedzaqa7vnXvOZw+ch1b/OR7dQUXCviZ7PqjC85lBCz/56ozQmFbO8U6PX2vQcI3ytbxiM51jO3sIlC7ihsQXIIMWEfbAKXBCFjqkpXTApZA7N1DSyyq+W9V0DByKtPVZc1YynoCX37qo3Tyd/KDeCgkoNnxnog7Yh3E5c249m8pe2W7OSrYR7mcJy2Gb52J63yHkDXW1xtuvPtmd30/DrQUaaUlZZS26EncNWed1nUCYtwIWO8lqu4EhsaiPC8FoYDk7v+7KSkQNv9Z+jp/9ZPv2ydxuhTc7ZU99JNfiXwxAlYiQn3/eXsHRR2d6P2ygJCAuaWVrOr7iI0HQSFQ8ywX2xZekU2z20JT0oyApQ5sTgtYFmL3TpodR/NLNsHWkVOD19BG3V1mLKVM4NoVY+iIv01x4A6FpBxqn094tzj7XiLxPxJzb+eB897sc59y1YHFa8PEis5BWHOxOMm3O67enx9PSdm+r4SW9kKtaZOynZboCdwzp0rrOgExbgSs9xL1xjH0K7F5JZACFoRcuHFsJY/76b6rqeBYCc8gafWTX4l8MQJWIkJ9/3lrGyXeMUKdnghBP+Cs0nVs0LmOsZ1dBGpWcqYt+KURsPTl1QhY6tjmtIAlEHU7aZauRgFLIiS8OGo6X1aXNWMp6wlct3wYneylMHjv1IOTGwmReAdR536G5H+FX53dFhzfs8xTT7iKF38UKR7Apj/CZzWuEuF+e9dAOqN6T3A5bgsx93iWzHorkTu58LkRsN7L8rYyCuwBvOxK9CqoGu6qrqNO8POySu7UYL7XJmsmMRbB3yTBKlxqBKxepzxjE1ta6R+NaT/uO8gWHD9qHTszFphZKPAEaldTgeTursPd5tJCwAhY6rDmsoDl/YHW1dKsjmY3lgSWkNx55DTma13HGM8uAtctzycu2gjb5gyhjsx6wpXDb5Cxexj12tvmqKAOyEnYXLrUpv6483Dd67DEBF8fFewpnC21Q4g7ev9WO+MHCMmJLJy9OwmyWT/ECFjvpViCtb2c5yUMD2LWheSu0vX83E++bz+eEY7D6wIa/ORXIl+MgJWIUN9/3tzKgFhMe8OFAUIyoXR9sO7fvs9ObntQs5KxFvxJCKzcJqEveiNgqWObywJW3EHuqqNFZ+MowJaCH4yayp/VZc1YygkCly3bRnG4LCdizUSQXUcFnT1E4o8R58fcf+72TCxr1uiGwPfeyOOwvDORzvVY4qMIEQssJ1cKtuwYgiv1/uZri+3GzhvPkjObAstKoeNGwHofzO2TeMQVHKOQb8ZMSXh4TGVX3RXfXFtPpn+4kyokLb5xKglHjICVBKQ+HtLYzEDH0V6vLrw/zLgTX9XeYr2PaZrlVRLY+TyjZIylCO07BFW6HShbRsBSl65cFrCiDu6eOlp1ClgSbAFfGTmN1eqyZizlBIFLH3+e/gWn50SsuoOMOHE6478jn6+yZE677uWM/UMQkFKwYONJIB7EtgsRmhtoZCIRrivYvGMIUvNLy87YTooHHcXNp5qumIHdqqfphtxWzkIB0zSZ12tWsKJsHdfrXSQ160svwj55M5tkwI7SGAErtTxnerRt4R5oZKjj6P2yEJKm0vWclOn4zHrBJlD9NEeEwjwIwTuOHhTyRsBSl6lcFrA6Oojv30+7TgHL+53tWnx+9BTeUJc1YyknCMx98mEK8i7MiVh1BdkRb8OVtxHjHu6dtRXhVVwxV8YJzFsTYsjh52GJq7CYhMii/TOOY7GldrB2ASsW38phM8czT7gZz58PF8yiOyh9utWT+G/g80FUhAW8UlrJ59OnoNZCTTmvSrqKYQfmMgKWv1NlWbj19Qx1NL/tELC5tJJz/U3DeOc3AjVPMsgu4HGE9i6Zfgs9Y/4YAUsd6pwVsAQ0NdDZ2kpUHc0PWpLgOCH+o+wMtulcx9jOQgLXrvgJ8C00K6xZR67rqKDcQ2dsGS7/w31zTB3Tvkryb14qJG/oaQj3Gwg+ghXgo4KHYhh3LLbuHIK3u0zn1dz5LPece5bOJYJkWy/sIJEAqidyARa/Ab0/aLRgEWwoW4fv3tTUlPOChMO0xKzJqBGwNIFVZNYTsPYfYJgEbf+/uhojCF4oW8flitw2ZnKEQN0TFLnFrEAaAUtXyo2ApY5sLgtY3u6rSAdxdTS7tRTB4uKRU6jVvI4xn20ErnrqEixxD7be0jpZhS0Sd4jJBRD/LnedF6jyJVmVBy+YhZs/gZT3YovirIvt/QFF4xZv1ekXsJo67+bec7+Y1SxTCE7bA2AKPvhm6M4Kjo+7PCYFgTtfKgTbStcxwzcw33NkezkPuzDRb3715I8RsHyeLQt54ADDNHtpC4v5pa9zi+Z1jPksI7B2LeHDmnlSSIZmWWi+CccIWOpSkcsC1t7dtMViOOpoftCSCx1OJ58aMxvTOUon6Gy0fc2y0xGh580OrCSS2xlvI+7OJ8a93D+76t3m7ObKOIGl0uZA1flI8SWEOF7fa+aMR3boBaNxmzd3DtHqkXc3R2K/YMnsb2hdJ0DGjYD1vmS9eSrDQ628EsQdWEKwv3QdH/fbvVdTwc+QXBikOlhGwPLbXfTv/ng7rw40MFRorK0mICQsvjr6dR71Nw3jnd8IyHlYtafxsBCM9ptv2eKPEbDUZTJnBSygro5W6WouIixoL3I4Z/CZmM5R6m7b3LB0zePHYhWsR+SEDJB6TruOCrp76Yw/iZP3Le4/e2/qRswMJQQWry3CLT4JKb4HsgLLCm5XwVSBtHfmUb1nYKrTUhofd8HmEm6fcV9K87J4sBGw3pfcrR8mP1zEBtD7Rk7H/SQgVlrpv51O28q5yoKvenUgdMStw6YRsHRQVWfTcbEbmhisWcCy4zaf/tBrrFXnubGUKwRqV3Mv0n//j7OFvxGw1GUyVwUs6cKuXTRLzfs0JLRRyNmjTg3ezn51d5mx1CsCly8fSYH9JpbI79X8bJ3kPbm2x2O4zu2EYz/njgv2mR1XfZjshVumI52bscRQhMi9867N7fnU7hugNQNRBwo4lVtm/k3rOgEybgSsg5JVPYl1CAoClMP/czXkhPnIh17111u+6gouEJJfee9JgsLUCFj+soBFAwAAIABJREFUzlQkRl5LKwM0C1giFmLWh//Jm/6mYbzzI4Ha1fwYl5kIND8e+zF6/T4ZAUsd45wVsCSybifaa+RIwd6RgjliSnB+A6m7u4yltAh85rHDGJy/CdsalJadbJnsqc1Rp52YswDp3MPd52/MltACF8c8GWLY5vOBLyD4KFYOH9lsaCmgrr6/1n2SjgvCOpL5Z9UF7l7R5LARsA4CW1PO8xIO18Rbp9l8x+LMD73OVp2LpGq7uoIpSH6HEbBSRWfGd0PAEsiWVko6o9pFZocw08peZZdJhCGQKoHaVVyJ4Aqk5uNJqTqWJeONgKUukbkqYMUd5J46WrQ+dHhpElT/7gUumjfP/C9Qd9fmiKVr/jwEit7AtoL4TKIuSZ5wFXP3E4kvJ553Nfef3abOuLGUEoGuo4KFE5HWrQgxDpGFXQVTAgLsbuhHfXNRqtNSGu+6LuHmftx8ceBqdKcUZwqDjYB1sIBVweNSMi4Fhv4YKikgxKfLXsNX2wury/mIkCyVwhwh9MeNEmwvPAGrvpFBjktIcyTtMZuzjnqNfZrXMeazkMD2lZxvCX4A5E4diAzm0QhY6mDnqoAVc3D37aZV+xFCweujpnKZuowZSzlDYO6zA7Dj6wjbpTkT8/sD9Z5QO+IRYu58opFb+P2FO81Rwb66E6Tgjk3TiVs/ISRGdUnz5gLLkry9axBeHSydV9Sp546ZegvF6/Rfg21zAx4EtbqcPwAnaGCt22TYFXxv7Dru171QKvbfOobRdohnU5nT12PNEcK+zsCh1+8SsOoZ4oDWc/ZS0oTNWWNep9G/NIxnfiVQt5oTpOR+ial7oyNHRsBSRzVXBaxIDHf/HlrVkezGkkQIweNHTmOe1nWM8ewkMPeJIlzxKkV547MzwENE1XVU0G0i6txFPPpb7r9wU07F76dgF68NEy+eA+IyLE5CCNdP7vW5L56AVbV9CHFH70v1mLOFRTODt7lGY4KMgHUQ3JpJ3CEFUzQy12JavPta4rGySm7SskAvjVZP4AgR5lkJ4V6ayPg0I2BlHHlKC+5vYJjO+lfvOVNfFOfM4Rs1P+CkFLkZHBQCe9dweMRlpYBIUHwOkp9GwFKXrVwVsKJRnH170XoUSYItBAtHTmWJuowZSzlDYN6aEHWdr1BgfyQnYvaEq7jTSEf8UYpKrmPhFL0Cc05A7WWQd28roKPjOKRYiCVKESIwdYx7GXHvpnm1vzbWDMWVdu8MJDkr7r7KwhknJjk6J4YZAetgAaucn0j4ZBCzL+Dl0kou8ZPvb5YzPCR4Bkmhn/zqyRcjYPk7UwfqGY7QW09EwD63meljqun0Nw3jnR8J1D1BkVPI34QwhZt15McIWOqo5qqA1dlJ/MB+2tWR7MaSwDtW8s2RU1mmdR1jPDsJzJtnsfdjLxGyTs7OAN+LynsS7XQiuPIWYuIOyl7Zzrx5ZqdPXyRdSsHCqnNAfAtLjEWYo4IJ07ChejhCs5wSc1ayaOaZCX3JoQGaiQePZE0535JwafA87/J4R1kl0/3ke+1JDIl38gzQz09+GQErKNn4dz+lRNQ3MEy7gCWpfnsIs6c8ZwSIYN4pfe/1jlW8ItBeq63vA+0DD4yApQ56rgpYrW3Emhq0H/EtJMZnRs5gnbqMGUs5ReDyZY9SFD4vK2N+t6tgPTH392Av4K6Zm7MyziAE5e32GzLiHCz3coT4GJZwguB2n/voOBYbtw/F1lrVxKsF90d+O+szfR6vjxwwAtZByaiu4Fok1/koR6m40rltMCf46aH7rRMYYMdYAQSmDbDZgZXKLZfZsa7EaqhnKJbeHVgINpau48IMHFXMLECzWsYI1K7kGQSm6KYG4kbAUgc1VwWs5haiLU16d9hKyA+FmXLE6aYZiLo7NscsXfL4zQwouCGron5XuGqjM76UBvllHj+vJaviC1IwS9/Ioz5UTlzei20dRoAabvkCcyRus2XHEO0CViS2kMWzr/FFzD5xwghYByViWzmfseD7EqRPcpS0G0JiNQqOq6jUW9chaYeAuhMoisZYBQxOZV5fjjUCVl/S73lt18VuaNIvhgr4W2llYHdi+jeBOeRZ7SruA47NoZAzFqoRsNShzlUBq7GJzrYWoupIdmvJ3n6AU069WPtOL81hGPN9RuCap65HWLdiZcHjWldXwVgHkttx7d8y6uW3zVHBPrqz5kmLoZvnYHEDQkwwRwV7mYe2zjDbdg3C0rwDK+b8kkUzv95LL7NyWhb8R1Sbl+2TON0V3Avaf9iodfxda3nS4ng/dU7b+mHy84pYKWG4joB12DQClg6qamw6DqHGZgaqsda9Fa8hggMPjq3kOzrXMbazm0DtShYg+Fh2R9k30RkBSx33HBWwxP59tEYi6D0mI4iOnMop6rJlLOUcgS8//UliPERI8wOyTrBdxdndA3TE/4wd/gV3znhT53LGdg8EvKOCQw+fgRBXY3GyKc6e5t3S2JpP3YEBaVpJPL09/jV+N+vXiQfmzggjYB2U67ePp8JyWA7B6z7m7cASIc4Y/Rp1frmF155AeOi7RwiP9ItPifwwAlYiQn33eTRGuKUV3V8WIVcwb+w67u+7SM3KQSdQu5pfI5kc9Dj86L8RsNRlJScFLIHYvYtmJ659p/2ekdOYpS5bxlLOEbjumTOIOc+Rp7fJmTauESdGxPk9FF/FPVNMUxxtoBMYXiptDmwsx7Efw6YIYWpcKUnF/sZC9jaVKLHVk5Gm9ku493xvV7+53iNgBKyDboWaSYyV8BKCpsDdJRIXyYVlb7DJL74vBfukch4HPuwXnxL5YQSsRIT67vNIjLzWVvpr9qDAEnxp9Lqu5gPmMgR6RaBuNd9yJZ/q1WQzqUcCRsBSd4PkqIDFrp20uN4vJr1X5chpfEHvEsZ6VhO4ZlkprlVNOIACVlw2Eo2dysi1m81RwT66S5cutTlw3Ewc9wZsMcn0FFSch72NxexvKlZs9d/NOS4IOYP5M73NIOYyAlb394BXdDwUY4PEP3WkUrhbXSH5XOl6Xk1hjvahb0/gR3aIidoXUrRAOI9Y/5JA5l8RATVmpGQsoPRXV2eEgrZ2vR0tBRTFbS740GusVUPCWMlFArUrmYvgilyMXXfMRsBSRzgXBSxPtaqrpVkdxe4tScHfRk3lWt3rGPtZTGDu4jDh0jZsKxy4KONuC/GhQ1hyYixwvmeDw4vXHkF70ZcJeV0FyfUc5GFb45Wnta6+H40tRcrtvt9gJA4F9se49exXtK4TMONmB9ZBCZMSUVNBVcDy+H/ueifNLx1Tyct+8l9iNH8/5SMjvpxAqLWEp5AUqlyvrZ3izohamwf7J6FQFvLRsa+wR6XvxlZuEdi1ms87ki/nVtSZidYIWOo456KAFXeQu+potoTe3yYSVo+axk3qsmUs5SSBK5+qJ88OTCfvf+VISpf6fYP4/ee0i8U5eV8kDlrgPRWaC+7YdCxYzyCE0pfq7Njbn5aOAq2I22NQbI3n1pmbta4TMONGwOomYdWTeB2h9yFZ133iCq4ba44+6cJr7CZJQE4m1Cq7uk+GkpyScJglkM2t9I9EyU84OI0BXqnUUeM4RjyoucBvGj6aqf4nULeKC6Tgu+b3o/pcGQFLHdNcFLCiUZw9e2jVLmBJ/jRqOr9Qly1jKScJzF22hYLwUYGLvevok/NR5s82u9kDl7wsc/j2qhMJC6+cjToBy1NQtu0eSHskTyutqOP9HQ1m0TkNWtcJmHEjYHUnYJV3FXH/UMBy6b1KFK7gp2PWcXfQfDf+ZhcBeS4lrU1dxfuVvf6xLGRjI4NijjpRrDvqAqKllUzKroyYaDJNoOZZTrMtFgDxTK+d7esZAUtdhnNRwOrsJL5vH+2W5l/AQrLwyOncqS5bxlJOErj66ecJWacHLva4CyF5IbfNfCRwvhuHs4vAgk2nYlsPA+raeXpfIFvrBhGJ6j3eG3PaOeyVElNH7t9vSc1f38G8/6sr+LWQzJEKH74zQcITsITgjtHr+E0m1jNrGAKHIlB/FhPzotwlpcJz956AVc9QR+o99iFgT2klwfuxaG5HXxHYtZJjHIuHkbT7yrEscMYIWOqSmIsCVmsbsaYGOtRR7N6SBbeMmGa62ermnPX2r1r+EOHQJwMXpyMhbF3NLWcuCpzvxuHsIrB442ykfZfSoEK2ZGPNUOKOul1d3TnYGd/JklkjlfqeBcaMgNVNEqvL+ZqQXCEFbpBy3CVgSf44ej3/EyS/ja/ZR6BlMpOF5BcShQKWQB6oZ5h2WoJ/lq3jM9rXMQtkNYHqFYyxQzwrCGBHW59nxghY6hKUiwJWczORlmYi6ih2Y0kihMW8I6d2dWE2lyHQewJzl91FQTh43Sy9/ffR+BIWzzLNTHqffTNTBYGFm+YirB8h1J0KwbYkG6qH4Up1u7q6i7U1+lfuOuc0FRiyyYYRsLoTsCbyRWHxbUnwauBYsHZ0JZ/NppvUxBI8Ai1TuUg4fE2qPD4lkPvrGS4074z0Cu+OqeSq4FE3HvuJQM2LDLKj/B30dzvzU9yZ8MUIWOooB1jA8n6/Wl6NOeG9KLFoReK1M0/4Nryhkc72VqLqKH7QkpSEhWTuyDP91VRHZ8zGtiYCc5f/mILQtzVZ12u2sfN57jt3st5FjHVDIAGBBZu/icVXlApYQsCGmmEg9Wkpnggs5X3MP/sSk+N/J6APeoBJ1xzPNOmwmAAKWEKyp3S9Of4U4NsvK1xvOYMfANNV1sDyHlQa6hkmLYVvULqn/URZJV/LikSYIPqMgJRYO1fzzyB+j/QZtCQXNgJWkqCSGBYgAcsTpoqk7NoZv18IXnTgdVvyWodgV2GcDhlipYCSRGHX19PR0a5wd3D3CxbHXS4oO5NNifwxnxsCPRK4avl1hEO3BZJSS6SKu+dMCKTvxunsIbCw6pcIcYlSActFUOUJWBov78HHlT9hwYzvaFwlkKaNgNVN2mqO5RhpE9Sig+1llRwfyLvROJ01BFom879IRqsMKO4Qam5kkG4BS1jcWfq66RylMne5aqt2JX9DoLdDTQ7CNQKWuqT7SMDyfo96HWYlkiYp2S0s3nahRkr2SJftIZsd9Q3UDT6ZFnHQUZC1awmf0I8tiMRNE7wC7tFI4nFpURYMsBymjjiT7WnZMZMNgcuXfYGisNr6PZmiGom3U9/anwcvdjK1pFnHEPgAgTs2PwqcopRMNG6zpXYIOruBuN45FvfL3DEzmAK2UuD/bswIWN3A3XEsH3ZsnlDarUBjEg8yHWqNM2HiRr3b4zMXjlkpiARaJ/OUlPRX6Xs0Rl5zMwOE5h1YUvLTMeu5R6XvxlZuEqhdyRMIRuRm9PqiNgKWOrYZE7Debb5hvfcGPCZl128UV4iuo381rmCL6/JcSLBVjKcu1QhlVdfOq80I2hLN3beXtmhUb4kIKSkp6seJQz5mjhAnyof5PAGBSx7/JAMKHgokp444FBcO4pYpjYH03zidHQQWVP0dW5QqDaa5LZ8d+wbgHSXUdXk7sOKxc1h0zjJdSwTVrkbqQUUCdcdTGnN4UhLAN+eSkojFR8etY2dwM2A8DzIBeRF26z7+wrtHPZRdnREK2tsp0d0d9J0j5/PGVPK/yhw3hnKWwM5V/FLCNJVHaXMW5vsCNwKWurtAm4AlsREU8W4jj12u5A1c/mHlsZkoO7BpR9LMODqFSP84n3yL0cR4FUHPD8oC9u6mLRbTK2B5TXVGvMiJYp7a70F1mTeWAkPg6qenYInVWnd66ILRGoViaxS3z6rVtYSxawgkJLBg02Zsa2DCcakM2N9cxJ76fpoFLJdo9CMsnrMuFddyYawRsLrJ8tsTOcy2u3aQeAVBA3UJSQku00s3sDFQjhtns4bAgZn0z+vgr10PJwqvtg76dXZSoNBkt6YEfK20smsHprkMgbQI7FjFlwRcY+pgpYXxA5ONgKWOZxoCltd5KYzEeW/XU41Xm8qVbEeyV9q87ThszwtRI45S+13QXfRyK8fjdO147OiRjkDsqqPFdfQKSwI6j5zGx9VlyljKWQLXr5hIp7OeglDwEHg7sApDR3PbWVuD57zxOCsI3LY8n7wPeZs61B5jrd1XQnN7oVZGrozR7k7irpmbta4TQONGwOomaW+dwAA7xnNewdCg5VRAkQsXjak0nW+Clrts8bflVIaTzxrcBG/CUwy4tZWSSKyrRorOy3sg+2zZev6mcxFjOzcI7HiWTwqL/0FlN87cQNdjlEbAUncTJBCwPJFKSokj3q0tZSNpw6IWyctxi1fbo6wdcCz16jzqnSVZxRTgTkSChxQLUbedZu07eSU1o6ZzYe+iMbMMgfcRuHbFGDpib1McwHKKjleE2jmFRbNeNjk1BPqEwII3RyHiG7BEzy83UnXuzbpBRGPhVKelNN6VrTRFyrn/3G0pzcuBwUbA6ibJu8sp7oQXIXg7sLwfmO+cmP3umEr+mAP3rwnRhwTqpzM6L8YTElpVutfSSn+vDpZKmwfbEtDfCvGJUf/kTZ3rGNu5QaBuJZ9wBfONgKU230bAUsfzXwKW27WTquvIn5TUCYutuPwdyTYstuPShEszx3QVUPeOBfrqklVc9E7DhJ8kdErAzh3ad4QJV/LU6OmYzlEJE2IGJCTw1TVDaW7fR6HeZ+WEfvR2QHPHTO457+neTjfzDIG0CCzeNIm4+Au26EzLzsGTt9QOJu7o3RbpuAcQkXLmn5dyXUilsfrQmBGwukmKPIa8mlDXDqwhPsxZMi79rqySXyYz0IwxBFQTaJhCRdhliVd6UKXt5mYGxhy0flkIGGwJjhtlasipTF3O2qp5krF2IV7x3XdKq5lLFQEjYKkiCd7ROzfOVAnVtuCNhlZ2Dz6RJnUrZMaS3MLcd3aH3ZRoNa8w465azQKW6Kr/dcvIKaYZSKJ8mM+TIDB3cRh7dAthW/cO9CSc6cWQtujF3HnOg72YaaYYAukTWLj5EyCfxFIsYFVtH4orvV3K+q7OeC2DS8r52Sca9C0STMtGwOo+b6JmEk9KwYeDmVYeLKvkuwH13bgdcAItUzgDN4k34SnG2dTMoLiDneK01IYLBkrBuDGvqz3+mJoTZnS2ENi2hsNDLo8L7+iVuZQRMAKWMpRZY0hW8R0ElyYKKOrg7qmjVWfncyDkNQMZNY1HEvljPjcEkiJw2ZNbKc4L5jNJPPYFFs42nZ2TSrQZpJzAwk2XIMSvEUJdDSzXFWzcPhRLZwtCoDVWzdB4Ob84r0U5l4AbNALWIRJYXc7vgRMDmV/BsrJ1fCWQvhunA0+gdQpnS7er7o+yy7ZwD9Qz1JFofdshBOKVo5lw8YOKiz0qI2EMBYnA7hUMj4d4FLTXbgsSlrR9NQJW2gizzoCs4ueIxDWn2tqJ1R+gQ6uA5e3Acrlq5HRTSzHrbrS+CujSJ/5G//yP9dXyaa3bEfs2v53907RsmMmGQG8J3L75m4S5sbfTu53nOBZVO4YgNAtYHfEtFFDO7bMiSv3PAmNGwDq0gLUAmB7QHL9SVsnnA+q7cTvgBJqncJ5w+brKMCwLtz4DApaUNI1Zz0kqfTe2cpdAzYsMsqI8IqAkdymoj9wIWOqZBt2irOIOBNMSxdHYSKStFe0PA1YnF46YjdeZ0VyGQPoErnjyAfLzPpu+oT6w0Bmfz5JZ1/XBymZJQwAWVP0SW6h9Jo7Gbd7cORjQq6NE4/9g0cyTEcKUoTjoXtYLPsB/ODXHcYN0uVZ5280MMJGwaUwl52dgKbOEIfABAs1T+ZJwEh/lSAWdJ2Dtq2e47kpC0qVmzBuclYpvZqwhcCgCu1dQHA/zGJJBhpI6AkbAUscyWyy5VTwkBBU9xiPgwH46Oju0F6GPxzo5b8xsdmcLXxNHHxO4bsVNSH6B1q2DmmKMOw+wcOZ/abJuzBoCPRO4Y8sikGo7wkbiFm/XDUFKvTpKc+xR7pl9gUnxBwnoBR9g4tvKmSFgMaC2a0EGmAjYUlrJnAwsZZYwBD4oYE3h28JltlI0AnmgnmFKbR5kTIBwYfmYSm7QuY6xnTsEtq2hICx5Aon3ps5ciggYAUsRyCwyI7ewBsnIRALWnl20xuN4tdz1XZKIncd5R5zOPn2LGMs5ReCapz0B6D5srVUU9CCNu8+ycIZ5MaiHrrGaiMDCqqVY4oxEw1L6vCMSYttu/b/rGjvu4r7zLkvJtxwZbASsQyT67QpOsiUPS2gP4L2ws6ySqQH027icBQTaJvNDV6q9/ySIAw0MFXq7uXkdDn9SVsmdWZAGE4IPCMi1hGsbeUwIDvOBO1njghGwsiaVygJxN/GqsOifyODOWrxiuHqPY0iaYzYXjJlimoEkyof5PEkC1z09HZdnAylgdcY2smT2sUlGaoYZAmoJLKh6Clt8RKnR1o48tu8dqNTmwcakhGj8v1k8+0da1wmocSNgHSJx1eWMEfC8hI4A5ra1rJITAui3cTkLCLRMZhGScpWhuBKrvpEhOgUsAWEhuXH0eh5T6buxlbsEpETUreEBKRmfuxTUR24ELPVMg2xRLsWWFWxO9P3gqVZ1tTRrj1XQYPXn3BEnBvIFqHY8ZoFeELhmWSlWeBtCc82dXriWcErEqWfxzCEJx5kBhoAOAouq1iDEMUpNN7flU7t/gFKbBxuLOZAnPsWtMx7Wuk5AjRsB6xCJ2zqT/HAtbyA0bzXXceNInLL1qP1j1eGnsZmVBJrP4DEBQ1UGF4mQ39JO/0QPKGmuGZbwn2MqeTlNO2a6IfAvAjtWcbuAUw0SdQSMgKWOZTZYkps5Ero6/vVYnF26yB21tGg/hSWpj9nMGTMleCUosuF+yMoYLn1kIMVFtdiiOHDxOU6UM2YUcbFwAue7cTj4BBZtWouwRikNpL65gN0NCXf8prVm1IGwPZnbz3o+LTtZOtkIWD0ktrqc14CioOXeq+UTbWfSUW/q77QTNDbGX/0EWiezRkryVK1kCWRzOyWRTgpU2ezOjvd30xbjjGM2sUvnOsZ2bhHYsYrvCcl5CM3HlnIIqxGwcijZSYQa2cSkPIunSLBjPu7g7tnVdYRQ629fKdm1ZyAXnHii9mLxSdAxQ7KCwGcf6M+AoW8RspS+HMwIG28nSUiO4vZZtRlZzyxiCLyfwMKqzVhC3XE/IaBufz8aWvXqA107sBjPrTM3m4R+kIDWL/GgA68p7zpCeHjQ4hCQ1y44e8I6tgTNd+NvsAmsmUzoRMkLKmuMeAJWUwsDojF1otghKMecMB//0Ks0BTsLxns/Edi1kmscuDyQu3n9BPJ9vhgBy6eJ6SO35GZmAXck2oEVi+Pu3U1rBtzccORULhFGtM4A6hxZ4uql/RD9N2NbIwIXcWcc8kKnMf+svwbOd+Nw8Aks2lyLIKwsEMuSVO8eSGtHvjKb3RlyZJyhTcV8/+Ko1nUCatwIWD0krqaCx6VkXNBy6wlYUnJ12fquN5LmMgQyRqB1GocRZ7lU2L3TE7D2NzDUqyekMxABrR0RJo/f3PWG3lyGgBICdc9ytmvzKyTmR4gSonjn+t8cPY3/UGQuJTO1K/k2gk8lEuldiTxiBCUhm2TahsXFOCak5IgZ/C8CThU3WYIr6bo1Dn1FYrj792REwHpx5DTTzdbcogoJzFtTwO7O18mzA/dMQtyFEJ/lthl/UEjEmDIEEhP4zUuFFA3e/m6TcUWXbUm21A4mElMninXnWjS+mztmHaHI66wzo/WBMOi0qidxJ4LTghaHANuF28ZUclvQfDf+BptA6xQqpMs9KO7eWd/IMCm1H8Gqb4LpFZW0BTsLxns/Edi9gonxEA+Bua9U5cUIWKpIZocdZws3W5JzEkXTGcE5sE/736H3u/rPI6dhOkclSoj5PHkCc9eGcXe/TFGe2m5qyXvQ+5HvdlO7gcWzb+29ETPTEOgFgcWV43HzXkKIWC9mdz/FE7A2VA/FlbYym90ZijhVLJ5pXmwdArIRsHq4+6or+A2S2VpvUA3GvVo+WDxa+jpf12DemDQEDkmgdTIz3ukY+AOB2tofBw4wHEtvQwUJu+PtnGVqx5kbXCWBnSsYRYgVAe1oqxKFMltGwFKGMisMOZv5o0XizssdHcTrD2juDOj9+oJFI6eyJCvgmiD8QeCipTaDil6kIO8UfziUohcNHT/l/vO+neIsM9wQSI/AkqpzcbgbIeLpGXr/bAEbtg3Hq4Wl84q7/2DhjJN0LhFk25rpBxkNbK/gB67sm2MK6ZITkqrS9ZyXrh0z3xBIhUDrZD4r4VqkOrHJOzpYX88w3QKWkGwfPYSZ4jkUftGlQs+MzUYCu1dQHA/xEpj7SlV+jYClimTw7cil2FSwAihNFE1LG7HmBjoSjUvncwH5Eq4fOY3V6dgxcw2BfyMgpeCqp54lLzQtkGTaY3/gd7M/G0jfjdPBJXDHlq+B/CagrgOmIwWbaoZhaZZQYs7jLJppnuMPcfdpph/ce97zvOY4vixdrg5oFO1llRwfUN+N2wEl0DqFr0tXrXDqOlgNTQzVXgRbsPXvR3PexQ8q/KILaB6N22oJ7FzFSxL0FvxU67KvrRkBy9fpyahzcgeFtPEiggGJFm5uIdrSRGeicWl+XmxZnD9iClVp2jHTDYF/J3DZk/dQnHdJILE4zmoWzJgOQgbSf+N0MAks3DQfS/yH0hpYccdi0/ah2MmUt0wDW3vsTn43+/I0LGT1VCNg9ZDemnIueefkdiC3vHp1sPaFmXDiq2qPcmX1X4MJLm0CzZP5pZCcmrah9xlwHEJNzQyS6K2BZcHaUZV8TmheRyUbYysYBHau5ikpGR4Mb/3vpRGw/J+jTHkoqyiBLgGruMc1BTQcoLO9XW8zBQGFLpw5aho7M8XArJMjBD7/+E8ZWODtJgne1Rn/Cw2tk3nwYnU7YYJHwXicaQK3b1xO2D5B6bJtHXls2z0QS7OAFYndyuLZNyj1PYuMGQGrh2QDwOxOAAAgAElEQVRWV3ChkPxM94OzjvtJQHFLnPETN2ak446OEIzNgBGQIFonsxBJuUrX43HCTS2J366nvaZkRdl6rk/bjjFgCBxEoHYVS4EPGTBqCBgBSw3HbLAiNzEEi5VAvwQClti/l9ZIRPsOWztm8bExU7Tv9MqG9JkYUiFw2fKvUxT6ud5+zKk4lMLY9thrNLV9jAcvNt14U8BmhqZFQLBw0xYsq39aVg6e3NBSwK56tTa7czAa/x/umPVDpb5nkTEjYPWQzLcrOMtyWYjQ/oNH+S0lJQOKJBWHvcEe5caNQUOgGwJyHlbb89wtXT6sElA0Rl5LK1q/LLoaH0geKF3PD1T6bmwZAh6Bnau4TcLHDQ01BIyApYZjNliR67uaJCzHoiCRgLVnFy3xuLr6jN2uJ+gYOTV43auz4V7I+hhufPpiIvyJkOadHzpAxtytFDRXcPPFWmvQ6XDd2Awoge+9kceI8C6k4vqjBxoL2dPk7fzVe7V0XsHd55pmIIegbASsngSsiZTbFstlANufC8gTLtNHv8Fbev/CjHVD4F0Ca08gPKGEP7iSESqZdEYpaGtL8HY9zQWFxJJwS9l6FqRpykw3BD5AoHYlP0AEr6OtX1NpBCy/ZibzfsktjJUuy4QglEjAqttJs3T1HkUHdo+cZv7WM38n5MCKNz59Em3uKxT0fKv7koTj7qBQTOBXZ7f50j/jVPYRuLOqhAi1WEJt3cM9DcUcaO75yLoKmo3tn+a+8/+kwlQ22jACVg9ZrS1nZAz+6ZVOCFryhcCyXC4ctZ71QfPd+BtMAnIm+a0d/BHFtX46IhS2tyeob5ImMiHIdyVXjqnk6TRNmemGwAcI7FjNTe90hv20QaOGgBGw1HDMBiuyinHAE4gEB6skcudOWjIQ85aR0/hMBtYxS+QageuWf4iYeJM8O3iRx939dEbGctd5mfgbDB4f47F6Aos3HkHM2kRIRJQar93Xn+b2nnf8pruglBCJncOSc5alaypb5xsBq4fM7jiFwU4rGxA0B/EGcOJc9upG/hZE3/vU54v6dPWkF7/oQVw/FRyXp1DYls+DUjIo6SCSGNjRQVF7J0VJDO31EOHVTxGcVbqODb02YiYaAocgULeKL7lwpQGkhoARsNRwzAYrchNnYHEX9Hw00HXfFbB0dz534YXR07gxG9iaGHxG4IZHBhIrbNDe/UxH2K7sQNqj2FvfqMN81tsMwnPJxRe7+KkJ0vxNRxOyXgHFjTtq9gygrVNvV+loHApDH+Xms9Zm/b3dywCNgNUDuDeOIa8kxOZ3OhEGsuigEOxDYs6bp/jHkZdHtKTE/8XvheSXxc/hm39ueyfTr1DyCKgTmyyBbG6lfySK1i8Lr+mBDR8bWUltireLGW4IJCRQt5pPujKYHW0TBtcHA4yA1QfQfbpkvIrP2gKv0G2P3c1iDu7uui4BS+vvXglPjJrGPJ/iMm4FncCVT+0nzx4SuDAkklh8A9KKB873vnb4sAExDh8U62s3elzf+79qxT/NFRO3+8bPJVuOw5XPJnq5kbK/23YPoCOi9ZmE9hgUhMYy/+xtKfuXIxO0fpFnA8PqSbyK0Ft/Jxs4ZVMMXQJWsb933XnCjpDcVPS8f3bY1U9nQDjOk0iUVRi1LGRjE4Ni8QT1TdK/AcMFMOnwSkx9hvRZGgsHEdi+irMsyc+6WgWYK20CRsBKG2HWGJCbuRbJVxI124lEiO/dS7vuHVhI/jByOr/OGsAmEH8RmLuskoLwJH85ZbzRSmDogDaGD/T3b1PpVRcsPIarS/1TcueWN06jIO8hkOq0DiHgzZ2DiMTCWnPe4QlYYji3z9qndZ0AG1eX1ABD6Mn16gr+jOTYLA3PhNUNgSAIWN6DsCW5sfh5/uGXJO47kxH5MR4WUl2XJ8vCbWhgSNxFa9EHAZHSSsr9wtL4kV0EdqzgZGx+KwT+fosaEOxGwApIojLgplPFzZZgTqKjK22tRBsbUVvMt5v4BMw/chp3ZyB0s0QuErj66dWErCm5GHrOxhwMAasTK1zOFR9q8k2e7qiaAeJepf6EbMnGmqHEHa3PJDiui+UWcfsstfW7lMLoW2NGwErAv6acm4HZ0k/nevv2nsn61QMiYAlsLi9ZxUa/JOTAFI7Nl9wpZc9HOVLx1xOw9tUzXPu+Fcn2svWcmYpvZqwhkCyBmpUcYwseAnOkO1lmPY0zApYKitlhw93MMwLGJIqmuZlISzPaHwak4MejpvLnRP6Yzw2BXhG4ZvlD2KFP9mqumRRMAsEQsFqJ2cdz/VH+qRm9YNNnsK1blCY9ZLts2DYcRyo7adKtf22xau6cnfB7TWlsATNmBKwECauu4KtIrkpUXyFgeTfu9kAgCAKW1zXPcrmg6AV2+CWZTZOZYUu+L0FdjQOB3F/P8AwUq3+1rJL/9AtL40d2Edi/iiM74QXAFLBVkFojYCmAmCUm5GbegMQ1Ehvq6Wxv117P1KsEc9PIqazKErwmDL8RuPKpW8mzr/ebW8YfjQSCIWDV48Y/yjUTWzWSSM30oqqrEEJtPULblqzfNlzpscTuomqJrOTuOealeg8ZNwJWgj+HmnI+Bfxc6UN5an+CZnSGCQREwCqWeZxV8gx7M4znkMu1TO7qsnYJCo8QSok40MhQ7QKW4NmydVzrF5bGj+wiUPUYJSX9eFWCaSGuILVGwFIAMQtMyKXYspwtQiQ+tl5/gPaODoUvV7rjJwi5LpePnu6fo/1ZkGYTwvsJXLH8G+SHfmag5BCBIAhYgjry8k7hC2O0H9NOOvMLqn6ALa5IenwyA10pqNo+LJmhvR7jVUp13ftZMOPzvbaRAxONgJUgyW9XcJIt+YNM0OEmB+6VnAkxCAIWgv5uhDMG/I16vySmZTI3IzlJpT+Oi93UxGDdR3il5I9j1vM9lb4bW4bA/xGQawnXNfGaRP8RplygbgSsvs2ylNhUM4wYpcAEYCSSUa5DozWBb4oMNSto2cqwYpf1Iglh2CvgHotqFrCg2LI4f8QUqvo2Q2b1rCVwzfKrsEMLszY+E9gHCQRBwHLcbQxzTufiiVHfpPCOzV4twllK/YnGbLbuHPLOzi6lZv/NmNvV6+fHzD/7u/oWCb5ljRkIPhwvgreO46iQyzLdD9DZQSs7ogiIgFXUlsdphz/jn655rZN5QMrEtUhSuUuicfJaWxiQgb+/W8sqMT8KU0mOGZsSgZ2reEkmcdQpJaM5OtgIWPoTLyVhainpbKV/QT79iTHShQpcyoVFhYDBvHtcvOP/vHElL9rj+aJ+795dQW5mPPA8JO4avHcPbbGYuvqM3cUoJYOcPD5edjq7MsXArJNjBL607GIKw3/KsahzO9wgCFhxdyvhtilccaJ/GtUs3PQslqW2OVNbZx7VuwdqFbCcLgHrUhacrbYAfZb9FRkBK0FCtx/PCDfOKgR6C7Zl2Y0V5HCCIGBZAlk0jDPEg3p/kKeSx5bJrERSmMqcRGM7Oihs76Q40bh0PxeCH5au44F07Zj5hsChCOxYyUNCqBV4c5W2EbDUZ75+LQMGlXCi61IhBGcIOAJBUZdQJMkTYPPuL0b3kKsLnhRHc6N677q3KDdxAhaPJdMcYe9uWmPxxEcN0/S9X6PFCROn4J86MGkGZKb7jMAlT5zFgPwVPvPKuKOTQBAELNfdyNDx07lYODpRpGR7/qaXCVlqC6HXNxeyq75Eq4Dl7cBy5OksmvFiSvHm2GAjYCVI+K7jGRZ1eEby7g85c2U/gSAIWELQ3O85ZvolG3Im+W0d/EVKtUVyW9voF4lSoDtOC24aXcnjutcx9nOXwI7V/FzIrk6XXa/XzNV7AkbASp2dXEOI0YyIxxgVsjjadTgcwVhLMBTJWAklQhBGEkP07sWIC3fZ4/hp6t71bobcwjm43JbIXykQu+todh3tf3vhIy0+IqZoP6rYO2BmVvAJXP3kqVihv2KZd+rBT2aSEQRBwIJ/cMXRcxDCP79vFlZVYwl1L9U9xaRmb39aO/Q+k0ivknDnJBacuyHJOyQnhxkBK0HaayYxSMIzXs2hnLxDcjDoIAhYUlDX/zku8kt6GiYzMAwvSKm2SHVrGyWRaOIOU+lwECCkwxVlG1iTjh0z1xDoiUDtKm5AqG1ykKvEjYDVbeaF3EoerRRSRHE0zgA7j4nCZYKQnIGgFNklUnlFdiMa7p0QcKMYx6MabHdrUm7lcly+kWg9T8DatZNm6WoWsATt73Qg/EQif8znhkCvCdyw7Dgi9muEjYDVa4ZBmxgEAUvyFFeNu9Q3aBevHYAsqVH6XefVvdqyYxAxJ6w1TldG6HQ+zO9m1WpdJ+DGjYCVIIFV4ygpyOcZ3q33YK4cIBAEAQuLDSVrmOuXdLR9giNci5VAo0qfmlsYGIvjPRjpvMJCclHpel7VuYixndsEdj7Lea7FDwX4p0ZEQFNiBKyuY31W+yYOKwpxgiv5uBAcLRxGYJOHV79KUIDs+t/Z1dMoA6kuwuUiMYGXMrBW1xJOFTdYgmsSrScF7NpBs+6tARKqRk3js4n8MZ8bAr0mcM2qUjo7qinO67UJMzFgBIIgYEXdpVw/4TrfkJ2/sRRhVWILdV0RPQFrU80QXGlrjdNxG6iPTOB/z9ujdZ2AGzcCVoIEbptMgTjQVQNraMBzbdxPkkAABCwhLZ7ovyZzRzUSoWuezHgh+UMytUgS2Xr/503NDIo7aP2yEFAUgulHVrI5Fd/MWEMgFQK1z3AcNl5RTq/wtbnSIJArAtaOHRQOa2FkfpgjnTilAkZgMUZIRgJlQtDvPYw6dlSlliFJMS6niGPw3npn5HI28z8W/FeixVwXuatO7e7gbtYUluSpEdP5TiJ/zOeGQK8J3PDIQNryGyjU/V6v1x6aiaoJBEHAirl3ct2Eb6sOvdf2Fm04Hhlag6V4t/GGmmGI96pB9tq5BBNddzeyfSILLjyga4lssGsErARZXDOZ0NgGlkvZ1S7aXDlAwO8CloRQyOLnRWv4s1/S0TyFjwvJr7yT28p8sqCpUb+AZcHgdpuK8a9Rp8x3Y8gQOIjA5jUMLXa6jqPr3giS9eyzTsCSxBF8AosBSE7uKqQO0xAMF+BttWj3Nhz5PLGCoxkvROYEWmczCyw4KxGXaBx3zy5aLY2/eCXYlmDJkVNNN9tE+TCfp0Fg3jyL3Se3kWfrrcOThotmqmIC/hewLJA/4srxtyqOvPfmFm05ByG9xkzqXu64rmBj9TAsre/UIe7UEA9VsOTMpt4DyP6ZGr/OswdeTQV/kpLjsiciE0lPBPwuYHkPNFJwU8lzPOeXTLZOZrqUfF+1P42NDHak3g6gQtK/xeGoiRtN5yjV+TP2/j+Bt55lQJ5gpTAdbdO+LbJQwJKIrqOl+ciuHacuQuHLgLSJJzYgJZ3WeCYlHqluhNzM/cDHElnsjBDft5d2zQJWmBDfHHUGyxP5Yz43BNIicPmTtRTlHZmWDTM5OAT8LmAJ8nDkJVw93j+NkBZuug7L+h+lx+fjjsWmmqHYmgWs9mgVljyBJXO8F1fmOgQBI2AlcWvUVHC3lJyaxFAzJAsI+F3AkpJ81+aKgWv8U7OpeQrnCZevK02/QNY3MPQdYUzv/ymJdc96xs3LTJ0YpYiMseAQqHqMkn4lPIVEXVec4ISv1NOsE7CU0ukzY1vFOGZlcnW3ioeEoCLRmq0tRBqaiOgse921M1rymSOmszGRP+ZzQyAtApc89gIDCk2zgLQgBmiy3wUsV+YjmM1V4//qG6q3bfwuebbamlzRuM3W2iF4tbB0Xp3xfzKi8GTmTTHlJnrgrDkLOjOcOds1FfzMlVwogtj+3Nu94qnj/rrUFdXTEJffBSwB4WiYTw1eyXYN4ffKZOtkLpFSbVF575xVfWNXi3e9l6CjbJ3ZYakXsrG+4yUK6eAJAYMMjfQIGAErPX6aZj8uxvFVTba7Netu5gUBR/S4poAD++jo7NTfPMHpYHrpOTRkkoFZKwcJXLN8MVZoruZXe3rAOtIh5vjrwTw/lKe9rlE6NIMgYIXik5k78fV0wlQ6d8Gm27Gti5Xa7IyGeHuX/oZu0fhq7pg1TanvWWjMCFhJJHVbBV8Qku8GsfiukNRYFl9wQv45jiBiPCGhJAn0fTLE7wKWB2V3EVOPekrh2e40SbdO4Sbpcn6aZj4w/UCD/uYJXmPc0krmqPbd2DME3k9g63LyC/J5RMBhhkx6BIyAlR4/TbPvFuP4iSbbhxKw3hDescueLgG762hxHO2vQpyIy5kfOhNTtySTN0EurnXdM19Fyl+h80ysLq6Ou4Jw/pW6zPfKbjTyEiGrZyG8V4YVTfK/gFVAND6JGyb65qU6i6oeRIjTFWXgXTOtHWG279X/ArIt+mfuPOeTSn3PQmNGwEoiqdsqOFtIFistBpfEuiqGCNg+upKzhY+OR1WXsxrw7fl9vwtYQhDt9xxTVNwfqmy0TGYekjNV2fPsuBKroRG9bzu8HYoWfyxbx3+r9N3YMgQOJiDXEq5t4lEBhxs66REwAlZ6/LTMlvxMjOdOLba7MSp3UEg7byRT46RuJ61SZYOR7oKUtOfZzBw+xdRSzNQ9kLPrXLfis7jyAWydh2I10Y05f2fRzJM1We+d2aufeouQPbZ3kzMwy+8CFjJEe/1IvnJqRwZoJF5CSsHCzcuxxUcSD05hREt7Pjv2DUhhRu+GNnXewr3n3ti7ybkzywhYSeR6WzknC3gYaEtiuK+GSEl99RA+MeW5zHUGSgSgppzHJYxLNK6vPve7gIWgpeQ5ZvQVn+7WbZ7ML4XiOnFOHKuhhSGaj+6GLIsfjn6de/zE0/iSfQSWLsU+dQh/BPz7Qzkg2I2A5cNECa4WR/Nspjxr28gRRRYvI4j2tKZ3Ar2ulmbdfknYzwHOH3Ux/niI0x2wsd93BG54+iPEeDWQAlZnbBtLZvvrO/Cap1/HthLW0uuzhPtdwHJlG1eP909O50mLYVUrsa1jleassbWAugP9ldo82JjrfWPJG5g/wz8dHbUG3HvjRsBKgt324xkhHV6WBPCHiaSjdAgnCh8JWNUV3InktCTQ98kQvwtYUnCg/3Oc2ydwDrFoy2QeQDJGpU+RKPktbfTXLGDlYXFt2essU+m7sWUIdENA7FjFYgEnGDrpETACVnr8lM+WeHtZLxdH84Jy24cwGNsUOjVkxf8E9FhT03WRtTtotm29FYMk7Bl5GOeLiT0LapniY9bJYgLfeHYAbU49lhW8LViR+H4Wzxrmq+x8adkLFIb9WxTf7wKWI3dwzfgTfZPTpUtt6iu8gvJKn0nY31jE3qZ+WuOMuZBnf4pbz/Q2zZirBwJGwEri9lgzmdDYejbKIBZxB6c0TIV4VX8B0yRQdg2pLucXwHnJjs/0OL8LWMDOkudRW5wwTcitZ7BcgrKttZZAtrVT3N5JUZqu9TjdK4jvhpk15lWqdK5jbBsCHoHaVdwC+PeHckDSZAQs3yVKIPiUOJqMFfGNV/E5W/DDRLVJ4w7urjpaLM9DjZeU7NozkAtOPNE/v7U0hmtM9yWBuWvDhPY3E7IK+tKNXq3tuA7DYv2ZN6e9V/N1TLr8yacoyvPVqYZ/C9PvApYrN3P1eLX1ptLJ87w1IQ4f4X0XqRNKvW+PnftLaGzT20U64ngC1mRuP+v5dBDkwlytX+jZBLB6EhsQhAIYkx2zOeWo19jnF9/fLuc7FnzeL/4c7IffBSwBb/Z7nkv8xK/ljK66Zj0X003BYU/AamxhYCxGOIVpKQ8VIPaFOe7EV/HPj6mUozATgkJgx0q+LwTnBMVfv/ppBCzfZaYYi5PEUdRmyjNnE9+yBJcjem5QE4vh7t5Nq/Z615KtR07jP0UCfzLFx6yTxQTmLg4TKt1FyBoSuCijDhSEjuGWMzf5xvcvLXuUwrBvX6rjdwELuZYrx8/2TT4Xrw3j9KvCEup2SwkBO/b2p7ldr2js7cCynDIWzK7xDU+fOmIErCQTU1POX6RKNTfJdRUMy3MF/zF2HX9XYEuJiW3HcYNwuUqJMQ1G/C5gScHG/s/xJQ2h98qknENRWwurpcTplYFuJnkC1v4Ghkqp9625kDj78qg40Uc7FFUxNHb8R6B2FZdKuEGg7m/Ff1Hq98gIWPoZp7SCpD+CY8U49qc0L43BThV3WoKEb/0jEZz9+/TXL7UE/xgxFX91V0uDr5nqYwKT14Q4NrIF21J7RCoTIXs7TAqsM7j17IwdN04Y1lVP/S9h+9MJx/XVAL8LWJLHuWqcb55J8AQst982hFD3Aty2JFtqBxOJqbPZ3f3kuFFiNf1YckWsr263oKxrBKwkM1VdzoNAeZLD/TTMdzV+qiv4IpJv+AnS+33xu4CF4J8lz3GdX/h1nMUYJ8LDSmvECWR9A8OlV1tF79VWOpiT/FQjTm+4xnpfEqhZzTRLcquASF/6EfS1jYDluwyGqWO8mNJzPSqVXsvNPJNMjZOOTuL1+zOyw/aFkdMwnaNUJtnY6p7ARUtthpb8k7AdvGcSb4dJSFzE7Wc/5Jv0funJ2yjM881v6g9w8buAFXfu5tpjvumbfC56czgivhGEspfqeALWhuqhuNLWGmfUaeCOmXq7r2sNIHPGjYCVJOttk7hDCKYkOdxPw0Ku4Odj17HEL05VV3ABkp/5xZ+D/fC7gCUEL/V7jpv8wq/hdI4PC+5ULWAdOMBhiY6HpMvAK7xbNo4p4kGzIyZdlmZ+YgI7VnGSgHshIw/UiR0K6AgjYPkucfViHCdnyiu5hhAj+AuQ8AhVeyexhv16G/B4P6QlPDJyGj/KFAOzTg4T8Lqs7XzqZQpDHw0cBen9Uox9h9+d8xPf+P75x/6bgYU/8I0/BzviewHLvZVrJ/gnnwveOA0r9BhCxJXl1DtCuKHaq6mlVzfpjG1lyeyjlfmdxYb0JiKLwFVP4jcI/HPGN0m2Xo0fCc+VVTI3ySnah20rZ4YA37YI9buAheCpkuf880O5cTLTQ5KfStR1X/KODtY3MEy7gCWoKVvXdT+62m98s0DOE3jrWUbnWTwj0H+kKZthGwHLX9l1Ya09js9kyiu5g0LaeQVIWFC3tY1oU4P2nWG2JfjFiKn8IVMMzDo5TEBKwdzlKykMTw0khcbIIu6bc7VvfL/0iS/TP99rsOLPy+8Clit/ytXj/cNv/sYLsO3fIhS+mPbKmWysHoYnZOm8HPcFFsw4Q+cS2WJbcyayBRNsK+dbAi4NaES1ZZVM84vv2yYy2bJY4teujn4XsFx4aMDz3OyXfLZN5kpXdhXlV3bcz3GxGxsYgqVdWHq7tJLZRsDyy92U3X5sXU5+YX7Xg7e6re3Zjazb6IyA5aukW67LA/YEvpcpr+QGBmPzEoKExzmam4i0tOg9sisgX0quGzmdNZliYNbJcQJXPf0QYeuTgaTQEvsTd8/2T82pLz7xJYrzl2jeW9P7VPldwMK5iSuPua/3ASqeecem68Dyvo/U/c6KxW2qdgzBthQ7e5C5mPswi2Z8Su8i2WHdCFhJ5nFbBV8QEv+c8U3Sb2+YELSWruOEFKZoHVp9PKfgcL/Sfy4KPfa5gCUswZ3Fz3GnwpDTMtUymR8iUfom0HGwG5oZLBSKYocIsrK0koszsE5ajM3k7CFQu5K/ItDbySZ7cBkBy++5lOQ5gitD43gqU67KNxmF07Vez51vBTTU09Hehu6CuMUW/OeIafwzUwzMOjlO4LInb6c479pAUog7f2HBjNMR3gERH1w3rphDRD5OSLM40dtQ/S5gxeVcrh3/WG/DUz5vYdV9CDEDoe6lOm2RMNt2DUJ3O9vO2N0smf1F5Uyy0KARsJJMas0kLpLCP8e2knS7a5iAvNFhjhY+6bRWPZEJQrBCCr11KVJh9P6xfhewXLh9wPP8b2/jUz2vZTI3IzlJpd14nHBTCwNU2uzOloTVYyr92xFTd/zGfuYJ1K7mWSSmSGca6M0OrDTgqZ4q8RrFzBBHs0m16UPZk5s4GotHgLwe1xRwYB8dnZ3aBawi12Ha6LOoyxQDs06OE7jk8R8xoOA7gaTQEVvHiNKT+P7EqC/8v3HVSbRFXqEg5At3PuCE7wUs53Nce8yzvoF328YXybPV1pFqasundt8A7UcII85PWTzz275h6WNHjICVZHLeLudcC36Z5HBfDRMw2HIYN2oD9X5w7M2JjApZvAo0+MGfg33ws4AlwPuG/W6/5/HFl4UE0TKZu4RE6ZdFJEp+axsluu8PIXikdF0wd1bqZmPs6yGwcyUPSMEEPdZzw6oRsHyVZwvJcWI8LZnySm5kIhYPJTxCKBB799ASi+o9iu7VGt1icdKUKagrGpwpmGadYBK47IlrKcq/3bfH3nqi2hHbyoDQ8fzq7DZfwL92xRiizttGwOpNNqSFKz/F1ROe781sLXPmb9pEyFL7knBfYxH7mvpp8ff9RmPx61k063bt62TBAkbASjKJNcfxcVzukwTyB8rAvDgfHbGR7UmGq3XYjmMZ7NpslvhDUAuUgCUojMEXBz3H61qTlKRxeQLh1hL+hOSwJKckNawjQmF7O8VJDe7lIE98E4L7y9bxw16aMNMMgZQJ7FzNz6VkesoTzYR/ETAClo9uBkmHGE95Jj2SWzgZyQMJ1xSIup00S1fhUZLuF+0YOY3TEvpjBhgCqgh85ZlZdLjLCPv02FtPcUadasKygttnNavCkZadq54chAjVmyOEvaKYB/JMrhy/tlezVU/63ht5HB7eh1DcuKPuQD8aW4tUu/sBe62Rz3HXnN9rXycLFjACVpJJfKuCo22X5xCZe8uYpGsJhwkosgXTRq5jS8LBGRiw4xQKnTa24tNOXH7egQX0C9mcW7iamgykKuES8hQK2/NZ6io+EtXRQWF7p14BC4ktBD8sreTehIGaAYaAIgK1q/gucIEiczlpxghYvkr7fjGOUzLpUXwj59s2v+NRVM0AACAASURBVCZB91ivwE5dLdofkiXsHzWNszPJwKyV4wS+vOxkOsTLvt011FN6XLkHaR/LgukHfJHF65bn44p2bN0VunsZrZ+PELpuMTJ8HNd8+M1eRqd22uK1Q4kX12BbrUoNb98zgNbOnmsuqliwMXIh983xjsebKwEBI2AleYvUljPSgdf8umuopzAE2G6Iz435Jy8nGa7WYXIyoZr6LgHLH+ffD4rWzwKWgIKYYNqg52jUmqQkjcuzKG6J8ichGZTklKSGtXdQ3NGZuEV6UsYOPahICD5Tuo6/pGnHTDcEkiZQu4obgP9KeoIZ+AECRsDy0U0heUuMZ0YmPZKbuBSL/04oYLnI2p206K67C1SOnMYXMsnArJXjBK5/5ig641sCKWA5bgtNbeN44JO7fJPFK5bvIz801Df+vN8RPwtYMbcYq+DDXDNmty/Y/bZqDFG5HttSezy1ZvdA2iI911xMF4ArIRqbypJzTDfbJFgaASsJSN6QmkkMkoIq8IdwkKTb/xpmw5dHVfJ0qvN0ja8pZ71MVIBV1+IJ7PpawLIINXQyedTf/FEAv/E0Btk2f/R2hqlKl2Uhm5oZEI0lKNCb7oKSEhvOHrWe9emaMvMNgWQJ1K7mYiTfSHa8GfdBAkbA8s9dISXrrPFktO23U8V3LfgCoufaVjEHd3ddl4Cl97euYMXIqZjCu/65LbPfk7lPFBEKtRDy6a6hnjLgyihtHR/m7vN3+CZRlz25nuK8ib7xJygClpQl5HEYl43PWA3EHnO0YMsEbPl3oF1pLt/eNZDOqF4BqzMOBfYkbjv7DaW+Z6kxvV/qWQTtvV1Dm98poB3IIp1S8o0x63nULympmcSzUjDaL/683w8/C1jeG+dfP88Z8xIcncgU15ZTGS7y+JP0OlEput4TsAZGY4QVmTyUmX5hl48d+Qb++RGlOWBjvu8J7FjFzHeaMfwoE55ISVgK/mLBSCSjEHgFUwL5HfZ+XkbAysTdk/QafxXjuDTp0QoGOpu5zyLxscXOTuL79tGegR1Yfx45jR8rCM2YMASSJ3DFst3kh5XWH01+8TRGutLbanIM8+d4mwL8cV2xfCX5oWn+cOYgL/y8AwsKiVrDuP6oiC/YLar6OILHQaj7nSMEbK0dTDSut01laxSKwmOZf/Y2X7D0uRNGwEohQTXlrJXo74yWgkvJD5X8oGw9vikMt20Siy3BFIn24qrJM3pvpJ8FLAFN/Z5nVspBaZrQOpnDJTyEVPeG27Zw6xsZEnewNbn9f2ZDG9s5Ztab+OOLV3Owxrw/CNSuZhqSX2TCGwElI4ZyvKigbesD9C84nIsswRdcyTAhUFsjIhMBvbeGEbAyCDvBUq7Lo/YEbsqkR7KKFQjGJlqzrY1oY4PiYr7dLCrg7iOnMT+RP+ZzQ0ApgcuXbaYorLQDtFL/DmXMOyrlypksnOGbUyFc8/Sj/4+994Cyq7jyvX91zr23u9WtHBCKLWGy1ALDkGxACQQSYexncBgHHAkGT/B79ow9QZ8979me8cwQRXCGGdsDOGGESAoGY5IIamUkUGxlqdXxpnPO/lxX4MGyUN9w6tzQVWtpLVi3dqj/rtvnnn/V3hvXuTKS9RdqpJIJLH279XMnHINSuuRg+ceta+aRcL8fqiOOI6zbOgLPN/tO0puFwQNG8m8z9oXqf40qswRWAYGt5FtDfS0jgO9ObuVf+5oX1eebp/E1FfBh6SMFICp/3m6nwgmsjU2/4RPlwOVINg/OZrKbzXWDCu3h5SiCve2MCk/jO6AlJJtXclqlYGn96B8IbFvMWcA9CnzTK347gfWWrfnzcT41m9EqyQmBw2kxxXSE40WRQY6ekmXa33z1WwIrX6QimBdwlzo5V1A9shGs41Wl+m7y0dlBuqvL/AGFL3xj4mwejAwAa8gioBG4buFTJOLnVx0YOQLLuYkFF1UO6Xvjo/egnM+GdxQbYlQqmcDygzY+f/K7Q1xtaaruWPcBXHVHaUoOk3YdYc2WkfiB2ZafWT/NMfVNzJ8R3u2xUIGoLGWWwCogHptbWKBgdiXeGupzGQG/al7Fl/qcF9GETS1cr+B/V2I6SyUTWCheGLiMv44oTH2a6ZzF+Y7Pv4qE+DLuIPv2M0qFSIq9w0L2Nrfa1ud9BtlOCBWBrYs5zoGFUXRhPRKBdaTF7FnK6KwwNxDORRinFCMF4qpC0w0tgRXqlixFmesLfxs7iftLUVKIrGyjgR7Wosj2JXfgAMlkb9/z+tLT1+cifHX87MqpMdqXv/bzGkHgxsd+hKM+XnWr0QSWo77OrRf/Y8X4fu0j/x+J2D9aAqvAiHj+s9x4yp8XKGVu+p3rPoVS3wjVgM5BX7VlJIhZzqQ7vZHvX358qL7XsDKzwagx4LZM5XMoviQRnJyHDp3i8eYV3BS63iIVbj6NeQS5K/cV14mwwgmsJwYuY36RsIcu1nEBH3EdvhAmgaWvcu1vZ2QEBFZrcytXhQ6KVWgROAoCGx9jVEOM56PoaJsvgfWWu6JTgZfhrob6YQHvC+DTIkzQqct9FcyOMuiWwIoS7aPYUtR7wofjJ0bXyVVeZwJZXkTR2RcKuv5VJh1Jzbf/M24WS/ryx35uEQgVgWsXfp26+N+HqjMqZRn/J9x16UeiMtennWsXXkcifqclsPpE6m0TxEHkZ1x/8nWFSBmde8e6r+KqL4RqQ/8uWqsJLMOjI/UCP7ribMNWaka9JbAKCOXWacwR4U7B/IleAW7lO3VVcyv/K9/Jpue9cSrTHDdXVN4SWPmDrUsw/3TgUm7NX8TszK7p6AfXJ8JMPfID3PZ2hinHeBLhQ82t0dZuMRsNq70aENj/CIN663lVCe2m/S2UwDrcH01obV/CGAUnBgHTHMV7RHES4JfzdpYlsEzvnDz1C00I56qT2ZynRMnTZAOnSMBSRR4E1h56MpkQbwcf2fuYr/jUxJm8VPLirAKLQCEIXLvwb6iLR5q+W4h7R53blX6RH1yu0+krY1y36EMk3J9UhjOHeVGpKYQiLkrdynUnfq1icLtz3S0o9aFQ/dG1r9ZvG44u5m5q6JP7dPbH3DPvL0yZqDW9BqNRa1DB66dzpuvnrsr3eXW9Alff3tzKOZXi1/ppjK0TnrIphAVFRCnFgqZluZpTFTE6L+RbCnQNhtBqYGWyJDq7GRzBDazvNLfy7YoA0jrRbxBYdT+JwcN5RRFJcek/FHEPC+CdTzFSMswJHC4KAsY4isECdVESWpbACiuaJeoREns9Th01JbqGAPIaFxBwH7pm21GGfiDt2U2PlzVMYCmavCyXNM/Bdo4qcTtZ8QIRuH7RJ4i7PyxQqjKmp70D3H3pCKiQ4t/XPzyPWPxhoyRFschXLIGFi/BFbjjxR8UuLXS5O9f+AOWE2+iqNxVn066hRveGTqtFvsztl0TS4Cd03Mug0BJYBYCeI10CllVSKkUB7vPD93Py/PmVUaR3w9kMSiRzXR1DIz4KweJocys4hVA5Ll9vXMKisNZaqp7O6fxcCaG2cU4mGdCbYkCpvvUlr4R/m7iSe/qaZz+3CISNwO87ET79+06E5vf427oQhr0GXQz+c2dQn25iUL1wgQif8OEkJXSafkZaAivsaBatL8sJnKpUdM9xby3XuA46berovx0UsnMHPYFv+DePYpij+LMxM7Cdo4reRlawKAQ+vfASBsQfQXeCq7bh+VDXNYD/uDpZEa5/5uHzaYgvQymzhbqLWWwlE1gEH+D6k5cVsywjMneufRzlTAtV977OAew+0GSUwPIDUMH7uH2uzkyyIw8Equ+PXh6LMjXl9TMY7Gb4HYqYKRsG9SZSA2k56Rm6DNrIW/XyM4iPyLAChdm2pHl79D8TK5jA4veFa786cBkV8bDQ6UXdM/gNEm4Me3poSmWoLyJ0BYn4ir87bgU/L0jITrYIhIBA2xJ+KoLxYp2lphAWstS30g1jLi2Bz6kCfyZwstahQr61bAmsQiJjbq4IrzsncYk5C3+qWV7jLxFu7MumLre7awddgW+WXBMYUl/HaSPfWxm/rfrCxX5eQwh89JfnM2yA/j1YeaRLXzCnsvre7ihum7u3r6mRfP6xX53JkAb9fhePxF4hRiqVwEJiEJzDdadsKGQ5RufevraVmBPeobpmSbbsHkx3qs6o376AUu/l9oufMWqnhpRbAquAYK47kYH1dfwG+m7fXIDaSKYqaIy7vGfMK2yJxGAfRpZOJzZ5H4twOEaERqXQX9+KuI1VaQSWUrgiZETR4xP/u6HLsq9WQgw3Tad+pPC0hFzHrKuHQZkMiQjWeH1zqy28GwHO1sRhCLQ9yS2iwk29PRLIURJYR7J/8GmGdmW51IG5IowRaFLkvtt+KZvCEliloBeq7BJ1IteGqrEPZfIaX0W4pi+bmsDa2UaXBGZ/Vwgkdm/k3WdeW5WlJfqC0X5eyQh89qE/o6HuOajAW0N94dbrQVP8FG6+aG1fUyP5/CMPHk9jw0LqYhOAOnTnuUoZlUdgacI0SyCdBPIebjx5f0VAJeJw12s7Qr2R6DjChrahpDNm30kCEWK9k7n5fZHVk6yImJXgRAV9Q0tYRUSiu1poTMFiYGhEJsM004hwVfNKng1TaSm6dpzBgN40wx2H0xzFx5RwnhyqC1PSy00pPmnZiiCw9ONB0DF7XcGDWcWzWdg3chk9EdSGygvCjjkMc1MsE8I9ee7oZKjnh3ur608WpCAmfGJcK8/ltVg7ySIQIgI7FvOZQHEjYvZvXbkJrLdBpvYspbE3w8h4jHN+39PngyKchJAsJt3QElghbsbiVdUFAT9wT+afildRuKSs4xYUfdY4EZ1CuJ0uMXwsJkLn+NnMKHwlVsIiUCICf7noRFKsps6tuEyGPlfmBRBXF3LLHF0Lt/xDRHHtk4NIdR1DQ2IOHp8i5pxGXQUk3FQKgRWILnvwOiL3gfcImaad/PWkjj7TuaOK7t3LByMD9SWNdGgmdeH2NZuHh51p8if+BdJDd+84fvi+g6H5XuOKLIFVQIA3vIu6xAAeFxhdgFilTI0rly9NfIUHK8Whw/3YdBpDlMd7UJyO4jRgSu4kJOQbPn2tvxwElr5lFQi6SPsbwCpRrHKE55uWsasvf8v1efICJvmKX1UlgSU44nLVpFepiNts5YqhtVseBLYvZqbALcrw37YKIrD+BOiNjzGqIc45IkxFMRU4UZ9B5oOJJbDKsm/rENoDlfub+aojvLB5Jy9NmmG+GcHbV+uv415HcW5fCGR9ZM/OcA9XjmRTwbqxs7Cdo/oKiP08fAT+6tFj6fK30hivAJalwOXpotWZ7GXcc9nCAiWjm/6FJyZwsPcC4u7ZxNzzcFULjopFfjurHASW7jCos/9FbSTgeXz/ReKxZ9jz483Mnx9EF4QCLH3/tcmkgldwlL4IEd5YvWmU8UuOXrCPjn3H8V8f7QzP8drWZAmsAuKbq9uUzRXQHl+AWEVMVQrHD7h58kruqAiH8nBiUzP1qolLgY+jmKwcYhJQhzJ7ayESAkvlahZ4uX+KPQKP+YP5+dBfUjXse89sThePe3R6Yx7hzHvKwYMM88V4TYd6cbhw0qvRtX/PGwA7seYR2LqUKU7Aj013tK1kAuvwIK9aStNwYa4vfEAU4wlwUSTUEW7kWgLL+FdEl2XXpaFTCJkAVgYed8enUPb6HME67lf6kKuPkckS7N5Ft9FMIEE5MZaOmc4X+/LHfm4RCB2Bv1o6hK7kHhpjlVe3KZ/FdiQ/yo+u/K98plbEnM/9egRZdQ0iV5FwmknEhuZqZulbOiZHFASW/nuP6IqBKQL2gP9LgsR9fOH47SaXFqruBWsvRDm/QoV4AysQxepNIzF9ydGXHUjHiSy4ujtUTGpYmeFvXW0hJ1fhblnPQ8C7qnFlSvGLiSv422rzXZe2O3A2Aw+mGB3zOQvFh0QxVbdtl0MkUKjDGIF1iLSqV7A7UNyP8LvAY/fgY+lUD5gl5UIF6E1lXRdwAQ7fQsLt8nTgIMN1QWgTPr+lUwmDUgmmnviS7RxlEmer+8gIvPErjkk08ZjpdOlqIrDeQkp/9994kkF1imN0IXileL+Ck+VQIfjc33tLYJn5Zol+Pgk6uWeJKB7MCuvq0+xR0+gxY7FwrcFaHlUOx/UlmUzh7dtLr0kCSyCmAv5t3EXc25c/9nOLQOgI3PRIHVnVRcKtTgIrmf0rvjPvltBxMa1w+tIYk5JDiclY4FL84JO47ruod5URMssUgaWPKALRDZPaELkXcZ4kEd9K25b9zJ8R+ruV6bCwYN1HcbgVlP6tEM7wfYfVW0YQM5ylm/HXM7r+NObPCPf2WDgoVKQWoy+JFbniEpzSRMrWFn4i9H36V4IZc6LCb5tX8mlzBqLTvPN0RiZ9znHhXBGmKThBDnU0LPkPV2gElsJROlVNsQ3QhSpXeA4vDl1SGYX0S41WzwyuDAK+VKqew+WjILAQBqYynHjSevMpJmHjY/VVPwJyN/Ht7+IZhdlab9VIYB0pujuWMgI4U3zOChRTlOCPm82Hy7ETtj/JV1B8oK+6H4Egx45hYMw1fpu0eBiEhG4OgrBGhJcDeCY2nJfUKCr2FFjW80I+dUi7Okl3doZ4En8ElHUBd1e4Ycxsni4+CFbSIlACAp95+A0GJCaVoKF8ol7wdRZc8o/lcyBEy59deAJeoNMN34vDWTjqRBzHCSXdMDQCSxzEcZFA14l6BT9YTsJdwrUnru/reRYiUuZU3bH+r3H5yqEzrpBGxnN5bdtwHMONPnszL+OMPod7ziz5HTaklVe8GktgFRiizS25FLzZBYpVxHQlvDphJR+qlCLgYYKiO+LFDvL+QPg4PseJg4cQK6ZAcAkEVu48Q6deiOJA4LDQzfKzgU9TGW2CwwQc6LiQjzlwXchqOdDOcE0Wh633MH2xbo+Tp6wJN/3RsM9WfY0gIEuJbQ9YorvDmlxSrRBYh2Mk9+Oqq8tza7XKCSz9d1WfrKtAWB64/Cj2Lp5QOmGwSoa8xkoEfWvgnYeCA/voTSbDv6F9mNG4E/DBMRflDqjssAhEj8AnHlrE4PpLojccgsWUdzP3zP3rEDRVnorP/exYgrrPIOoviKkxJNzGXLfIYn7ZFktgHUoDD5BcL9ZOhPsh+x0+P1UfqtfeuHXtt0k4Hwt1Yb3pOJt3mW/c1us9y8Xd53P11WVtYhYqdoaVFfNVMuxSZavf0sJ8oTwnvyUjI2yceBJXVGO6Wr5rnw/OZ05iqJdgoqM4C+FKEabonGjJs7thgQSWfkAMULBdFI8HDs+6PttehH0zlhn/8ZwvLEbmdV3I9cBHw1Su04f0DawwdR5Jl4KDE1s527Qdq98icCQERHDbluRSCI3+MKpVAqucu6rqCCzJ1Y30AuFFcfilq2jFZysn0V1th1mbllLfPIaVfcZfwZ5d9GSzhklOhSMZZo2/hAN9+mQnWARMIPDJh+5jYH2ov8NMuHlEnSnvx9wzt7YbIMxfGmNP5lgywXE4wRw8+XNizonU634leY5CCSydFijsQNQvwF9KnbORoHs719b47Z4F636Ko8LtCNuTirNlt9Hfabld4PmLueOSi1Cqag6T8ty9xqbl/wUy5kJ1KX5jGje5AV8QzWpX2xB2dPvM6W+3TrZNYywBF/qS63B4AooJgK4ZcMSrmkclsA7VsdLH1XuVsEnBqzGXp+ou+P1/z6/CPVHCHu6czpeVcEUJKv5ENBCc9oMMC1PnkXQ5sGpCK//LtB2r3yLwDgSW07aEXwK6hoaxYQms8KGtAgJLP9t0zao3AsVq8XjKbeRZNZH28NGIVqO8zglkebLPIr0KdrbRHQTGn8nero2898xrSy9dEC2S1lrNIPCFR/+BQH0tlFS1qEHRL+0LLq3KjJaioZovDrseP4VMdg6OOh/XmUJMTcx1N3ynYvBHJbB0WmDuvaQNn/X48jKJ4FGuP/WVon2sRkERxT3rFyLqjFDd7+ypY/u+waHqPJKynsyP+N5l1xi3U0MGLIFVYDA3n86lymeBbgBboGj5pyv27BjAxec9S7L8zpTPg1XTaRrUzlW+cK0SxqLo1Slrb51GH4nAUrrTCPT4il94ws+HL6N6OnMYgrp7Ot8U4fww1XsBsY4OhoSp83Bd6lCsn5zQyg0m7VjdFoF3QmD+fJxPX8D9SjBau8QSWOHvwUolsHQBdqA1CLhrnX/KY1OmrKm+3yh9hMtbw1zX5S44em0rfYTdtpUupV/tDA6B7o0Os2bMqO3b1gYhtKpLReALT1yJ5/+SmOEaPaX6eSR5z3+RBZeeZUJ1Vem8/uHJBOozeHySmDOchKvLn/zP+/kRCSyJEZDE50HiwR1cd8qGqlpz2M7eLy771j2J45wSquoDnQ3sah8Yqs4jKWtPfoP7rtT1u+zIEwFLYOUJ1FvT3phCi+vwiBw64ay20d4Bs6a1VqXvoWMt4Gw7ndF4vMtTnO3AxQpOSiToGtiU+4G8MxCeVsLzXozXX+9gx5kv2ZPWtwLRNYMFBEwLMzDpLInubgaFqfMIumIi/Mukldxt2I5VbxE4IgI6VbZtCd8HWkxCZAms8NGtEAIrLgFKKV70HR53hVe7Al4fdDL7w19x5Wj01vMxF772VjfKd/JMBNm+nU7n7S+BBpahYP+Y/VxarnpsBpZkVVYbAtcvOhFHrcOtQgIr7b3O3XOrsqu7kW3yueVx1M5mfOcUYs7FBDIXaGbssF5GDc0iQTuiHgFZjLCKxvqtfHKS7Vqng3H/qgR73adwnXAPBfceHMDejiYj8X670p7U3/K9K75l3E4NGbAEVoHB3NjCqDgsF6rvFpMIKS/J+cdvpLPAZfeb6RunML5xAOc0DmTFwGG8Xsv1wkoNavcM7pWg73bmhdjpSdGYStJQiEwRc+sk4JpJq1hWhKwVsQiEgsC2J7ldKc4NRdk7KLEEVvjoloXAEuL6N4eCtkDxhgiPd2dYPKSl+tMCC4mQv45vOSqX+n3Um1U6dXD7Nrpct6iSyYW4tH3sTN6nqrGkRCGrtHMrF4HrHx6Km9hPceXBy7uurN/FgksG27o/7xCGq+53GTlkKkMa3sOYY5az78cvMn9+9ZWviWKX/fu2Bhp7n0MYHaq53e2N7O802mwHL4A694P8x0X3h+p7jSuzBFaBAV5+BgNGZlkphzr5VNuQTuHclpX960dvtQWpWvztvpCFQnjpfo5CDnYyNOsRM4xBIhHnwjEvsdWwHaveIvCOCLQt5hsCF5uEyBJY4aMbKYElDEax3hf+tZ0RS0f8dF9Pf6u1+PYIynoeBk7sK6pZD3/XTnoc879w3xg7k6urqYtjX9jZz6sQgc8v6sV1TR/8hQ+MH0AsPZpbrtwdvnKrsV8hcO+uRno6XkSF2ARKFxvZunsQXcmjd70tFeiUB3E5hzvmPV+qqv4kb/7xXntoqi0ttAokqnBpsazL5ce/wpoq9N26XEEI6BSo7un8BnDDcksTWAfaGe4fKkhpbgjuAJ/TRq2h25wRq9kicHQEti/hbxCMdmCyBFb4u9AggRXLFeN1WBEISwOP1oxiTeMp7OrrxlH4q6xMjbKO36EY2Zd36TTevr309jWv1M9F8eq4mXym2ro5lrpuK19hCFz/6A7izrEV5lXf7mR8/eJ+KrfNte8kfaNlZxwNgVs3DCLmv4qjwrst5TrC+m3DyXhmD9WzPriZsdx+5Q4b5PwRsARW/lj9YebmFpaY7h5VhFv5iMSDGJ+Y/DJP5zPZzrEIvBMCnbMY7vgsEgmvJpgmsPa1M0KTY0aRF/zmlYRb6NGow1Z5LSKwbQkfQfiSAt/U+iyBFT6yBgmsr3c7LBp4PHvD97r6Ncpy4jTxMipXrP6oozdFtn2f+TIPAs+Mn8UX+vLHfm4RMIrA5x9dj+ucYNSGCeWawKp3ZnHzHP1OZYdFoHgEbl87HFetQqnwDsA1gbVm8wh8Ce2g/ogLDIKAEdmBzL/c+KFL8QBXnqTZF8XKW28oHm2Zxk9FOD0UZdEqiYvi7yat4L+jNWut1RoCB2czOebzgASEWkBy/wFGYbieiBI6Jq7Edr6ptU1ZZevZsYQ5gfCvEB4JfDgElsAKf1MYIrA8dSInh+9t7WiU1xlMlldRfZdv6O0l034g3GfTEZEUHh03m6/WDsp2JVWJwPWPvkrcCbWhTiQ4+LqVEjdw25w7I7FnjdQuAgtWtuAkNBEa3oGgTiHUBJbprJCMv5+7Lh1Ru8ExszJLYBWB6+YWFgCzihAtq4gSnMDhvkkrcl187LAIFI1Ax0zOcn3uFMJ7SRBQB/YzEgfTRSrbmluZWfTiraBFIAQEti9hmgTcr5S5VFZLYIUQqMNUWAIrfEzz0di9itGNMZ7Nh8Dq6ibTeTC8Z9M7kFdK4EfjZ3NLPv7bORYBYwh89pGlNMSmG9NvUnFP+l/43uVfNmnC6u4HCNy2cjqx+IMoFR6BFYhi7ZaRaCLL5EhlV3LPPKMdqU26Xy7dhqNSrmWZtbt5Kl9HcbVZK4a0C8ubV5qtu2LIc6u2ghDoms4HRPg/KsRmBoHgtB9gRAQE1uvNrej2xHZYBMqGwKaljI4HuU6YPaacsARW+MhaAit8TPPRmFzDxPoYT5BHivnBDlI9XWTy0VvsHAFXhG9MmG1vtBeLoZULCYHPLvwlDfErQ9IWrZqO5Pf40ZWfidaotVZzCCzY8FGUf3OoBJbnOazbNgInvKzEI+LuBUtZcIk9VC9wU1oCq0DA9PQ3pnGjI9xUhGjZRUTYMmml2c5XZV+kdcA4Ap0X5mr3/HmYxYU9n1hnJ0OljxbppS7OgVUTWnOt2O2wCJQNgR3LGRB08JxNISxbCIoybAmsomArWSi9jpaEQrcZ77MeSXs7yd4ec6m5ucWoXCOfvxo3k8UlL84qsAiUgsANj/6YmPPhUlSUTbY38yTfveyistm3hmsDgTvXfwOFeTq2MQAAIABJREFUJkLDy+BIpeNs3DHUOIHlBz/jjks+UBuBiG4VlsAqAus3pvExR/j7IkTLLqIU2QkrmGq75pQ9FFXtQPd0vinC+WEuIpMl0dXNoDB1HkmXKH43aQWfNG3H6rcIHA0B3axg+2JeUMpc1017Ayv8PWgJrPAxzUejbOAcfO5F9dHkQ8G+ffSmk33XysrH7lHmNLmK9x87k9Ul6rHiFoHSEPjcI7dRH7uxNCVlks54axjdMI35M7wyeWDN1gICC9Y9iOIClM7sDml09NSxfe/gCFIIb+WeeX8Zktf9Ro0lsIoI9aapXKkU/1KEaNlFFDTF4xw/5iXzLabLvljrgDEEOmfwfRVwYpgGUmnqe3ppClPnEXUpHmteYTtHGcfZGugTgW2LeUyBseKdlsDqMwQFT7AEVsGQhSKQXcvFMYc7+lSmUHt20pX1QjyJP7LRAck0Fxw/13aN7DMmdoJZBD7+y68wZMD/NWvEkPbezEYG9rbwH1cnDVmwavsDAretXUbcCbcRyu72RvZ3NhqHL+39LXfP/ZZxOzVmwBJYRQR0S0uugLsuYB0e01uEH0WJKIbG6jh53AvsL0reCvV7BGQ6sW54AGFUmGAk0zT09mL+YQEPNLdW5w3KMPG2usqPwLbFfEfBu015Ygms8JG1BFb4mOaj0VvH1a7i//WZtq5QO9rolMD477O4NHD2+POwL975BNDOMYfA9Ys+gev8EKcKX+l6slsYoFq4bW6nOYCs5ppHYMG6rTiqLtR1tu1roqNnQKg6j6TMlxu4w3biLBTnKvxrV+gSw5+/6TROcwJ+Lgbbn4fv9ZsahSGBx1mT17LFmA2ruKYRkEup6+rlFwoGh7nQZJIBvSmMPywU3DmxlZvD9N3qsggUg8D2xfwzcGkxsvnIWAIrH5QKm2MJrMLwCmu2bOCvCfh8HgQWbdvo6nNeiY4JeONncY5pOyW6acX7AwI3LpqDz6PE+ywPV3loZLzd4LZw15w9leec9agqEPjXFY001u3GUeE2xNm2ZxBdyXrjGCSzH+Q783R9RzsKQMASWAWA9dbUrVM4LnB4Csy1Py/CrXxF6sXhykmv8mq+AnaeReDtCMjFNHZn+CUSLtnU00NTKoPph0XMhy8d18rPbFQtAuVGYPsS/g7BWPFOpWiSFLPGTmCPmmK2K1u5sYzKviWwokL6j+34a/m24/TdOCQQZGdbjsAyPXaNm8U800asfotAnwjc9MQ5pLPPUh/rc2rFTQikg450C/ddsbXifLMOVQcCt748EqdhEzEnXAJr864h9KZ1sw6zoyM9hx9d/rhZI7Wn3RJYRcR06+mMEZ8VAgeKEC+riAKlFDdNWMFjZXXEGq9aBDrOZZhTx3+HSWA5CunoZnAmk+vsZGwINDg+H564mmeMGbGKLQJ5ItC2hE+J5G6VmBxJgQ4H1kjAz777DC/Mn2+8PpDJ9ZRVtyWwygO/rOde4Ny+rOvaV7t20h1BNtXz42ZxQ1/+2M8tAsYR+MITE0hnt1BXlQRWki5/Kj+a+7pxnKyB2kTgO+smkaEVV/WGukDdgTCTjYeq83BlfgAOZ3PbJS8YtVODyi2BVURQ957IwJ4EG1B0FCFefhHF3zWv4Ofld8R6UI0I9FzEGPG4T4Lwbks5DnLwIEOyPmYfFsJAF+aMX8nKasTe+lxbCGxbwlwlfD2qVQnUK3K3U55D8bIPq+uyrBs9h3BPLqNaUBnsWAKrDKDr3ujrWKYUY/uynkrj7d1Dr2kCy1EsHDOTf+zLH/u5RcA4Ajc9UkfgdOM61cdgBZIlk2nhnsvXGcfJGqhNBO5adybCYpRKhbZAQbFx+1CyvtnvVNqDhvgp3HzR2tB87yeKLIFVRKDng3NNC68BfhHiZRcR4Ztekh+/ayMZVY2F6MuOYP91YPkZxE8YxGQVcA8Q2h921yHYf4ARvuAYRVcYKPW8e9KL7DJqxyq3COSBwPYnmYHi23lMNTVF33h0EZ52XL5zYC/r9o4kNWMGtqX5OyBuCSxTW/HIeuV+XM4lQQ+voOizyE9vL5n9+0mZJrCU8N9jZ1dnN+poI2itRYLAtY8coC42NBJbYRoRgXR2Ju29z/DA1VlbUy5McPuBrruXx0k1zKUu9l19zhHaikUUG9qG4fl9PnNKstmTgYHuJG6+dHNJevqhsCWwigz65hZWQHg3UIp0oygxJXgo9ivY5sPjdXEWjnmJfUUps0I1j4BczoCOLs6LCRcFiskODBch1G4fjkOw9wCjjPeNEtx9CU4+8yX0DyU7LAJlRaBtMeeJ4lb0aV95h7YfU4qOQNjrKta6LgtHDWe5rZ31x4GxBFY0G1U2cGoQcIUKeI9SHCMwVKm+nxAdHaS6uyKo9xZwy7iLcmmNdlgEyo/Apx5eS1PipPI7UoQHXtCFF2wi8FeB+hmB/wTfvzKKOnZFOGtFyo7AP61KMErNROJX4AQt6Ju5SoXbAEopWLdlBL6YPVRPZmFYYgjfuqg6M7rKuBnK/aO5jEsvzfTmFhYBk0vTUhHScQQXh5UELMHhFcmytnkNu+3trIqIT+RO7D+bQXUNTPYDTnEczkV4t1IkRAy+FChk/wFGRrDYbHMrUyKwY01YBPpEYOtjTFEu9ykV4slhn1bzntCgG5UoeD4IeFa5rI5l2djf0w0tgZX3/sl7oiwnzmAm+D5TlMO5KmC2gtEodEqI5K0I2L+PZCpl/oAiCPjKhItsLdFCYmPnGkTg+oWLiMcvMWghGtVZX9+j0SntT4M8QtJfTqNax52XtUfjgLVScQjcsaoJ5Z4Icjo4s1FciFCPozLGfNU3sNZuGwFilifJemn2dTfywNVVmdFlDP88FJsNTB4OVOuUTdP4lgp4P5X54lE0rLrIu8BgBa8FAbfHBvLQ+GdJFq3QClYFAgKqa2buxeGTwNkiJBXRphHta2ekadJUwe6JrVxQFUGxTtY8AjueYILvsEiRe1Gv7OEQJ6BOCU/HYnxv1IU8X6HEm1EcLYEVDrz6mdOzklENcT7nOHwcn4E4pXcP1PWvMhnzzy4J+OL4i1gWDhpWi0WgRARueuwulLq2RC2VJ66LXKcDwfcfpy72H9x1yeOHXlPsqGkE5ovD2NfeQyq4iZi6BBwPJdFlTog4rN06wjjGvZk2vnvZOON2atCAJbCKDOrmFj4NfIWIX/KLdLdYMX07KyWw3XV4zRGWZQKenryK3cUqtHKVgYBOC+zqZZrymSlwkhLGKmiUQ3XdIv9xEAS4B9oZphyzthU8O7GVayojCtaL/o7ApqWMjvk8pVTpL+4RYplLNxTodmBbAGsFltQ7vDxqBt0R+lEWU5bAKhJ2EZVar06oU8wDdNHdiShGv6kttNole/bQk80Yrk+qn5DC58ddxHNFomHFLALhInD9o98k5ny57Mno4a7qj7V5IgRBO36wDp9XiKmHiDX8jgUzav65YxLWitB964Y6XP88Ai7BdaaBHIeSoTgqQMy+Fxxx/RnPZeP24Zj+QnWknuJHV1xYETGoMicsgVVkwLa2cEUAt/yexDJ3hbFI3wyKJXLnHooVCAuV8IooXp+wkoOmb84YXFO/UL3jcgYM7GCiuBzvBFwoirOUYoAElXHzI5Ml3tnJEJME1pu3Cx9obuWr/SLodpEVj8CGRxjUUMdyDnUGrN4hNKBIoniRgCdFWB8PeKMW0w0tgZXfNhVdmuANxnoexzvCuY7iEoRJuX1i6JBEAti1m+7AN56S6zoBHx5zEbZzVH7bwc4yjcB1j9xIPHab6fdt08soSH9GpxtKO8hSAvUrvHQrA7IbWXC1JbQKArIMk//9dw24Q44j7pyMCvQNq9mIGoRTIe/U3ckEW3YPQdfCMjX0+3Q2ezd3zbvOlIla1mswMrUMG2xtYUoAv+5nBNYfgvomGaCZ8QalaFXC9xYlWHitLY5dURu/ZybvFp+/QPGeQAgqlWhMpanv7mWgSf/0nvXgB8e18o2KCpJ1pt8ioDustQ3nRVMv9OUAVv+oEEGJIu4onvez3DthDk+VwxcTNi2BdXRUO1YzrCnGNQo+hjBU6UM+lesua/xmrwiya1eOwDJtq0HFmDP2QraZ2GNWp0WgYARuXHQFjvurguVqRUB/4wPJkvKS+MEjNKgF3HnZ07WyvJpYh64rtWD1NALnRmLu5bk1VSoLsf/gAHYdbDJKYAWiW+d8kZsv/veaiG/Ei6jUrRMxDIWb23A2gxJJlksEP8oK964sEgmdbqgUGwVaBZ52hOcnrsQWXowoHHIKiY7RTHGF9xIwRSkmIQyWQ2mupn/Ql7TKnh6aUhmzXT01gfX71Kd/nthqO0eVFCwrHCoCW5/gt46DLphec0MTWSjiCnqU4nUJWB0oflu/n5dHXV2d6YaWwPrjbZpcS3O9YhbwZ7l0dHKpgfp5E3lR2iCAPbvp8s0TWAMzwvmTZ9tyCjX3R6taF/SZX09nQGIxKLNd06oFH107K5C9eMEKAnmehPMEMZ7jtrnpallC1ft59/I4/uAzEH8WijNR6C6Zo3CU/gtdue8k+k1hx4Em2rvC7Wx4eEC9ANzgo9w297+qPtZlWIAlsIoEffkZxEdkaYXcyaIdhyEgUPfmbZrnBH6lAlb4deyY/BKdJm/Z9KdAyLk0pBoY5Xm5F4Y5wHQF9VINBaEPC1RnF0OyHjHT8VMuN0x8hcWm7Vj9FoF8Edi+mIeAsfnOr/Z5CupEv1rA867DwrjPGurZOfK91ZFG2Z8JLBEcXmdE1qc5rrhQAq4EJimDaYGF7Hf9zrp7F12i74abHEJTwuWM/lDzzSSMVneICFzz0DkMrH8aZf53VIheR6fqULphB8ivUc5PSHsb8BM7uG+O7nhoRxgI/GBTPcnsGALvOFznMoQ/BzUYlbuFa/Zvchj+v6XDcYSNbUNJZRJhqv0TXb6Ay5ncOuclo3ZqVLklsIoMrEwntuVALvXDLENbpH+VJJa7+SK5W0COwBoFCyau5MlK8rGafOmaxSkIn8Vnmi6m/OY/vYTqeUAcBnhUBBYBn2xexe+qKd7W19pGoO1J/kUUs6v5+1tChPRvEH0O6bjwmsB3x87MFbXXz4uKHP2RwJK1DA8UVyuHDyphNPpmnX72VFgX5iAg2LWDbtMPQt19c8xTnK3mG6+1VZHfAetUBSLw6YenMCC+HKXqKtC7ynJJ3/4Jgl5SfjspbxlNsVu4e56uRWlHMQjcvf4k0sH1OGoeLvUoFUMfdlQTafX2dWsCa82mEQS4xcCRt0wgAWrvUG77aGfeMnbiHxCwBFaRm0Guwt2yPtdCeVSRKvqzmL6d1YXKkVmrPMVzTRmeHbWmOlNKTAZSE6UHYUpC+DNRnBLASY4wQmqsecDBgwzz9QPP4FAQeAEfO25Vrmi2HRaBikBg2xI+ooQv13hH2/ywVugTT30ivl6Eta7ilZ4Uzx4/l4r5gdcfCKyedYypE6YrhzMUTEV4l9LJoBXeddnzCXbvNP87QqfEjp3FBfltajvLIhABAl9cOJFuZzV1bmME1mrLhD5CCWQ7XvACnrxAnKdRo1/knjOztbXQEFazVGKsX30qnjMD5ei0wKkoxqGU7iQbWjfZEDwtXoUu3L5680jjFbr8IEV2xCC7z4oLlSWwisNNX3Vxtk5lkSiai1Rhxf4HgUSuUgosEZf7Jcnarjj7prXmXmT61Vh1ComJ4xgS+Ex0fC524BKBBhFqOm//wEGG5+rlGBxK8H3F+ya3st6gGavaIlAQAjuXMt0LuF1R29/xgkD5n8kxdeimz/MS8PNYnNVOwN5ypm7VIoElmxiCxxjfc9/jKP+DCk5B0VtttwIzGfy9eyL43aDYNG4mHyhyT1sxi0D4CPzvx0bRnt1IY2Jg+Mr7mUadbugHun7vfyPBfxNjA3F3X7+sn6XrWPUOGEFdfCLivw/k/Sh1DI7S3WRrcwSiWLt5pPFycl6wH2/LsdxzrSVKi9hJRl8Yi/CnakTmg/PJqfxaFO+qGqcr3NE3Uw01lZUSSCthpYrz/fEv8VtVrVdR88S84wKOF4erXcVZBDTBH4o6m86GyNNDc9M0cXWgg+ERJEDGiPPe5pfYaW41VrNFoDAEtj7GFCfOT5AKaR9dmPuRzNZ/I9ShhIS0vn3qKLYG8ONUisXHz42W+KsVAkuWM9gfyJWu4oMijFWiUz+IV/MpejKFt28vvY7ZX7Z6Hz48bjb/GMnmt0YsAvkg8OUnBrMvs4XG+OB8pts5eSAguTZdkiOzssFuvOBxGmLf585Ldf3j2h63rz0B4SOH0gLVcESa0H9YK7n4elgR8X2H1VtGEDObQYgXbGZN3fEsm1GxJRPCgtSEHrOPeRMeV4hOAbW1hQdEX6+3wyQCh9INheWB4lXg+bo4rWNeyp0OV+XQ5OffzOB4B87Q3QKBaShGiaBZ+JonrA4Pmv4utR9kmOkbWEDC9Tlj/GoOVOXGsU7XJAIb/pNB9cfylCpD17ZqBvTNRiEpEVYoh1VKsVJ8Xhk3m/0m11WtBJas4Vji/FkQcJoSTleKFgQXlXvu1MTo6iTV2WmWCBaIK+Fr42bzYE2AZhdRGwh87u447vg24jGd+mSHCQRyvVV1umGwhaw8hec9S0P8OUa/sIL586s3fW7+0hijjj0On/NQcg5KnYXLhBxZpVTk3WRNhK4gnalMjI07huUIO5Mj7b3Kge4zeeDq/odxCLgajk4IHlawis0t3ANcWMEu1p5rQr1SuUfIoyL8FGG9n+Lg8RujPYUvBFhdx6rDY2AQY2wCZgtcqYQhouh5sxhuIepqca46EAGBpVORkgM57aRnqqPbWS0G2q7pyAhsX8zzb2vGYGEqDgHd0EI3VdGdb39cX8cKv4eOYy6mN8wbvNVAYOUOA1bTSD1DfXHPxvc/5eoDE5WrD1W9L1pH2xcK2vfT29trtgGAJk4Fbpgwi6eK26ZWyiJgCIHPPPISA2LvNqTdqj0cAf0GnfLAF32r/0cE3s+IOZthR0dFp4VpwmrQqEHEEqNx/fcRyIdwnYm4pPrFDau+dnJPKs7mXUPRtbBMjp7Ms4xf/t6qJj9N4tOHbsPRKePKIjC9ZRrfklybUDuiRiCXbqi7Giq6ldApwnLH5SevD+GVGcvM/oDNZ625W0WzGR8PuAKf8wMY4kATCkf3P8lHR3+ZEwiOvoFlfL2K5MQTOEM9gD3tMA62NVAIAtsX89u3pQ0XImrnHgkBhStCSunnQ8BmFL9qd1g6ZUbpBb4rmcCSPTT5B5mjAq5SMEkpdD2cen1voOY3ioK9u+jJZA2vVZHIKq6aNIN1NY+pXWB1IfDxhx5jSP3F1eV0jXir0w0D8UHtI+Vtww8eBn7MDy/bCKoyMivuXjWBwPkQvroURx2Lo4aCOJArwG7HWwh09SbYtneIcUB6s0v4ztzZqArZH8YXHK4BS2CVgOfmqfwDio+WoMKKhoSAJrREqENxQIQXgGdjwsvj6lirXjKfIqEJq9R0JmYVLUpoEThTCeM51C3QPhyOEmc/wD3YwdCQtsI7qlGwfWIrs0zbsfotAoUi0LYkd6PUpn4UClye899MN9R/i1cFwnNxh9WiWD1mBvvyVPGHaZVEYMlahnuKFgdaHIf3ik4NFOIos2l0hWIWyXwFO9voCgLDafiCIwM4b/x51G4R40gCZo2EjsCnHr6HpsRnQ9drFRaOgKasPF+TWq8RyBJS/tM01L3MPRevj4TQElHcvr4Z5N3E1dn4cgGucyIKzx6i9xHO9q56dh4YVHjQC5TIeD/jrrm2GUiBsL013RJYRQKnxTafzqeVx9+KsgRFCTAaE1VCQ6DwUfxCxfjPVDcbdh5LMowbWroLJedSl3QYmYkxz1VcBQxDIuiAZAyx8ij2fGIdnRg/7XACVk1Yxf8qzyqtVYvAOyOwfTH3A8dZjCJDICaKRgWvBnCfr/iNlyT5rkvJ9JVuWE4CSzZQR4wGP8X5juLTSnG2LmxfS3Wsit4BgrS1RZAersiOm8k5RftpBS0CphD4wmM34XMrrn21MwVxSXp1umEQ7MBR3yET/Bd+YgfHXZxkfgg3oOaLw7Ev1RNrGkJa9C2r63A5FoeUvWFVYNT2dQ5gT7tupmV2dKVv5weX32TWSO1qt3/lSojtptOY7gTcK9iTuBJgNC76+4Krjr4hpRTtAnuDgFdE8dPJJ7GmkHQyrWP7TMYM9pmrFGcpGC3CMFG4SgynLRhHqXwGMhkSXT0YPe3I3dCDXza38qXyrdRatggcGYG2JfynCCdbfMqCQEzI1f5oV4o3lOKxlM+y4y6i40jeRE1g7VpB4/A45zkuH3CEE0UxUh3qUlv7aYEFbAcRZPt2Oh3dx9jgUNAzdhYXGDRhVVsEikPgLxddQUb9irhTnLyVigaBIJdRmMGXHWS918n6jxNXD/DdKzYX3MjptnVjUHwAxUwcmlFqFFR3N9lognAUK3sPNrK3o9G4Hwd7/x/3/vlXjdupUQNGH/Q1itkflvXGqUxzHBahIjj1q3UwI1zfm2TGAISdKJYpeB6XNXsdNpz5tnRDmY+TfIpjfTgx8JkWU5wnwnGiSNsruOEFrDdJYzKVeyEzNhTERfj75pX82JgRq9giUCQC2xfz/Vw3UjsqAYG4LmQrilWO8DtfsTLmsObYGezXTcRNE1j7NzBokMepubRAxQUozgD0j+lUJYBTqT5kPWTXTvMElgi7x89mbqXiYP3qxwj85cKzybjPWQKryvaAJrSyvhDIKhSPkvKfIsFqxl2+5U9uZ926YRxOtgXlnIGSWTiO/t3g2VIlIcZ8x/4mDnbrhjDmhuYwe9M38b3LbzdnpLY1WwKrhPhubmESwjOWwCoBxAoRVTBAP0JyRRdj/NewQZytFB9WAccINi3QVJgchXR0M1jfwjJl40299eLwiUmvssywHaveIlAwAtsX821gRsGCVsA4AiI4uWLowlolfDdQTFMq17zlqIV5A0GOHcPAmEuf1yFEyPqKax24wdGdjQ+lBeqXEjvyRCCTwd+9mx7Tnc+VYsPYmXwoT7fsNItAdAh8/snhKH8fpr8E0a2o/1rS6YYim4m5dzEs/lPGjJ2NyF/jqGZc1Wu7BRraGrrz4Obdg+lJ1hmycEht1oc6Zy43z1lk1E4NK7cEVgnB3TSdenWANXorlqDGilYQAjrdMF6HN6iJDrFpgcYj4yiC/R0MD3xco8aEekcxb0Irq4zascotAkUgsH0JX0FsfbYioItaJPZm6l6fXaUKIbByixBilrQqPpzpNN6+vfQWryE/SaVYO3ambd6TH1p2VsQIKK5f1EHc1d1H7agFBPTtrJGDexk1JIlSNm3cdExdR9jQNoxUJm7UlCYoG9xzuGXO80bt1LByS2CVGNwtLbwiYPaqYYk+WvHCEEgkyAxspLMwKTu7KAQUsr+dkYb7RumiKG6mgXcf/7yNa1FxskJGEdi+mOuBzxg1YpVHikDBBFak3tWesd4U2fZ95uuRivDK+Nn2u1p7O6hGVnT9oq3EXd0B245aQWDE4B5GDempleVU9Do0gbVu63Cyvj6sMjfSHgxwjuc/Ltlozkhta7YEVonx3dzCYmBciWqseAUhYAmsCIMhOQLrGMx38sw2tzIlwpVZUxaBvBHYsZS/CAK+2FdaWt4K7cSyI2AJrGhD0N1NpuOg+TphCp4YO4u/jXZ11ppFIE8Ebli0nph7Qp6z7bRqQMASWNFFSacQrt48Esw2A8EXIdHRyH9cnYxucbVlyRJYJcZzcwsPAlNLVGPFKwgBS2BFFwzd2fHAfkbiEBi22t7calufG8bYqi8SgW1LcnWP7lCQLlKFFaswBCyBFW1AOjtJd3Wa//4IPDB+Ft+MdnXWmkUgTwSuX/QscfecPGfbadWAgCWwootSIIq1W0aiiSyTI+Xt5J65Y0yaqHXdhiNU6/DB5qn8G4rLan+l/WeFlsCKLtaB4LQfYEQEBFZbcyszo1uZtWQRyB+BTUs5KR7wENiOtvmjVtkzLYEVbXwOdpDq6SJj1KqgcLl73AzuNmrHKrcIFIvAZxc+TEN8XrHiVq4CEbAEVnRB8X2HtVtH4PTZe6U0n3qzr/LdeaeXpqR/S1sCq8T4b5nKl0Tx6RLVWPEKQsASWNEFw/OJdXQwzHgKobC6eSXvj25l1pJFIH8Etj7OGMdlKdCdv5SdWckIWAIr2ui0HyDZ22u2oY7uSCmKf5kwi59EuzprzSKQJwKffeQnNMRsl8w84aqKaZbAii5MqUyMjW3DjBNYGe833DV3enQLqz1LlsAqMaZbpnKtKP6mRDVWvIIQsARWdMHIZEl0dTPItEUFz09s5eOm7Vj9FoFiENizlKas8JyI+RSoYvyzMoUjYAmswjErWkLB3j30ZtJ4RevIQ1BBPYrPjZ3JM3lMt1MsAtEjcP2i7xJ37aF69Mibs2gJLHPYHq75YHc9bfsGGU8hDIJ7uf2ST0S3sNqzZAmsEmP6xlSuchT/XKIaK15BCFgCK7pgpNLU9/TSZNqiUiyduILrTNux+i0CxSKwfTHPAWZbNxfrnJUrGAFLYBUMWfECCrV7J12eZ7iWojBQAuaNv5gNxTtrJS0CBhH47MKv0xD/e4MWrOqoEbAEVnSI7zrQxIGuAcYNpoL/yz2X2O9pCUBbAqsE8LTolhZmCSwoUY0VryAELIEVXTCSSRp6UzSatqgUv5y4gi+btmP1WwSKRWDbYhYqGF2svJWrLAQsgRVhPBRqRxtdEpglsASavBQXTprHrghXZ01ZBPJH4OMP3cSQ+lvzF7AzKx4BS2BFF6K2fU109JgnsNLZL3L3vH+PbmG1Z8kSWCXGdPNUzkXxwxLVWPEKQsASWNEFozdJYzJFg2mLovj+pBV8y7Qdq98iUCwCbUv4TxFOLlbeylUWApbAijAeCtq25RogiEmrAondvZx95uX0mrRjdVsEikbgUwuvoSn+g6LlrWDlIWAJrOiL1KwbAAAgAElEQVRisnnXYHrTdcYNet4nWDD3XuN2atiAJbBKDO7mFt6t4Kdi+IdTiW5a8QIQsARWAWCVOLW7h4HpDEYfFgoUwrcnruSeEt214hYBYwhse5JvKrg4t1vtqHoELIEVXQiDAGlro8sx/4s2NW4W74luZdaSRaBABP7q0XlkeJiY4S5qBbplp5eAgCWwSgCvQNHXdwwlnTVbykEQerNz+d68Rwv0zk5/GwLmH/c1DvdrU5mcULnuUakaX2q/WZ4lsKIJteMgnZ0MSmfNElgIjqP4hwmt/DSalVkrFoHCEWhbzE0CnzR9i6Rwz6xEMQhYAqsY1IqT8QJkZzQEVtu4WVxRnJdWyiIQAQI3PTqNVPAqDbEIjFkTkSBgCaxIYM4Z2dA2lKxnlsCCgPbUhdx3xW+jW1jtWbIEVokx3djCqLiw4vedCDtLVGXFKwQBS2CZCYSjkEBQnk8s6xH3ssR1F0Iz1v5Ia33g8rHJr/BUBLasCYtAUQhse5KPqkMdbe0NrKIQrCwhS2AZjIeCwEcyGfxUGj+dxvMy+AYt5lQ7ipVjZnKNaTtWv0WgaAS+8NAEkrEtlsAqGsHKE7QElpmYKP0gEUhlYvQm4/Sm43Sl6kDMciMiAan0OXznihfNLKx/aDUbpH6A4YazGZRIsU4kV3/BjhpAwBJY4QdRk1a63lU2Q52o3NMhupd0YXCguHByK+vDX5nVaBEIB4HtS7mMgK9ZAiscPMutxRJY4UZAAjRDJakk2Z4uMpksvqOI7jesoJTDr8fO5J/CXZnVZhEIEYG/WjqEdKqduBuiUquqrAhYAitc+ANRZDIx9hxsoCtZn1OuyayoRsb3qeNUbrnUvpOUgHmEESvBywoWXXUKiSaXdSiyFeymda0ABCyBVQBYh09ViK68oG9WpVPU65tW+taV6DpU5RrCIBK8u/kldpbLBWvXItAXAtuf4Bwc7uhrnv28OhCwBFaJcVKowCdIJsn29uB5PoHofyWqLUFcBYrvTphpu06XgKEVNY2AiOK6Rfupiw01bcrqjwgBS2AVD/RbxFRXb4IDnfVkvBie7+AHTqSk1dtX0JPxGNY4nn+dYbvZFh/ZMr5UluB0pYlunsqLKAZVml/Wn+IQsARW/rjptEBfcHwf1/OIZbLUadJK/NxpdRnfNf5oDfXdwzh1yjK681+ZnWkRiBaB7UuYJvBdJdjqu9FCb8SaJbAKhFWB5yHZbC4l0E+nDqUFBopK+UIoUXx7/Ex+XODK7HSLQLQIfHrhyzTGT4/WqLVmDAFLYOUPrT4q90WRzMRIpV16knX0pOL44ugc8IoYvV6WpvQobn7fwYrwp0qdqJBoVil6b7q9uYUHganVvQrr/VsIWAIrj72gcvVHEskkTbqWlTgRpwXm4eLbpmSbW5lSmIidbRGIFoE9S3lXWviJJbCixd2UNUtg9Y2svpnrBwSpXrKdnWQ8j8CtXPpWeR5fbZ7Dor5XZmdYBMqIwPWLHiLuXl5GD6zpMBGwBFbfaOqbVpqo2n1gAN2puhxZFWVaYN8e/s+MjJ8hVT+YH86wzd8Kwe2wuZbAKgG8t0S3tPD/RLgKRRCCOquizAhYAuuPA6C7BQYBKpWhTtewCvRtqwBXv3xEWsuqyH2hhC0TV3JxkeJWzCIQCQJtjzFeYvwyEmPWiHEELIH1pxDnCKs30wJTvYfSAnWaoM4LrJTD8aNsDHHhhmNn8YLxzWMNWARKQeDGR7+Pcj5pc2xKAbGCZC2BdfhLiRAEis6eOjp760hlXTzPLWtaYCHbpSe9ie9dPrkQETv3TxGwBFYIu2LTNK5Twv8BvBDUWRVlRqC/E1i5tMAAJwhyaYFuMk1D4JNrKytRFl8Pax8Iv21eyafDUmf1WARMILD9SYaLYpmCjAn9Vme0CFgC6xDemqTSN6tSyVxaYDaTJagCsupPNosIQTzOp0ZfyMpod5K1ZhEoEIEbHv0HXPW1ir2BUuBy+v30/k5gOUrI+k6uW6Auvt7Zm6A7nUDXe6vGh0ln+hF+ePm8fr+vSwTAElglAqjFt5/OLM/ne0A6BHVWRZkR6I8EliatdK2RVIr63l6axMet8LTAvHaJvkSM4mcTV/B3eQnYSRaBMiGw49cMCBr5HaKbrdlR7Qj0WwJL5W5ZSU8X6Z5u0lkfKjgtMO9tphSBL3xowixez1vITrQIlAOBax/+KIn4fZbAKgf4Bmz2VwLLdYSOnjp2HmgkmY7juuVsBxVOYHVlYC97B3fOuzEchf1XiyWwQoj95hYmAUt087UQ1FkVZUagPxBYOi1Q37JKp6nzPOK+T8zTpFWVpAXmu0V0PSGBW5pXcnu+MnaeRaAcCMhSYm3C0wiJcti3NsNFoN8QWAqyHpLqJZPO4Gczb6YFUjHF18MKrKqHy0fMoi0shVaPRcAIAjc+cikq9ohNITSCbvRK+wOB5TiS6w6o0wK7k3FS2RjZrEsg5esWaCLSOl8+xle4ec43TKjvTzotgRVCtJefweARWV7SvQ9CUGdVlBmBWiWwRHIFc3PdAtNpGvwsMX3LqsxwGzWfI7AcvtS8gl8YNWSVWwRKRECTx21LeALBtj8vEctKEK9JAksXPRTQdax0x8BUimyyB88L8J3qPxs/6rYRRYIMF46/hAOVsL+sDxaBd0Tg8wvPxon9LtcL2o7qR6AWCaxct8BAkc66udtVB3vqSKYPHd5VavH1MHaSF0DcuZJbLn4oDHX9WYclsEKK/uYW1tbegWNI4FSZmlohsJxDTQVUT4qGZIrGIMhli9c0YXX4VtMphI7w2fEr+U2VbUPrbj9EYPti7gNO6YdLr7kl1xSBpVBZj0CnBfb2kvUDxJFcena/ep5s3c97z7uaZM1tVrug2kLgYw9PYXB8OY6qq62F9dPV1AqBlSOmBA5017Ovo4FMNoaqZbbqCPvV169l/oncMe+1frqbQ1u2JbBCgnJLCy8KDApJnVVTRgSqlsBSiOi0wExtpwUWuDUkrvjw2BW8UqCcnW4RiByBbYuZr+CKQ7/y7KhmBKqWwHrzV2Emi59O4qcy+F4GP/AI+nNKki4R+ZrDhTNm2GY91fy97Be+f/rRd9GgXsFRTf1ivbW+yGolsDQ35fmKrt4EPalErgh7OhvLFV/vZ7zVH7aoTiH0s8O487L2Wt+2ptdnCayQEN48laUoxoSkzqopIwLVRGDptMBAcLJZ4qk0A4IsbnAol8O+AOvrZ4InwgeaV+VuSNphEahoBLY9wWeVw+dtOnpFhykv56qGwNIPCx98QXLdAlNke7vI6v+vxgZPeQWniEkK9o2dxZwiRK2IRSBaBD6/cCKBu4K4Mzhaw9aaEQSqicDyfQcvUPT0JjjQU08qHcexmax/2Be+JLljTqM9pCz9m2IJrNIxzGnYNJVFSjE5JHVWTRkRqGQCy3EIdCpgb4oBWV2APcAtI1TVYDojDpdPepXN1eCs9bF/I7B1MRcr+HdlO9pW/UaoeALrUFqg39VBOp3GCw5V8LQHH++w8xSsGDuLT1X9xrQLqH0EbnpkJElZw4D4iNpfbD9YYSUTWLpTYNZ3ONhdx4GuhlzhdcEyVu+0LbP+Lu689Nh+sGuNL9ESWCFBvHkqP0dxakjqrJoyIlBJBJajEE1SZTIkfI+Y7hiYDYjZG1b5bRAFGYlzcfNL7MxPws6yCJQPgT2/4fi0xy8sgVW+GIRluaIIrDeLr2cz+LpTYCqF72XxdCF2e8uq74iLbgYiPDjhIv5v37PtDItAmRH43481ctB/jQExmxVS5lCEYr6SCKxcWqDn0JWM59ICdQH2tOdCP04LLCTIXrCBBZecUIiInXtkBCyBFdLO2NTCDxWcG5I6q6aMCJSbwAoEpX8wZ9Ik0mkG+D4uTq4gux2FIxAo4byJK7H55oVjZyUiRmDb/TSoYfyOQw0Y7KhiBMpNYEmQa4ucSwtMdpPp7SGrN5UlrArfVLrxucDNE2bxg8KlrYRFIGIErrrfZcTA14i7NiskYuiNmCs3gaW7BerUwM7eBO1dDaSyMVx7yaqoWPvBCu645LSiZK3QHyFgCayQNsTmU7iVGPPAFvgMCdKyqYmcwHqz+HoyRUM2S53v40iNtySPJLj6GrMH7hBaxj9rO0dFgrk1UjIC259kBco+R0oGsswKykJgOZBOEnR3k85k8EVyjT1sWmCJe0GERl2bbtxMFpeoyopbBKJB4JqHXmVg/bT+3HghGqAjsBI1gaXTAjOeQ3tnAx3d9bkUwcCmBYYS6YPJp7j3ygtD0dXPlVgCK6QNsGUqQ0XfwHI4RwnTBE4CEkAmJBNWTUQImCaw3koLzGZIZHVaYJaEJ4dqWdnUwOKDrDSGStdtZwuKVx3hhTT89vhWthev1UpaBKJFYMcSzgiEs5Riihx6lgxVQhpliYhoI1GaNeME1pvF13W3QE1W6X+6lpUEudt79rddCeETqHMUSRHWibBSKZbvGszTZ55JtgS1VtQiEB0Cn3lkHNnMTOLu+Tixc3HVCbgqbq9gRheC0CyZJrB0WmDWc+hOxulNx+lJJsj4ud/Toa2hPyoSIddGKghewwueIeM/9/vv42K+f9kb/RGOsNdsN2fYiL6pb1cLjWnFPBGuQWhW+sVaiNnUEEOAh6jWBIGlj8B1WmAqRX0qRYPo4us2LbC0qOkbVjrVSvBRHBB40GvgweOft4RVacBa6UpBQO7HbRvFWfh8XClaAiGmhMSbZJa9WVMpgTqCHyYILJ0WKArJZgl6ukgne/FyaYGasLIEZ/G74dCzJKvfN1BsVIr/imVZNnoOPcUrtZIWgQpC4HMPTSBwPorwEWLOGBLuIFCapLCj0hEwQWAFcigt8GBXHft18XXPxbU9oUraCrlfZBLg+Z2k/Z34/JpB3j3c9r7XS9JrhY+IgP3TZXhjzAfng2cxtCnJmMDhPBGuVnCSCCmbJmIY/CLVh0Fg6W6BunZVMsmArEfCD3JFYO33rciYvCWmQElAk3LYIfBz3+cJN2D7xGPYq5bZtKsS4bXiFYzAjuUM8Do41oVTBOYC75FDJY3SFex2v3UtJAJLacIqncTv7SWTThOITyC2W2Dp+0rhilCvuwuiWOjDSwN9tg+7iI7SlVsNFoEKRWD+0hhvdB9DjAnE3SsJ5IMomqmL23ubFRoywiCwdFpgOuuyv7Oe7mQdnufii5O7123fTEqLfMYHL9iDUv9NIA9SF9vE3o7dPHC1zcAqDdmjStttaxDcd1CtXj+F8a7Le3E4Twkn6RtaOeJW6ZqrdpQbgUIJLJ0SqH3W6YBZj7juFOhliXs+rjr0eLCjSARyhBXEEXbgsB6PlzyX3xzXyhqFLXRdJKxWrAYQ+N39NIwfydkIFzjCSQEcBwzQnTdrYHlVv4SiCCydFhggmQxBNoufTONlkvhaly2+XvKWiAG+gs0BvIbihViMp4+9gL0la7YKLALVioAu+D6ycSo9Mot65z046jRQzcQcm0BWKTEtlMB6681eE1bJdIyedJyu3jo8nRZoX/tLDqu+9yzSRlZeJgieI64e50DPKzxwtX2HLxnc/BXYnZw/VsZm/v/t3fuTVOWdx/H39zmne5jhIhcNioiOgAZFFNEiXqKgGKOiRisSa7ObrY3GZJNsdv0P5vetrdSuFTXZzWWTrWR3qM3GaLzgBbwEUREF8YpGEFRQUWSYW3ef57uehrI2W2oPTM/0NP05v57u5/J6zszp8z3P83y3LOSoNPLNEPkqMOXAzKx8I28FP0ZM/dMLHnIAy/AYSfIlgYMDtFecEJQ9bFgjlm9enz/D5flN8oc2YFWWcMvsZ9kyrIL1ZQkc5gKbuylOnsIlHriBPJjllMyqe+vpPtKAsR9qAOvAyysGB8h6PmSgVKKSZ6JVwGrYg5b/vs1XWOaBq3yJ+W9Kke7ZmmE1bFgVcJgL3HjXPCp+M6ldSyEdTxratB9SA8f8YAJYlUqoLgl8f287WQwEZQsc9sjla8ujDzJQ6WEgu5fx4Yf85MoNwy5XBQxLQAGsYfHV98vrF1GYPMjRIXACzpIErgaOwehVMKu+1p9V2icFsPJZVvkv4Txg1d9HRyWjoGWB9RsTczqAHoxV7qxKErbQzg5lD6yfsUpqHYE9jzJlT4nO1DkNYzlw6oGEInpDOEqXwacGsPIIvcPAAJX+PsrlElmlUg0yKtA4/LHJZ+yOD84bGHe483Rbka1HPsQu69KM3eHzqoSWEriuu52JE2eRVE4hpFeRZVeShGm05TFhHaMm8GkBrPwtx0ApYXfPOAZKBUqltBq0qh56vB/W+JQzyPxDYryPJPyWgcpmxg9s49YV+4ZVrr5cNwFd4XWjrH9B3deRLH6Vk2OFS80422F2gCNx8u338niKjhEQyANYR0zgw/wteL6PVTVTYIViqUyRjHBg1fgI1NwaRX68LBD24vzJjGc9cr8fyYbONQy0hoJ6KYHRE3j7EY6KJS7OjMXBmY1x7IGZKZXRa0Vr1fRxACslxAwvV4h5psCBPirlEpXswAZmraVS3946JAfuJzvN2WqBjdFYddxSXq1vTSpNAhLg5u52etoXU+FSism5pHYqhKkkeZoq+YyYQB7Amj65t/qKo5QvCyyl7Bso0tNXrO5lpVlWw6fP8mWB7KEUXyTGJxhfvIfBwcf4yZV9wy9cJYyEgP7ljITqCJa5/UzmVCp8Mzgr3KpT47WBb529iwXKeUancom2vGjNfqsTsFeXM40jsMYq3DbredbmkxHqVLqKkYAEhiiwvZt2m8bXDL7lMBXQj7Qh2g35Y45PnkpHni1wsEymHWWGLDeUDxbNKbvx397HL467kjeH8iV9RgISqKeAG9+5ZymD8QcUwnIKSagGs3TUV2DyhD7cjT097dWCTcsC6wIc3emvlMmyx+hI/pFbr7i3LuWqkFER0D+aUWGufyVb5tBWnMhsz5hncAGwNN8/y/UgUn9slXioAm04FQJrPfJQgOf6S7zy+ZfpOdQC9T0JSKB+Anlm1DfXcCwZc0NgYXSWYXQS6c+D+PWrqUVLUoaneg18hxnvufMwkcfdeWVmgddtqTLP1gtY5UhgWAJ/d/ck9pXmkRYWEuxKYAlJ6CBVsGVYrvmXdR8ZNmG1gDx/bzkO4v4w7ndTqqxnwviX+NGy3fWpQKWMpoACWKOpPYJ1vX4C42wiCy1wtcfqvifHAJMNKppBNILwKvpjAcuzBUI+zXknxqsZ3GOBRzqfZY+YJCCB5hDY9SCzS85yhzNDYAZwVPUntGvZenOMYNO3cn/mWXg/OG+7szkk3POysXGpAlZNP7jqQIsI3NA9ldh+EUm4hoRTSZJOjEkkCmi1yBXQ+G7m6/Td+6j4a8T4Al65h47C3dxyuTLPNn50ht0CBbCGTTj2CuiG5Lo5pG+M52xzvhedJVh1byGlVx97w9XULaruP+JMAp53uGVSBw9taqdv6Rq9GW/qgVXjW14gn53F06Sv72JGsZ1vmPMVhwmANjFt+atjBACMYnBChEei87PBEpvmXEbZtN/nCGCrSAmMokDX6pS3KuNJSlcwEP+BJJxNR74Dih5BR3EUWqOqfLZabynfgH0zHYUfse+dXzH7uEG6luYJbDSr/DC6CvTf4zAazE/rymuLOCIpcYrBadE4DzjHqO7vpA2zW2D869zF/M24mfGcO4+GyMYssqnzBXbWuR4VJwEJjCGB9espTH+P45MiCzyy2APnmVeXres+MobGqVma4jDOoT/AkxjrLOO59yKvnH4pvc3SB7VTAhI4BIHvr5rB3oHTaQtfIIRLCOFsgqXVlAw6JHAwAtVlgVmG+2bgHsr8EdKNHP/4m3R1KdnZwVg22Wf136LJBqwezd25gPF9cFHiXItxIjDNId8cUBmp6gF8GJVhTuJGnuR9N8bbwfnDYMpdc59BU3APo3FWVyRwKALbH2BBMK7Jlxva/j0Y89mY+Y9Gvek8FNDD+zupezVZwAfBeDVEfvtSymNaFnh4D7p6J4GaAjfeMZ0suZbUvkqadBJsBkYbQY+oNe1a7QPu+V5WGdF3kMWtRP8dbv/DT6/Y1moUrd5f/Xdo7SvAXj+BtmwSk9qM87PId82Yj9Pjmrbf0leGORM/yi+zMxo/95Q7xpfZffsm+rv2P5zqkIAEJPCxwPofU5hyIh1JYHZq3BjggpjvmqVl6y19lbiTb3gzPhjPZBk/DYGn+0vsm3u5sie39IWhzkvgkwS6ugLvnNJBnHgklXg9+N8SwizG5csNdbS0QH8FYtyB80ss/Tk+uItZV/XSZXomadELQwGsFh34T+q2g209m+k2wJnBOCPCF4GT84skn6QpqsNTwPY/ZIxzY5s5jwIbzNmwbh5bV6wkXzeuQwISkMCQBTavZsK0yCkVON2MRe7Ve0qHuwIXQ0Zszg/mS8zzRR0veOSpJOU5z3hm5jKU5ak5x1OtlkDjBK7rTjhy4hz2lRbSXjwfi1/CbC6FJN/IonHtUs0jK5C/+ipnkSxuh/AAldKjtCdP8m7fa6xcob2cR1a/aUrXf4CmGarGNHTXYqb397LcAlfhzHBjokHqKLDRmBEZfq3VgJWRT8TtcWe3w6MY3Sdu4uXhl64SJCABCfy5QFcX4dsXckEW+RrG5/HqkvVx6D7S7JdK4k6ZQK8Z2w3+8AHcNX+pNvpv9oFV+yUwJgW+9ftTKdn1FMNlFJLjCDYNI1FAa0yO1tAalQes3CPRP6Bc2UmFe2gLv+b2y57N80QNrRB9qtUEFMBqtRE/xP52QfjrM5jkkenBuMScv8A53k0/VA+RdNS/ZtDheQYxZ6XBHYUi246ZyB5TxsBRHwtVKIFWFMhn+W66j44pxhGWckaAv3RnIcYgrpciTXJN5L8bOzB2YPxHeYA1Eyay+8gH6LUuLTFvkjFUMyXQ3AI3rS/Q/8YU2ts6wa4HvkGwqRST5u5XK7W+lEEl7iG13xDt15Tiq/T2vq9ZVq10ERx6XxXAOnS7lv5m/iDy2qnMDinnhMhCAguBTouUtX9W4y8Ny19beDXT5DtmPGuwIcITT25i4wrNemj8AKkFEpBAVWD7vUxNCpyVUb2H5EsO57F/WbOSioyFa2T/jN0kOlvTwLPAs2Ssn3EJb4yF5qkNEpCABMiXG05rX8SAnUvBzicNXwA7lkJ+K9ExJgTKWb4fTZ6x/AnKlScwe4zKu0/xi79RJuMxMUDN1QgFsJprvMZsa6sBrfnMLAS+CVwaYYJBW75cTQGtkR+2AwGrfFeAfoySG+uAnz65kU0KWI28v2qQgATqI7DzPsZnKVcF4ytZZNb+5SEUcM3uqY9wjVL2B6wiTgnjA4OHkgq/PPpS3hmV+lWJBCQggeEK5AGtSe2LKMWbaEuX0ZZOxZiAmaEn3+HqDu37+V3EvZeB7AOy7I9MSH/Mrp5HWblCe+sOTVCf+gwB/Rnr8qi7gC+i8EqFz42DTo98yYxr2J9ivbfulanAfJZVnu/r/o82S77TYXMynp3HPU6/aCQgAQk0q0CewW7rGiYVnenRuSAYK9yZhdNXDbDoqKuA73/ptBvnzopx37hx7Jhe4n1bqplwdYVWYRKQwOgK3HRnBxU7GuJCkmQFiV1JCO2kmp1V94GoRCjHQWJ8APNfUa6sZ/zkXdy6dF/d61KBLS2gAFZLD//odH71EtLO91ngcAH5MhFnnsF0Mwa9muBQx0EItBn0YLxozsZorPUpPN65Bk3BPQhEfVQCEmg6Adu9mmP7nXPdORtjnjkzD/RCb3QPbjjz3355bvp3o7ElRDZY4OEZS3nFTPfkg6PUpyUggaYSuLm7nT3FCyD9IsVwDiEswjhCAa1DGMU8YOW+j8gzeFxH5g9TZC23Lf/gEErTVyQwZAEFsIZMpQ/WSyBfbvjW6ZxRcW4CvhghhP0/pvNfzgpo/R/ofGkgTgXDImxJUn702iQeXKqN1+t1OaocCUigSQXefoSjshLXBOP6CEcc6Eb+u0b3kT8f0+pvPTcyy7fNjTwU4N9nLuOVJh16NVsCEpBAfQS6ulLePvsKBrMfUEwW0lboAG9TZsNP4M3vrOYl+it9uL9AmtxCe88d/HCFVn3U52pUKUMUUABriFD62MgIbFzA+GnGsZlzcjSWB+cSp7qB7+DI1NgEpTqJGeMc1kXjd2RsSoztxz+H3mg0wfCpiRKQwOgK+GrSHZHp5syywPkOl+PMwOmtvgJo1cNpN6suJ7/fjfuzyOsx4a3OpZqx26qXhPotAQl8hsDN905l9+DxjEsXEf16kuQiisFaOpgVHUqVfEerx4GV9MdHKSTb+dll72HWuvdX/SE1VEABrIbyq/L/L/DWIjrKGedZxgUxMN+cOfneHEDpMNYq2P7+bY3wUgLrCgkPHvMM7x7GfVbXJCABCYyIgHeTvHUkc6JzyYHMhnNwph3IbHjY/uB2KAI9Bq9hvGDOw32DPD338hZ+ITQiV5gKlYAEWkLgxjumU+ISCuFC0mQRSZiHMY7kMN4/K8uXBTJI5q8S4wZKcTXtrOL2K99siTFXJ5tCQAGsphim1m3k+kUUppe5OMJ33TndrfrmOM+217QPIdWMgRDd6QiwwwL/WnS6j96kTe5b90pXzyUggZEU2L6KuSFwoxuX5rN8DcojWd+olW2E6LQFZ9NHyVL+eeay6ltyHRKQgAQkUG+B67onMLnjG5T8OxTDSbSnBbDmj2blqaAGymXct4P9C+ngf3L7tco8W+/rR+XVTUABrLpRqqCRFth2GlOyyFxLWWjOMoOz8kDQgbfqI1398MrPU5Pnb8eN18y4L0bWufNS52beaeZg3PBQ9G0JSEACoyuwvZt2m8pxbswOcKHDReyf5dsUe3i4U8g3WjfjqQCrKpGXSs622Zfw4ehKqjYJSEACrSrgxvfvP4aewXkU7EKwq0nDfIpNMjUrnwJQquRPUC8Cv2cgn2XV9iIzlu2gK99yV4cExraAAlhje3zUuumnXTgAAAeuSURBVM8Q2LKYSWk/lwdjqTv5EpEZGG2MhTfrTlJtuvG2GVvNWZuWuXvGi2zToEpAAhKQwNgQ2NxNcdJUFicJF7kzD2emO5PMxswMrdSMUoy8GRK2EHmkZx9rPn81PWNDUK2QgAQkIAFuuns2A9lyisnFpHYKqXViFsbE/lnukHkGvp3MX2awsoaOcAe3Ls8DWDok0HQCCmA13ZCpwZ8kkC8JeX4JHRPf59rofN+MWQZ7G5DVMH+T3+POryspt815ht0HZlg17ZJHXXESkIAEWkHAHVu5knDONBYF+PvofMGMfaM9y9edYMZkd15OAj855j3u4jrK+cyrVhgH9VECEpBAEwsYXW5su2casXwzSbiBQvo52va/1x7VoxQhy/rJ/N8w+yf29u5g5XVx/04mOiTQvAIKYDXv2KnlnyGw/XSOLcOpIbIY40KDk/JNCd2qSw7rcni+8N1pd9hpxmoLrDV4flfC1rOeHjNv7+vSVxUiAQlIoNUEdq9j0mA/J8XI/OgsCYHTHQqWb3Bbx8MhBRJz/kRgdYisJ+HFY5awW0GrOkKrKAlIQAKjLXDTjwukJ86hb3A+aVhG8C8TwiyKIxDQKmX5ssC3ce6mXH4Ikufo7X2ZlSsO50RYoz2iqm8MCCiANQYGQU0YeYE353NcJXAtznluzDQ4Mn/LjZENufb9b8Xzd+AfOLxDYEPMWHni5urmuTokIAEJSOAwFtiyjknj9nGuGV92OCm/j0B12XrlILud4NWXKbsxtn+0F9fqUpkHTvgybx9kOfq4BCQgAQk0m8D37j2TvYNfoy05n2JyIhamH3jCGHpP8jlUeToo/D3K2Z/oK6+lI/yWGRvW0dV1sPekoderT0pgDAgogDUGBkFNGD2BfKnhjnNoG+hlWup8/aMsgDcC7dHo+4zN1NtwLBq/i/CvE+D1F6cyuHTNQT+0jF5HVZMEJCABCYyYgG+muOddOvqcC925wZ1Tgb32KbN88+WJFphoXk3c8fNQ4ff9RfaesIRBzbIasWFSwRKQgATGrkDX6pR33h3H4IS5ePweSfg6hTCO9DMSG2YRKtGpZP9FGm6jXHmGdOcAP/n24ZFZd+yOllo2hgQUwBpDg6GmjL7A6iWkne8xNyQswDkrwvnmzMwfRNxYC6zLIhvb23hhxtP0jX4LVaMEJCABCYxlgTw4tWstR2UlFrizwGCxwyk4iRnbcNaZs7EMm2ZdzDY7mJm/Y7njapsEJCABCdRP4K/uG09bdhr4IhJbAnYxMAVjL86jVOKDeHgKShv52dVK5FE/eZXUZAIKYDXZgKm5Iy+wdQGdT57MGytWHsTywpFvlmqQgAQkIIEmEdh6L8eEAh2zLua1JmmymikBCUhAAmNJ4LruhGltC3gzvMydV+ol+lgaG7WloQIKYDWUX5VLQAISkIAEJCABCUhAAhKQgAQkIAEJ1BJQAKuWkM5LQAISkIAEJCABCUhAAhKQgAQkIAEJNFRAAayG8qtyCUhAAhKQgAQkIAEJSEACEpCABCQggVoCCmDVEtJ5CUhAAhKQgAQkIAEJSEACEpCABCQggYYKKIDVUH5VLgEJSEACEpCABCQgAQlIQAISkIAEJFBLQAGsWkI6LwEJSEACEpCABCQgAQlIQAISkIAEJNBQAQWwGsqvyiUgAQlIQAISkIAEJCABCUhAAhKQgARqCSiAVUtI5yUgAQlIQAISkIAEJCABCUhAAhKQgAQaKqAAVkP5VbkEJCABCUhAAhKQgAQkIAEJSEACEpBALQEFsGoJ6bwEJCABCUhAAhKQgAQkIAEJSEACEpBAQwUUwGoovyqXgAQkIAEJSEACEpCABCQgAQlIQAISqCWgAFYtIZ2XgAQkIAEJSEACEpCABCQgAQlIQAISaKiAAlgN5VflEpCABCQgAQlIQAISkIAEJCABCUhAArUEFMCqJaTzEpCABCQgAQlIQAISkIAEJCABCUhAAg0VUACrofyqXAISkIAEJCABCUhAAhKQgAQkIAEJSKCWgAJYtYR0XgISkIAEJCABCUhAAhKQgAQkIAEJSKChAgpgNZRflUtAAhKQgAQkIAEJSEACEpCABCQgAQnUElAAq5aQzktAAhKQgAQkIAEJSEACEpCABCQgAQk0VEABrIbyq3IJSEACEpCABCQgAQlIQAISkIAEJCCBWgIKYNUS0nkJSEACEpCABCQgAQlIQAISkIAEJCCBhgoogNVQflUuAQlIQAISkIAEJCABCUhAAhKQgAQkUEtAAaxaQjovAQlIQAISkIAEJCABCUhAAhKQgAQk0FABBbAayq/KJSABCUhAAhKQgAQkIAEJSEACEpCABGoJKIBVS0jnJSABCUhAAhKQgAQkIAEJSEACEpCABBoqoABWQ/lVuQQkIAEJSEACEpCABCQgAQlIQAISkEAtAQWwagnpvAQkIAEJSEACEpCABCQgAQlIQAISkEBDBRTAaii/KpeABCQgAQlIQAISkIAEJCABCUhAAhKoJaAAVi0hnZeABCQgAQlIQAISkIAEJCABCUhAAhJoqIACWA3lV+USkIAEJCABCUhAAhKQgAQkIAEJSEACtQQUwKolpPMSkIAEJCABCUhAAhKQgAQkIAEJSEACDRX4XzoUhNIFcpJiAAAAAElFTkSuQmCC;" vertex="1" parent="1">
          <mxGeometry x="115" y="361.39" width="230" height="87.21" as="geometry" />
        </mxCell>
        <mxCell id="nfWhpfNoUpbQ8YIpsQVP-17" value="" style="rounded=1;whiteSpace=wrap;html=1;" vertex="1" parent="1">
          <mxGeometry x="480" y="240" width="220" height="340" as="geometry" />
        </mxCell>
        <mxCell id="nfWhpfNoUpbQ8YIpsQVP-18" value="API PYTHON" style="text;html=1;align=center;verticalAlign=middle;whiteSpace=wrap;rounded=0;" vertex="1" parent="1">
          <mxGeometry x="480" y="210" width="90" height="30" as="geometry" />
        </mxCell>
        <mxCell id="nfWhpfNoUpbQ8YIpsQVP-19" value="" style="shape=image;html=1;verticalAlign=top;verticalLabelPosition=bottom;labelBackgroundColor=#ffffff;imageAspect=0;aspect=fixed;image=https://cdn0.iconfinder.com/data/icons/long-shadow-web-icons/512/python-128.png" vertex="1" parent="1">
          <mxGeometry x="500" y="250" width="128" height="128" as="geometry" />
        </mxCell>
        <mxCell id="nfWhpfNoUpbQ8YIpsQVP-20" value="" style="rounded=1;whiteSpace=wrap;html=1;" vertex="1" parent="1">
          <mxGeometry x="500" y="400" width="180" height="160" as="geometry" />
        </mxCell>
        <mxCell id="nfWhpfNoUpbQ8YIpsQVP-21" value="BD ORACLE" style="text;html=1;align=center;verticalAlign=middle;whiteSpace=wrap;rounded=0;" vertex="1" parent="1">
          <mxGeometry x="628" y="370" width="71.95" height="30" as="geometry" />
        </mxCell>
        <mxCell id="nfWhpfNoUpbQ8YIpsQVP-22" value="HTML, CSS e JS" style="text;html=1;align=center;verticalAlign=middle;whiteSpace=wrap;rounded=0;" vertex="1" parent="1">
          <mxGeometry x="128.05" y="340" width="101.95" height="30" as="geometry" />
        </mxCell>
        <mxCell id="nfWhpfNoUpbQ8YIpsQVP-23" value="" style="sketch=0;outlineConnect=0;fontColor=#232F3E;gradientColor=none;fillColor=#C925D1;strokeColor=none;dashed=0;verticalLabelPosition=bottom;verticalAlign=top;align=center;html=1;fontSize=12;fontStyle=0;aspect=fixed;pointerEvents=1;shape=mxgraph.aws4.rds_oracle_instance;" vertex="1" parent="1">
          <mxGeometry x="545" y="435" width="90" height="90" as="geometry" />
        </mxCell>
      </root>
    </mxGraphModel>
  </diagram>
</mxfile>
